<?xml version="1.0" encoding="utf-8"?>
<!-- Generator: Adobe Illustrator 19.0.0, SVG Export Plug-In . SVG Version: 6.00 Build 0)  -->
<svg version="1.1" id="Layer_1" xmlns="http://www.w3.org/2000/svg" xmlns:xlink="http://www.w3.org/1999/xlink" x="0px" y="0px"
	 viewBox="0 0 678.5 405" style="enable-background:new 0 0 678.5 405;" xml:space="preserve">
<style type="text/css">
	.st0{fill:none;stroke:#000000;stroke-miterlimit:10;}
	.st1{fill:#7020FF;}
	.st2{fill:#20F23A;}
	.st3{fill:#F02E00;}
	.st4{fill:none;stroke:#F02E00;stroke-miterlimit:10;}
	.st5{fill:none;stroke:#F02E00;stroke-width:3;stroke-miterlimit:10;}
	.st6{fill:none;stroke:#7020FF;stroke-miterlimit:10;}
	.st7{fill:none;stroke:#20F23A;stroke-miterlimit:10;}
</style>
<rect id="XMLID_2_" x="296" y="313.5" class="st0" width="101" height="55"/>
<path id="XMLID_3_" class="st0" d="M406,369.9c0,2.5-2,4.6-4.6,4.6H292.6c-2.5,0-4.6-2-4.6-4.6v-56.9c0-2.5,2-4.6,4.6-4.6h108.9
	c2.5,0,4.6,2,4.6,4.6V369.9z"/>
<path id="XMLID_4_" class="st0" d="M363.4,301.8c-0.5-6.5-0.3-13,0.6-19.4"/>
<path id="XMLID_5_" class="st0" d="M363.5,281.9c-3,1.8-5.8,3.9-8.3,6.2"/>
<path id="XMLID_6_" class="st0" d="M364.2,282.3c1.4,1.1,2.7,2.2,4.1,3.3c0.4,0.3,0.8,0.7,1.3,0.9c1.1,0.6,2.5,0.9,3.3,1.9"/>
<path id="XMLID_7_" class="st0" d="M338.4,281.9c-0.4,6.3-0.4,12.6-0.2,18.9"/>
<path id="XMLID_8_" class="st0" d="M328.5,294.8c3,2.5,6.3,4.8,9.8,6.7"/>
<path id="XMLID_9_" class="st0" d="M339.5,301.7c2.8-2.3,5.9-4.4,9.1-6.2"/>
<path id="XMLID_10_" class="st0" d="M186.8,360.4l-18.9-38.8c-1.5-3.1-0.2-6.9,2.9-8.4l22-10.7c3.1-1.5,6.9-0.2,8.4,2.9l18.9,38.8
	c1.5,3.1,0.2,6.9-2.9,8.4l-22,10.7C192.1,364.8,188.3,363.5,186.8,360.4z"/>
<path id="XMLID_11_" class="st0" d="M187,353l-15.7-32.2c-0.9-1.9-0.1-4.3,1.8-5.3l20.3-9.9c1.9-0.9,4.3-0.1,5.3,1.8l15.7,32.2
	c0.9,1.9,0.1,4.3-1.8,5.3l-20.3,9.9C190.4,355.8,188,355,187,353z"/>
<ellipse id="XMLID_12_" class="st0" cx="205.3" cy="353.1" rx="2.4" ry="2.1"/>
<path id="XMLID_13_" class="st0" d="M212.2,309.7c8-8.2,16.5-15.9,25.4-23"/>
<path id="XMLID_1_" class="st0" d="M264.6,284.3c5.5,8.1,13.4,14.3,21.1,20.3"/>
<g id="XMLID_15_">
	<g id="XMLID_1283_">
		<path id="XMLID_16_" class="st1" d="M222.1,270.2c3.3-5.6,8.8-9.1,15.2-10c0.8-0.1,0.5-1.3-0.3-1.2c-6.7,0.9-12.5,4.8-15.9,10.6
			C220.5,270.2,221.6,270.9,222.1,270.2L222.1,270.2z"/>
	</g>
</g>
<g id="XMLID_17_">
	<g id="XMLID_1274_">
		<path id="XMLID_18_" class="st1" d="M235.6,259c2.1-3,5.4-6.3,9.3-6.1c3.9,0.2,6.6,3.7,8.7,6.6c0.5,0.7,1.6,0,1.1-0.6
			c-2.4-3.3-5.3-7.1-9.8-7.2c-4.5-0.1-8,3.4-10.4,6.7C234,259,235.1,259.7,235.6,259L235.6,259z"/>
	</g>
</g>
<g id="XMLID_19_">
	<g id="XMLID_1267_">
		<path id="XMLID_20_" class="st1" d="M254.5,257.6c6.6-3.2,13.9,0.5,15.3,7.7c0.2,0.8,1.4,0.5,1.2-0.3c-1.6-8-9.9-12-17.2-8.4
			C253.1,256.8,253.7,257.9,254.5,257.6L254.5,257.6z"/>
	</g>
</g>
<g id="XMLID_21_">
	<g id="XMLID_1260_">
		<path id="XMLID_22_" class="st1" d="M271.3,264.4c3.6,0.6,7.3,1.2,10.4,3.2c3.6,2.4,6.2,8.2,2.3,11.5c-2.7,2.3-6.8,2.2-10.1,2.1
			c-4.2,0-8.4-0.1-12.6-0.2c-8.2-0.1-16.4-0.2-24.6-0.3c-3.7,0-8,0.3-11.5-1.4c-4.3-2.1-5.8-7-3.6-11.2c0.4-0.7-0.7-1.4-1.1-0.6
			c-3.7,7.2,1.8,13.3,8.9,14.3c5.7,0.7,11.6,0.4,17.4,0.4c6.1,0.1,12.2,0.2,18.3,0.2c6,0.1,19.8,2.6,21.9-5.9
			c2.2-9.1-8.8-12.3-15.3-13.4C270.8,263,270.5,264.2,271.3,264.4L271.3,264.4z"/>
	</g>
</g>
<g id="XMLID_23_">
	<g id="XMLID_1234_">
		<path id="XMLID_24_" class="st1" d="M279,251.1c-1.5,0.8-3.2,1.7-3.9,3.3c-0.6,1.3-0.4,2.9,0.7,3.9c0.6,0.6,1.5-0.3,0.9-0.9
			c-2.3-2.1,1.3-4.4,3-5.2C280.4,251.9,279.7,250.8,279,251.1L279,251.1z"/>
	</g>
</g>
<g id="XMLID_25_">
	<g id="XMLID_704_">
		<path id="XMLID_26_" class="st1" d="M279.8,251.4c2-3.8,6.7-4.5,9.6-1.4c0.6,0.6,1.5-0.3,0.9-0.9c-3.5-3.7-9.3-2.9-11.6,1.6
			C278.3,251.4,279.4,252.1,279.8,251.4L279.8,251.4z"/>
	</g>
</g>
<g id="XMLID_27_">
	<g id="XMLID_684_">
		<path id="XMLID_29_" class="st1" d="M291.3,249.6c1-1.1,2.7-0.8,3.8,0.1c1,0.9,1.6,2.3,2.2,3.6c0.3,0.8,1.4,0.1,1.1-0.6
			c-0.8-1.8-1.7-3.9-3.7-4.7c-1.4-0.6-3.1-0.4-4.2,0.8C289.8,249.3,290.7,250.2,291.3,249.6L291.3,249.6z"/>
	</g>
</g>
<g id="XMLID_30_">
	<g id="XMLID_144_">
		<path id="XMLID_32_" class="st1" d="M298.6,253.3c2.1,0.2,4.1,0.9,5,3c1.6,3.6-4.3,3.4-5.8,3.4c-2.4,0-4.8,0-7.2,0
			c-4.4-0.1-11,0.6-14.3-2.8c-0.6-0.6-1.5,0.3-0.9,0.9c2.7,2.8,6.7,2.8,10.4,3c5,0.2,10.5,0.8,15.5,0.1c2.3-0.3,3.9-1.7,3.7-4.1
			c-0.3-3.3-3.6-4.5-6.4-4.7C297.7,252,297.7,253.2,298.6,253.3L298.6,253.3z"/>
	</g>
</g>
<path id="XMLID_33_" class="st0" d="M158.5,279.4c6.4-6,12.8-11.9,19.2-17.9c2.7-2.5,5.6-5.1,9.1-6.1"/>
<g id="XMLID_103_">
	<g id="XMLID_1247_">
		<path id="XMLID_1208_" class="st2" d="M144.2,276.2c-7.5,0.7-14.5,6.2-15.6,14c-0.6,4,0.6,7.9,3.7,10.5c2.9,2.5,7.2,4.8,11.1,4.4
			c3.9-0.4,9-2.8,12.2-5.2c3-2.3,5.1-5.6,4.6-9.5c-0.5-4.1-3.5-8.4-6.3-11.3c-3.1-3.2-7.3-3.3-11.5-3c-0.8,0.1-0.8,1.3,0,1.3
			c3.6-0.2,7.4-0.3,10.2,2.3c2.3,2.1,4.8,5.9,5.8,9c2.7,8.4-7,13.2-13.7,14.8c-7.7,1.9-16-5.5-14.9-13.3c1-7.1,7.4-12.1,14.3-12.8
			C145,277.4,145,276.1,144.2,276.2L144.2,276.2z"/>
	</g>
</g>
<g id="XMLID_104_">
	<g id="XMLID_1237_">
		<path id="XMLID_1200_" class="st2" d="M149.8,284.1c-2.1-1.7-4.7-2.4-7.3-1.6c-2,0.6-4.9,2.7-3.9,5.1c0.9,2.4,4.3,2.1,6.3,2.7
			c1.1,0.3,2.9,0.9,3.6,1.9c2.2,3-1.6,4.1-3.1,4.4c-2.9,0.5-5.6-1.9-8.1-3.3c-0.7-0.4-1.4,0.7-0.6,1.1c2,1.1,4,2.6,6.1,3.5
			c1.3,0.5,2.2,0.1,3.5-0.2c2.1-0.6,5.1-1.5,4.5-4.3c-0.6-2.8-4.2-4.1-6.6-4.6c-0.7-0.1-1.4-0.2-2-0.3c-0.5-0.1-1.1-0.3-1.5-0.5
			c-0.6-1.8-0.2-3.1,1.3-3.7c2.3-1.3,5.2-0.9,7.2,0.8C149.5,285.5,150.4,284.6,149.8,284.1L149.8,284.1z"/>
	</g>
</g>
<g id="XMLID_105_">
	<g id="XMLID_1229_">
		<path id="XMLID_1197_" class="st2" d="M143.3,282.7c-0.1,6.4-0.2,12.7-0.4,19.1c0,0.8,1.3,0.8,1.3,0c0.1-6.4,0.2-12.7,0.4-19.1
			C144.6,281.9,143.3,281.9,143.3,282.7L143.3,282.7z"/>
	</g>
</g>
<g id="XMLID_106_">
	<g id="XMLID_1201_">
		<path id="XMLID_1190_" class="st2" d="M144.8,282.8c0.3-0.7,0.4-1.4,0.3-2.2c-0.2-0.8-1.4-0.5-1.2,0.3c0.1,0.4,0,0.8-0.1,1.2
			C143.3,282.9,144.4,283.5,144.8,282.8L144.8,282.8z"/>
	</g>
</g>
<g id="XMLID_107_">
	<g id="XMLID_1528_">
		<path id="XMLID_1179_" class="st3" d="M92.9,260.8c5.1-0.6,10.1-1.2,15.2-1.5c1.2-0.1,2.6-0.3,3.8-0.2c1.9,0.1,1.8,0,2.3,1.9
			c0.7,2.3,0.8,4.9,1.3,7.3c0.8,4.7,1.6,9.3,2.4,14c0.5,2.7,0.9,5.4,1.2,8.2c0.2,1.4,0.6,2.7-0.2,3.9c-0.8,1.3-1.6,1.1-3.1,1.3
			c-10.1,1.5-20.3,2.4-30.5,2.7c-1.3,0-2.5,0.4-3.4-0.7c-0.5-0.7-0.5-2.9-0.6-3.7c-0.4-2.5-0.8-4.9-1.2-7.4
			c-0.8-5.1-2.6-10.8-1.2-15.9c0.2-0.8-1-1.1-1.2-0.3c-1.3,4.3-0.1,8.6,0.6,12.9c0.9,5.3,1.8,10.6,2.6,15.9c0,0.3,0.4,0.5,0.6,0.5
			c7.3-0.1,14.7-0.5,22-1.2c3.2-0.3,6.4-0.7,9.5-1.1c2-0.3,5.9,0,7.3-1.9c1.1-1.6,0.2-4.5,0-6.3c-0.4-3.1-0.9-6.1-1.4-9.1
			c-1.3-7.3-2.5-14.6-3.8-21.9c0-0.3-0.4-0.5-0.6-0.5c-7.2,0.3-14.4,0.9-21.6,1.8C92.1,259.7,92.1,260.9,92.9,260.8L92.9,260.8z"/>
	</g>
</g>
<g id="XMLID_108_">
	<g id="XMLID_1224_">
		<path id="XMLID_51_" class="st3" d="M78.7,271.5c2.4,1.4,5.6,1.1,7.4-1.2c1-1.2,1.5-3.1,1.8-4.6c0.5-1.8,0.2-3,2.1-4
			c1.2-0.6,2.6-0.8,3.8-1.2c0.8-0.3,0.4-1.5-0.3-1.2c-2,0.7-5.4,0.9-6.2,3.1c-0.5,1.6-0.6,3.3-1.2,4.9c-1.1,3-3.8,4.8-6.8,3
			C78.6,269.9,78,271,78.7,271.5L78.7,271.5z"/>
	</g>
</g>
<g id="XMLID_109_">
	<g id="XMLID_1214_">
		<path id="XMLID_47_" class="st3" d="M81.1,265.4c1.1-1,2.1-1.9,3.2-2.9c-0.4-0.2-0.7-0.3-1.1-0.5c-0.1,2.3-0.1,4.5-0.2,6.8
			c0.3-0.2,0.5-0.4,0.8-0.6c-1.9-0.3-3.9-0.7-5.8-1c0.2,0.2,0.3,0.4,0.5,0.6c-0.1-0.7,1.5-1.7,1.9-2.1c0.7-0.6,1.4-1.2,2-1.9
			c0.6-0.6-0.3-1.5-0.9-0.9c-1,0.9-2,1.8-3,2.7c-0.7,0.6-1.5,1.2-1.4,2.2c0,0.3,0.2,0.6,0.5,0.6c1.9,0.3,3.9,0.7,5.8,1
			c0.4,0.1,0.8-0.2,0.8-0.6c0.1-2.3,0.1-4.5,0.2-6.8c0-0.6-0.7-0.8-1.1-0.5c-1.1,1-2.1,1.9-3.2,2.9C79.6,265,80.5,265.9,81.1,265.4
			L81.1,265.4z"/>
	</g>
</g>
<g id="XMLID_113_">
	<g id="XMLID_1202_">
		<path id="XMLID_46_" class="st3" d="M85.6,277c4.5-0.4,9-0.7,13.5-1.1c4.6-0.4,9.2-1,13.8-0.5c0.8,0.1,0.8-1.2,0-1.3
			c-4.6-0.5-9.2,0.2-13.8,0.5c-4.5,0.4-9,0.7-13.5,1.1C84.8,275.8,84.8,277.1,85.6,277L85.6,277z"/>
	</g>
</g>
<g id="XMLID_120_">
	<g id="XMLID_1192_">
		<path id="XMLID_44_" class="st3" d="M88,282c4.3-0.3,8.6-0.6,13-1c3.9-0.3,8.4-1.7,12.3-1.2c0.8,0.1,0.8-1.2,0-1.3
			c-4-0.4-8.3,0.9-12.3,1.2c-4.3,0.4-8.6,0.7-13,1C87.2,280.7,87.2,282,88,282L88,282z"/>
	</g>
</g>
<g id="XMLID_127_">
	<g id="XMLID_1184_">
		<path id="XMLID_43_" class="st3" d="M88.7,287.4c8.1-1.2,16.3-1.5,24.5-2.2c0.8-0.1,0.8-1.3,0-1.3c-8.3,0.6-16.6,1-24.8,2.2
			C87.6,286.3,87.9,287.5,88.7,287.4L88.7,287.4z"/>
	</g>
</g>
<g id="XMLID_134_">
	<g id="XMLID_1174_">
		<path id="XMLID_40_" class="st3" d="M88.5,293.4c1.8,0,3.6,0,5.3,0c0.8,0,0.8-1.3,0-1.3c-1.8,0-3.6,0-5.3,0
			C87.7,292.1,87.7,293.4,88.5,293.4L88.5,293.4z"/>
	</g>
</g>
<g id="XMLID_141_">
	<g id="XMLID_1167_">
		<path id="XMLID_57_" d="M131.5,380.2c7.4-5.5,14.3-11.7,21.1-17.9c3.5-3.2,6.9-6.3,10.4-9.4c3.8-3.3,7.7-7.3,12.3-9.2
			c0.8-0.3,0.4-1.5-0.3-1.2c-3.7,1.5-6.8,4.3-9.8,6.8c-3.7,3.1-7.3,6.4-10.9,9.7c-7.6,6.9-15.1,14-23.4,20.1
			C130.2,379.6,130.8,380.7,131.5,380.2L131.5,380.2z"/>
	</g>
</g>
<g id="XMLID_148_">
	<g id="XMLID_1158_">
		<path id="XMLID_58_" d="M130.4,379.1c-9.2,0.5-18.5,0-27.7-0.1c-9.4-0.1-18.9-0.1-28.3-0.1c-18.8,0-37.7-0.4-56.5,0.7
			c-0.8,0-0.8,1.3,0,1.3c18.8-1.1,37.7-0.6,56.5-0.7c9.2,0,18.4,0,27.7,0.1c9.4,0.1,18.9,0.6,28.4,0.1
			C131.2,380.4,131.2,379.1,130.4,379.1L130.4,379.1z"/>
	</g>
</g>
<g id="XMLID_35_">
	<g id="XMLID_1150_">
		<path id="XMLID_59_" d="M624.3,307.9c0.4-3,0.5-5.9,0.4-8.9c0-0.8-1.3-0.8-1.3,0c0.1,3,0,5.9-0.4,8.9
			C622.9,308.8,624.2,308.7,624.3,307.9L624.3,307.9z"/>
	</g>
</g>
<g id="XMLID_39_">
	<g id="XMLID_178_">
		<path id="XMLID_61_" d="M618.2,304.1c3.7,0.1,7.7,0.7,11.3,0c0.8-0.1,0.5-1.4-0.3-1.2c-3.5,0.6-7.4,0-11-0.1
			C617.4,302.8,617.4,304.1,618.2,304.1L618.2,304.1z"/>
	</g>
</g>
<rect id="XMLID_133_" x="569" y="309.5" class="st4" width="48" height="24"/>
<line id="XMLID_147_" class="st4" x1="575.6" y1="333.9" x2="575.5" y2="322.1"/>
<line id="XMLID_149_" class="st4" x1="582.4" y1="333.9" x2="582.3" y2="322.1"/>
<line id="XMLID_155_" class="st4" x1="589.4" y1="333.4" x2="589.1" y2="309.3"/>
<line id="XMLID_162_" class="st4" x1="596.3" y1="333.9" x2="596.6" y2="322.1"/>
<line id="XMLID_164_" class="st4" x1="603.1" y1="333.9" x2="603.6" y2="322.1"/>
<line id="XMLID_169_" class="st4" x1="610" y1="333.4" x2="609.9" y2="322.1"/>
<line id="XMLID_175_" class="st5" x1="609.9" y1="322.1" x2="610" y2="309.3"/>
<line id="XMLID_176_" class="st5" x1="603.6" y1="322.1" x2="603.3" y2="309.3"/>
<line id="XMLID_196_" class="st5" x1="596.6" y1="322.1" x2="596.3" y2="309.3"/>
<line id="XMLID_197_" class="st5" x1="581" y1="322" x2="581" y2="309"/>
<line id="XMLID_198_" class="st5" x1="574" y1="322" x2="574" y2="309"/>
<line id="XMLID_203_" class="st0" x1="538.6" y1="277" x2="570.1" y2="303.5"/>
<line id="XMLID_204_" class="st0" x1="539.7" y1="254.8" x2="570.8" y2="254.9"/>
<g id="XMLID_205_">
	<g id="XMLID_1137_">
		<path id="XMLID_67_" d="M591.2,263.1c3.5-3.3,7.1-6.6,10.7-9.7c0.8-0.6,1.9-1.9,2.8-2.3c2.5-1.2,3.2-0.1,4.7,1.1
			c0.6,0.5,1.8,1.3,2.3,2c1.3,2-0.1,2.5-1.3,3.6c-1.8,1.6-3.6,3.1-5.4,4.7c-1.7,1.5-3.5,3.6-5.4,4.8c-2.4,1.5-2.6,0.6-4.3-1.2
			c-1.3-1.4-2.7-2.5-4.3-3.5c-0.7-0.5-1.3,0.6-0.6,1.1c1.3,0.9,2.6,1.9,3.7,3c0.9,0.9,1.7,2.5,2.8,3.2c0.8,0.5,1,0.4,1.8-0.1
			c2.6-1.5,5-4.4,7.2-6.4c2.7-2.4,5.4-4.7,8.1-7.1c0.2-0.1,0.2-0.4,0.2-0.6c-0.8-2.3-2.8-3.6-4.6-5.1c-1.2-1-2.2-2.5-3.9-1.8
			c-2.5,1-4.8,3.9-6.8,5.7c-2.9,2.5-5.7,5.1-8.4,7.8C589.7,262.7,590.6,263.6,591.2,263.1L591.2,263.1z"/>
	</g>
</g>
<g id="XMLID_210_">
	<g id="XMLID_1131_">
		<path id="XMLID_68_" d="M587.5,268.9c-0.2,0.7-0.4,1.4-0.6,2.1c-0.1,0.5-0.4,1.1,0,1.5c0.6,0.9,1.9,0.3,2.6-0.2
			c0.9-0.5,2-1.3,1.3-2.4c-0.6-0.9-1.6-1.5-2.6-1.8c-0.8-0.2-1.1,1-0.3,1.2c0.7,0.2,1.9,0.7,2,1.5c0-0.2,0-0.3,0.1-0.5
			c-0.2,0.4-0.7,0.6-1,0.8c-0.2,0.1-0.3,0.2-0.5,0.3c-0.1,0-0.5,0.1-0.6,0.2c0.1,0.1,0.1,0.1,0.2,0.2c0-0.1,0.1-0.3,0.1-0.4
			c0.1-0.2,0.1-0.4,0.2-0.7c0.1-0.5,0.3-1.1,0.4-1.6C589,268.4,587.7,268.1,587.5,268.9L587.5,268.9z"/>
	</g>
</g>
<g id="XMLID_211_">
	<g id="XMLID_1125_">
		<path id="XMLID_69_" d="M608.6,248.4c1.1,0.7,2,2.4,3,3.3c1,0.9,2,2,3.1,2.7c1.7,1.1,3.7-1.1,4.8-2.3c1.4-1.5-0.3-2.2-1.2-3.5
			c-1.3-1.7-3.2-4-5.3-4.8c-0.2-0.1-0.5,0-0.6,0.2c-1.1,1.3-2.7,1.7-3.9,2.9c-0.6,0.6,0.3,1.5,0.9,0.9c0.8-0.7,1.7-1,2.5-1.5
			c0.9-0.6,0.8-1.1,1.9-0.4c1.7,1.1,3.2,2.9,4.3,4.6c0.5,0.8,0.6,0.1,0.2,1c-0.2,0.4-1.3,1.2-1.7,1.4c-0.9,0.4-1.1,0.4-2-0.2
			c-0.5-0.3-0.9-0.8-1.4-1.2c-1.4-1.3-2.4-3.2-4.1-4.2C608.5,246.9,607.9,248,608.6,248.4L608.6,248.4z"/>
	</g>
</g>
<g id="XMLID_212_">
	<g id="XMLID_1119_">
		<path id="XMLID_70_" d="M633.4,287c0.8,0,0.8-1.3,0-1.3C632.6,285.7,632.6,287,633.4,287L633.4,287z"/>
	</g>
</g>
<g id="XMLID_223_">
	<g id="XMLID_1112_">
		<path id="XMLID_75_" d="M583.7,259.8c-1.5-0.8-3.1-1-4.7-0.8c-1.2,0.2-3.4,0.7-3.6,2.2c-0.4,2.6,4.2,4.6,6.2,3.7
			c1-0.4,2.5-1.3,2.3-2.6c-0.2-1.6-1.1-2.6-2.6-3.1c-1.4-0.5-3.2-0.6-4.5,0.4c-1.1,0.8-1.3,2-0.3,2.9c0.9,0.9,2.4,1.7,3.7,1.5
			c1.1-0.2,2.9-1,2.8-2.3c-0.2-2.5-5.8-3.5-5.4-0.5c0.3,2.2,4.8,2.5,3.9-0.1c-0.3-1-1.5-2.1-2.6-2c-1.2,0.2-1.6,1.6-0.9,2.6
			c0.5,0.8,2.2,1.6,3.1,1c1.1-0.9-0.1-2-1-2.3c-0.9-0.3-2.6,0.2-2.1,1.5c0.4,1,1.7,0.5,1.8-0.4c0-0.2-0.1-0.4-0.3-0.6
			c-1-0.7-2.2-0.7-2.9,0.3c-0.3,0.3,0,0.8,0.4,0.9c1.2,0.4,2.5,1,3.7,1c1,0,1.7-0.7,2.4-1.5c0.5-0.6-0.4-1.5-0.9-0.9
			c-0.7,0.9-1.7,1.2-2.8,0.8c-0.7-0.2-1.4-0.4-2.1-0.6c0.1,0.3,0.3,0.6,0.4,0.9c0.4,0,0.8,0.1,1.2,0.1c-0.1-0.2-0.2-0.4-0.3-0.6
			c0,0.1,0,0.2,0,0.2c0.1-0.2,0.2-0.4,0.3-0.6c0.4,0.5,0.8,0.6,1.2,0.4c-0.2-0.1-0.4-0.2-0.5-0.2c0.4-0.3,0.6-0.3,0.8,0
			c0.3,0.4,0,0.4-1.1,0c0.6-0.7,1.1-0.8,1.6-0.3c0.3,0.1,0.6,0.3,0.8,0.6c0.2,0.8-1.3,1.3-1.8,1.3c-1.2,0-3.4-1.5-1.5-2.5
			c1-0.5,2.9-0.1,3.6,0.6c1.1,1,0.6,2.2-0.7,2.8c-1.3,0.5-2.5-0.2-3.5-0.9c-0.5-0.2-0.7-0.6-0.5-1.2c-0.2-0.6,0-1,0.7-1
			c0.6-0.2,1.2-0.4,1.9-0.4c1.2-0.1,2.4,0.1,3.4,0.7C583.8,261.2,584.4,260.1,583.7,259.8L583.7,259.8z"/>
	</g>
</g>
<g id="XMLID_230_">
	<g id="XMLID_1105_">
		<path id="XMLID_76_" d="M583.9,261.4c0.2-4.2,0.8-8.4,0.5-12.6c-0.1-0.8-1.3-0.8-1.3,0c0.3,4.2-0.3,8.4-0.5,12.6
			C582.6,262.2,583.8,262.2,583.9,261.4L583.9,261.4z"/>
	</g>
</g>
<g id="XMLID_237_">
	<g id="XMLID_1098_">
		<path id="XMLID_77_" d="M505.8,267.5c-2.9-0.4-9.3-0.9-10.7,2.5c-1.4,3.2,1.9,6.4,4.9,6.7c1.9,0.2,3.8-0.4,5.3-1.4
			c1.1-0.7,3-2.2,3.1-3.6c0.1-1.4-1.6-2.5-2.7-3c-1.7-0.8-3.6-0.8-5.3-0.1c-1.2,0.5-3,1.7-3.2,3.1c-0.3,1.6,1.1,3.1,2.5,3.8
			c1.7,0.8,3.6,0.2,5.3-0.3c1.5-0.4,3-1.1,2.8-2.9c-0.3-3-4.7-5.1-6.8-2.5c-2.1,2.5,1.2,4.8,3.7,3.9c3.7-1.3-0.7-5.8-3.4-3.6
			c-2.8,2.3,1.4,6.2,3.7,2.9c0.4-0.6,0.1-1.4-0.5-1.7c-1.3-0.9-3.2-1.5-4.3,0.1c-0.7,1-0.5,2.4,0.6,3c1,0.5,2.4,0.1,2.6-1.1
			c0.3-1.5-1.5-2.3-2.6-2.6c-0.9-0.2-1.8,0.6-1.6,1.6c0.3,0.9,0.5,1.2,1.3,1.6c1.4,0.9,2.7-1.3,1.3-2.2c0,0-0.1-0.1-0.1-0.1
			c-0.5,0.5-1,1-1.6,1.6c0.4,0,0.7,0.1,1,0.4c0-0.4,0-0.9,0-1.3c0.7,0.3,1.4,0.7,2.1,1.2c-0.2-0.6-0.3-1.2-0.5-1.7
			c0.2-0.2,1.5-0.5,0.4-0.4c0.7-0.2,1.2,0.1,1.4,0.7c0.6,0.4,0.7,0.7,0.1,0.7c-0.7,0.7-4.1,1-4.5,0.2c-1.5-2.6,7-3,4.7-0.3
			c-1.6,1.9-6.1,2.9-7.2,0c-1.2-3,6-2.6,7.5-2.4C506.7,270.2,507.4,267.7,505.8,267.5L505.8,267.5z"/>
	</g>
</g>
<g id="XMLID_244_">
	<g id="XMLID_1091_">
		<path id="XMLID_78_" d="M506,251.3c-1,7-1.8,14-0.6,21.1c0.4,2.4,4.1,1.4,3.7-1c-1.1-6.3-0.3-12.7,0.6-19
			C510.1,249.9,506.4,248.8,506,251.3L506,251.3z"/>
	</g>
</g>
<g id="XMLID_246_">
	<g id="XMLID_1084_">
		<path id="XMLID_79_" d="M524.8,261.5c-2.9-0.4-9.3-0.9-10.7,2.5c-1.4,3.2,1.9,6.4,4.9,6.7c1.9,0.2,3.8-0.4,5.3-1.4
			c1.1-0.7,3-2.2,3.1-3.6c0.1-1.4-1.6-2.5-2.7-3c-1.7-0.8-3.6-0.8-5.3-0.1c-1.2,0.5-3,1.7-3.2,3.1c-0.3,1.6,1.1,3.1,2.5,3.8
			c1.7,0.8,3.6,0.2,5.3-0.3c1.5-0.4,3-1.1,2.8-2.9c-0.3-3-4.7-5.1-6.8-2.5c-2.1,2.5,1.2,4.8,3.7,3.9c3.7-1.3-0.7-5.8-3.4-3.6
			c-2.8,2.3,1.4,6.2,3.7,2.9c0.4-0.6,0.1-1.4-0.5-1.7c-1.3-0.9-3.2-1.5-4.3,0.1c-0.7,1-0.5,2.4,0.6,3c1,0.5,2.4,0.1,2.6-1.1
			c0.3-1.5-1.5-2.3-2.6-2.6c-0.9-0.2-1.8,0.6-1.6,1.6c0.3,0.9,0.5,1.2,1.3,1.6c1.4,0.9,2.7-1.3,1.3-2.2c0,0-0.1-0.1-0.1-0.1
			c-0.5,0.5-1,1-1.6,1.6c0.4,0,0.7,0.1,1,0.4c0-0.4,0-0.9,0-1.3c0.7,0.3,1.4,0.7,2.1,1.2c-0.2-0.6-0.3-1.2-0.5-1.7
			c0.2-0.2,1.5-0.5,0.4-0.4c0.7-0.2,1.2,0.1,1.4,0.7c0.6,0.4,0.7,0.7,0.1,0.7c-0.7,0.7-4.1,1-4.5,0.2c-1.5-2.6,7-3,4.7-0.3
			c-1.6,1.9-6.1,2.9-7.2,0c-1.2-3,6-2.6,7.5-2.4C525.7,264.2,526.4,261.7,524.8,261.5L524.8,261.5z"/>
	</g>
</g>
<g id="XMLID_253_">
	<g id="XMLID_1077_">
		<path id="XMLID_80_" d="M507.6,256.3c1.6,0,1.6-2.6,0-2.6C505.9,253.7,505.9,256.3,507.6,256.3L507.6,256.3z"/>
	</g>
</g>
<g id="XMLID_260_">
	<g id="XMLID_1070_">
		<path id="XMLID_81_" d="M525,244.3c-1,7-1.8,14-0.6,21.1c0.4,2.4,4.1,1.4,3.7-1c-1.1-6.3-0.3-12.7,0.6-19
			C529.1,242.9,525.4,241.8,525,244.3L525,244.3z"/>
	</g>
</g>
<g id="XMLID_267_">
	<g id="XMLID_1063_">
		<path id="XMLID_82_" d="M507.9,251.7c3.4-1.3,6.8-2.4,10.3-3.4c1.5-0.5,3.1-0.9,4.6-1.3c1.6-0.4,3.2-0.3,4.7-0.8
			c2.4-0.7,1.3-4.4-1-3.7c-1.3,0.4-2.8,0.3-4.1,0.6c-1.8,0.4-3.5,0.9-5.2,1.4c-3.5,1-6.9,2.2-10.3,3.4
			C504.6,248.9,505.6,252.6,507.9,251.7L507.9,251.7z"/>
	</g>
</g>
<g id="XMLID_274_">
	<g id="XMLID_1056_">
		<path id="XMLID_83_" d="M509.7,258.8c5.3-1.7,10.5-3.7,15.6-5.8c2.2-0.9,1.3-4.6-1-3.7c-5.1,2.1-10.4,4.1-15.6,5.8
			C506.3,255.8,507.3,259.5,509.7,258.8L509.7,258.8z"/>
	</g>
</g>
<g id="XMLID_281_">
	<g id="XMLID_1049_">
		<path id="XMLID_84_" d="M509.8,256c5.4-0.5,9.9-3.9,15.2-5.2c2.4-0.6,1.4-4.3-1-3.7c-4.8,1.2-9.2,4.6-14.1,5
			C507.4,252.4,507.4,256.2,509.8,256L509.8,256z"/>
	</g>
</g>
<g id="XMLID_288_">
	<g id="XMLID_1041_">
		<path id="XMLID_85_" d="M510.6,253.6c4.7-1.8,9.4-3.6,14.1-5.3c2.3-0.8,1.3-4.5-1-3.7c-4.7,1.7-9.5,3.5-14.1,5.3
			C507.3,250.8,508.3,254.5,510.6,253.6L510.6,253.6z"/>
	</g>
</g>
<line id="XMLID_300_" class="st0" x1="497.3" y1="241" x2="461.6" y2="210.4"/>
<path id="XMLID_321_" class="st0" d="M370.5,269.3c0-8.9,0-17.8-0.1-26.7c0-5.6,0-11.2,1.4-16.6c1.4-5.4,4.4-10.6,9.2-13.4
	c4.4-2.6,9.7-3,14.8-3.2c28.4-1.4,56.9-1,85.2,1c5.2,0.4,10.4,0.8,15.6,0.6c4.1-0.2,8.1-0.7,12.2-1.1c9.2-0.8,18.5-0.6,27.7-0.3"/>
<line id="XMLID_324_" class="st0" x1="461.6" y1="207.3" x2="497.3" y2="176.7"/>
<path id="XMLID_338_" class="st0" d="M357.5,269.8c-0.1-22.4-0.3-44.9-0.4-67.3c0-3.1,0-6.2-0.1-9.2c-0.1-13.5-0.2-27.1-0.3-40.6
	c0-5.7-0.1-11.4,0.5-17.1c0.6-5.7,1.8-11.4,0.6-17"/>
<g id="XMLID_345_">
	<g id="XMLID_1005_">
		<path id="XMLID_90_" d="M354.6,217.9c-3.4-2.9-6.1-6.4-9.3-9.5c-3-2.9-6.3-5.5-9.8-7.8c-0.7-0.5-1.3,0.6-0.6,1.1
			c3.7,2.5,7.2,5.2,10.3,8.4c2.9,2.9,5.4,6.1,8.5,8.7C354.3,219.3,355.2,218.4,354.6,217.9L354.6,217.9z"/>
	</g>
</g>
<path id="XMLID_352_" class="st0" d="M357.9,202.5c1.1-6.4,6.7-11.2,12.9-13.2c6.1-2,12.8-1.8,19.2-1.4c16.3,0.9,32.8,2.2,48.8-1.2
	c5.4-1.1,11.2-3.2,13.9-8.1c1-1.9,1.5-4.1,1.9-6.2c0.6-3.1,1.3-6.2,1.9-9.3c0.4-2.1,0.9-4.3,1-6.4c0.3-3.1,0-6.2-0.2-9.4
	c-0.6-9.1-0.9-18.2-1.2-27.3c-0.3-8.3-0.6-16.6-0.8-24.9"/>
<path id="XMLID_366_" class="st0" d="M453.5,165.9c-3.6-4.6-7.9-8.6-12.8-11.8"/>
<g id="XMLID_373_">
	<g id="XMLID_979_">
		<path id="XMLID_94_" d="M358.1,175.9c2.7-2,4.8-4.7,7.2-7c3.1-2.8,6.5-5.1,10.3-6.9c0.7-0.4,0.1-1.5-0.6-1.1
			c-3.2,1.5-6.2,3.4-8.9,5.7c-3.1,2.6-5.4,5.9-8.6,8.3C356.8,175.3,357.5,176.4,358.1,175.9L358.1,175.9z"/>
	</g>
</g>
<g id="XMLID_387_">
	<g id="XMLID_954_">
		<path id="XMLID_96_" d="M482.7,226.3c0.8,0,0.8-1.3,0-1.3C481.9,225,481.9,226.3,482.7,226.3L482.7,226.3z"/>
	</g>
</g>
<path id="XMLID_450_" class="st0" d="M345.8,270.8c-0.1-8.9-0.3-17.9-0.4-26.8c-0.1-7.5-0.6-15.8-6.1-20.9c-4.5-4.2-11.2-5-17.3-5.4
	c-12.3-1-24.6-1.7-36.9-2.2c-7.1-0.3-15.4-1.1-19.4-7c-1.9-2.7-2.5-6.1-2.9-9.4c-0.7-5.3-1.1-10.8-0.3-16.1"/>
<path id="XMLID_457_" class="st0" d="M261.2,183.8c-2.4,2.7-5.1,5-8,7"/>
<path id="XMLID_464_" class="st0" d="M262.7,183.6c1.3,1.4,2.6,2.9,4.3,3.7c1.9,1,4.3,1.4,5.2,3.3"/>
<path id="XMLID_476_" class="st0" d="M228.3,230.5c21.4,1.1,42.8,2.2,64.2,0.7c2.7-0.2,5.4-0.4,8.2-0.5c6.6-0.2,13.3,0.6,19.7,2.4
	c1.3,0.4,2.7,0.8,3.8,1.6c1.4,1.1,2.3,2.8,3,4.4c4.6,10.5,5.7,22.4,3.1,33.5"/>
<path id="XMLID_497_" class="st0" d="M184.1,201.9c-10.2-8.1-20-16.6-29.5-25.6"/>
<g id="XMLID_511_">
	<g id="XMLID_831_">
		<path id="XMLID_635_" class="st2" d="M132,152.1c-5.3,0-9.9,3.5-10.7,8.9c-0.8,5.7,3.4,10.8,8.1,13.5c4,2.2,10-2.3,11-6.2
			c1.7-6.5-3.6-13.7-6.3-19.2c-0.4-0.7-1.5-0.1-1.1,0.6c2,4,4.5,8.2,5.8,12.5c1.6,5.4-1.3,11.8-7.7,11.1c-4.3-0.5-8.6-6.2-8.7-10.5
			c-0.2-5.5,4.3-9.4,9.6-9.5C132.8,153.3,132.8,152.1,132,152.1L132,152.1z"/>
	</g>
</g>
<g id="XMLID_518_">
	<g id="XMLID_795_">
		<path id="XMLID_626_" class="st2" d="M140.6,164.5c-0.3,3.2,3.2,5.3,6.1,4.1c3.8-1.5,5-6.4,4.9-10.1c-0.3-8.4-9.2-19.3-18.4-16.9
			c-1.5,0.4-2.8,1.1-4.3,1.5c-1.5,0.4-3.1,0.4-4.6,0.7c-2.4,0.5-4.4,1.7-6.2,3.3c-3.4,3.1-7.3,7.8-7.9,12.5
			c-0.7,5.6,4.6,10.9,7.6,15c3,3.9,6.5,6.5,11.6,6.8c6.3,0.4,12.8-2.6,18.3-5.5c5.7-3,7.5-7.9,8.8-13.9c0.2-0.8-1.1-1.1-1.2-0.3
			c-1.1,5.4-2.6,10-7.7,12.9c-4.8,2.6-10.5,5.2-16,5.6c-6.4,0.4-10.3-2.9-13.8-7.8c-1.4-2-2.9-4-4.3-6.1c-2.2-3.4-2.6-6.7-0.7-10.3
			c2.1-4.1,6.1-9.2,10.7-10.7c2.6-0.8,5.2-0.8,7.8-1.7c3.4-1.2,6.2-1.2,9.4,0.5c4.1,2.2,7.5,6.1,8.9,10.6c0.7,2.4,1,5.1,0.3,7.6
			c-0.3,1.1-0.7,2.2-1.4,3.1c-1.6,2.3-7.1,3.6-6.7-1C142,163.7,140.7,163.7,140.6,164.5L140.6,164.5z"/>
	</g>
</g>
<g id="XMLID_525_">
	<g id="XMLID_816_">
		<path id="XMLID_124_" d="M115.5,231.7c5,1.9,10.9,0,16-0.1c2.8,0,5.5,0.2,8.2,0.3c3.1,0.2,6.4-1.2,9.4-0.5
			c0.8,0.2,1.1-1.1,0.3-1.2c-2.7-0.6-5,0.5-7.6,0.6c-2.6,0.1-5.3-0.4-8-0.4c-2.8,0-5.6,0.1-8.4,0.4c-3.3,0.3-6.5,1-9.7-0.3
			C115.1,230.2,114.8,231.4,115.5,231.7L115.5,231.7z"/>
	</g>
</g>
<g id="XMLID_532_">
	<g id="XMLID_808_">
		<path id="XMLID_125_" d="M59.3,236.9c4.6,0.1,9.1,1.3,13.6,0.2c0.8-0.2,0.5-1.4-0.3-1.2c-4.4,1.1-8.8-0.1-13.3-0.2
			C58.5,235.6,58.5,236.9,59.3,236.9L59.3,236.9z"/>
	</g>
</g>
<g id="XMLID_539_">
	<g id="XMLID_802_">
		<path id="XMLID_126_" d="M112.1,200.4c-0.1,3.7-0.2,7.4-0.2,11.1c0,0.8,1.3,0.8,1.3,0c0.1-3.7,0.2-7.4,0.2-11.1
			C113.4,199.6,112.1,199.6,112.1,200.4L112.1,200.4z"/>
	</g>
</g>
<g id="XMLID_546_">
	<g id="XMLID_796_">
		<path id="XMLID_128_" d="M107.4,206.8c3.9,0.5,7.8,0.4,11.7-0.1c0.8-0.1,0.5-1.3-0.3-1.2c-3.8,0.6-7.6,0.6-11.4,0.1
			C106.6,205.5,106.6,206.7,107.4,206.8L107.4,206.8z"/>
	</g>
</g>
<path id="XMLID_553_" class="st0" d="M237.6,132.8c-6.8-4.8-12.7-10.8-17.5-17.6"/>
<path id="XMLID_560_" class="st0" d="M263.8,120.3c0.1-12,0.1-24,0-35.9"/>
<path id="XMLID_567_" class="st0" d="M287.3,133.3c6-4.4,11.6-9.3,17-14.4"/>
<g id="XMLID_574_">
	<g id="XMLID_1209_">
		<path id="XMLID_1147_" class="st2" d="M216.5,69.5c-0.1,2.9-0.3,5.8-0.5,8.7c-0.1,0.8,1.2,0.8,1.3,0c0.2-2.9,0.4-5.8,0.5-8.7
			C217.8,68.7,216.5,68.7,216.5,69.5L216.5,69.5z"/>
	</g>
</g>
<g id="XMLID_581_">
	<g id="XMLID_1165_">
		<path id="XMLID_1110_" class="st2" d="M213.8,74.3c2.5,0.5,5,0.8,7.5,1c0.8,0.1,0.8-1.2,0-1.3c-2.4-0.2-4.8-0.6-7.1-1
			C213.3,72.9,213,74.1,213.8,74.3L213.8,74.3z"/>
	</g>
</g>
<g id="XMLID_616_">
	<g id="XMLID_688_">
		<path id="XMLID_63_" class="st1" d="M567.2,171.8c-1.4-1.7-2.2-3.7-0.7-5.6c1.3-1.5,3.3-1.9,5.2-2c0.8,0,0.8-1.3,0-1.3
			c-2.6,0.2-5.3,0.8-6.7,3.2c-1.4,2.4-0.3,4.6,1.3,6.6C566.8,173.4,567.7,172.5,567.2,171.8L567.2,171.8z"/>
	</g>
</g>
<g id="XMLID_623_">
	<g id="XMLID_677_">
		<path id="XMLID_86_" class="st1" d="M572.6,162.7c0.5-2,1.9-3.9,4.1-4.2c2.1-0.2,4,1.2,4.4,3.2c0.2,0.8,1.4,0.5,1.2-0.3
			c-0.5-2.5-2.9-4.4-5.5-4.2c-2.8,0.2-4.9,2.5-5.5,5.2C571.1,163.2,572.4,163.5,572.6,162.7L572.6,162.7z"/>
	</g>
</g>
<g id="XMLID_630_">
	<g id="XMLID_669_">
		<path id="XMLID_87_" class="st1" d="M583.4,160.7c1.9-2.3,6.6,1.3,6.9,3.4c0.1,0.8,1.4,0.5,1.2-0.3c-0.5-3.1-6.5-7.2-9.1-4
			C582,160.5,582.9,161.4,583.4,160.7L583.4,160.7z"/>
	</g>
</g>
<g id="XMLID_637_">
	<g id="XMLID_661_">
		<path id="XMLID_88_" class="st1" d="M592.2,164c3.2,0.9,10.8,6.7,3,8.3c-2.6,0.5-6-0.1-8.7-0.1c-6.6-0.1-13.2-0.3-19.8-1.3
			c-0.8-0.1-1.1,1.1-0.3,1.2c5.2,0.8,10.5,1.2,15.8,1.3c2.8,0.1,5.6,0.1,8.4,0.1c2.1,0,4.4,0.4,6.5,0c2.5-0.5,3.5-2.6,2.7-4.9
			c-1-3.1-4.2-5-7.2-5.8C591.8,162.6,591.4,163.8,592.2,164L592.2,164z"/>
	</g>
</g>
<g id="XMLID_644_">
	<g id="XMLID_653_">
		<path id="XMLID_89_" class="st1" d="M603.2,150.7c0.6-5.1,7.2-7.5,11.6-7.7c0.8,0,0.8-1.3,0-1.3c-5.2,0.3-12.1,3.1-12.9,9
			C601.8,151.5,603.1,151.5,603.2,150.7L603.2,150.7z"/>
	</g>
</g>
<g id="XMLID_651_">
	<g id="XMLID_405_">
		<path id="XMLID_91_" class="st1" d="M613.6,141.5c1.4-3,3.9-5.4,7.1-6.2c4.1-1,7,0.9,9,4.3c0.4,0.7,1.5,0.1,1.1-0.6
			c-2.1-3.6-5-5.7-9.4-5.1c-4,0.6-7.3,3.4-9,6.9C612.1,141.6,613.2,142.2,613.6,141.5L613.6,141.5z"/>
	</g>
</g>
<g id="XMLID_658_">
	<g id="XMLID_396_">
		<path id="XMLID_92_" class="st1" d="M631.4,139.2c3.1-1.3,6.3-2.3,9.5-0.6c2.8,1.5,4.4,4.2,4.7,7.3c0.1,0.8,1.4,0.8,1.3,0
			c-0.3-3.6-2.1-6.7-5.4-8.4c-3.6-1.9-7.2-0.9-10.8,0.6C630,138.4,630.7,139.5,631.4,139.2L631.4,139.2z"/>
	</g>
</g>
<g id="XMLID_665_">
	<g id="XMLID_363_">
		<path id="XMLID_93_" class="st1" d="M647.3,145.5c5.7-0.9,16.1,5.6,11.7,12.4c-3.7,5.6-11.7,2.4-16.9,1.9
			c-2.6-0.2-4.8,0.5-7.3,0.9c-2.8,0.5-5.8,0.3-8.6,0.3c-6-0.1-12-0.5-17.7-2.8c-0.8-0.3-1.1,0.9-0.3,1.2c7.4,3,15.7,3.1,23.6,2.9
			c4.3-0.2,8-1.6,12.4-0.9c3.4,0.6,6.8,1.5,10.2,0.8c5.1-1,8.3-5.6,6.1-10.6c-2.2-5.1-8-8.1-13.4-7.3
			C646.2,144.4,646.5,145.7,647.3,145.5L647.3,145.5z"/>
	</g>
</g>
<g id="XMLID_672_">
	<g id="XMLID_156_">
		<path id="XMLID_95_" class="st1" d="M603.2,153c-0.3,3.1,1.9,6,4.9,6.7c0.8,0.2,1.1-1,0.3-1.2c-2.5-0.6-4.2-2.9-3.9-5.4
			C604.5,152.1,603.2,152.1,603.2,153L603.2,153z"/>
	</g>
</g>
<g id="XMLID_679_">
	<g id="XMLID_1243_">
		<path id="XMLID_617_" class="st2" d="M503.2,157.4c0,4.5-0.3,9.6,2.4,13.5c1.8,2.6,5,4.2,8.2,3.3c3.6-1,4.2-4.6,5.4-7.6
			c1.2-2.7,5-5.3,7.5-2.9c1.7,1.6,2,4.7,3.2,6.7c2.4,3.9,5,3.9,9.2,2.4c3.7-1.3,4.7-6.3,5.1-9.8c0.4-3.2,0.9-8-1.6-10.6
			c-2.9-3-8.9-1.9-12.6-2c-6.7-0.1-13.4-0.4-20.1,0.2C506.5,151,502.5,153.5,503.2,157.4c0.2,0.7,1.4,0.4,1.3-0.4
			c-1.2-6.8,12.7-5.4,16.5-5.4c5,0,10,0.1,15,0.2c4.1,0.1,6.9,1.1,7.2,5.7c0.2,2.4,0,5-0.5,7.4c-0.7,3.5-1.9,6.3-5.7,7.2
			c-4.2,1-5.8-1.3-7.2-5c-1-2.7-1-5.5-4.3-5.6c-2.7-0.1-5.2,0.7-6.7,3.1c-0.8,1.3-1.1,2.8-1.7,4.1c-1.3,3.4-4.3,5.6-8,3.7
			c-5.2-2.8-4.6-10.1-4.7-15C504.4,156.6,503.1,156.6,503.2,157.4L503.2,157.4z"/>
	</g>
</g>
<g id="XMLID_686_">
	<g id="XMLID_649_">
		<path id="XMLID_607_" class="st2" d="M514.7,156.9c-1,0.3-1.7,1.7-1.4,2.7c0.3,1.1,1.5,1.8,2.6,1.4c1-0.4,2-1.3,1.8-2.5
			c-0.2-1.2-1.3-1.9-2.5-1.9c-0.8,0-0.8,1.2,0,1.3c0.5,0,1.1,0.2,1.2,0.7c0.1,0.5-0.3,0.8-0.6,1c-0.4,0.3-1,0.3-1.2-0.2
			c-0.2-0.4,0.1-1.2,0.5-1.3C515.8,157.9,515.4,156.7,514.7,156.9L514.7,156.9z"/>
	</g>
</g>
<g id="XMLID_693_">
	<g id="XMLID_640_">
		<path id="XMLID_592_" class="st2" d="M511.5,160.2c-1.2,0.1-2.2,1.7-1.7,2.8c0.5,1.2,2.2,1.3,3.2,0.9c1.2-0.5,1.7-1.8,1-2.9
			c-0.6-1-2.2-1.7-3-0.6c-0.5,0.7,0.6,1.3,1.1,0.6c-0.1,0.1-0.1,0.1,0.1,0.1c0.1,0,0.2,0.1,0.3,0.2c0.2,0.1,0.3,0.2,0.4,0.4
			c0.2,0.5,0,0.9-0.5,1.1c-0.4,0.1-1,0.1-1.3-0.1c-0.3-0.2-0.1-1.2,0.4-1.2C512.3,161.4,512.3,160.1,511.5,160.2L511.5,160.2z"/>
	</g>
</g>
<g id="XMLID_700_">
	<g id="XMLID_628_">
		<path id="XMLID_583_" class="st2" d="M507.7,156.9c-1.3,0.4-1.9,1.9-1,3c0.9,1.2,2.3,1.4,3.5,0.6c1.1-0.7,1.2-2.1,0.3-3
			c-0.7-0.7-2.5-1.4-3.2-0.3c-0.4,0.7,0.7,1.3,1.1,0.6c-0.1,0.1-0.1,0.1,0.1,0.1c0.1,0,0.3,0,0.4,0.1c0.2,0.1,0.4,0.1,0.6,0.2
			c0.5,0.4,0.5,0.9,0,1.2c-0.5,0.3-1,0.4-1.5,0c-0.5-0.4-0.6-1.1,0.1-1.3C508.8,157.9,508.5,156.7,507.7,156.9L507.7,156.9z"/>
	</g>
</g>
<g id="XMLID_707_">
	<g id="XMLID_619_">
		<path id="XMLID_571_" class="st2" d="M511.7,153.9c-2.7-0.1-2.2,4.5,0.5,4c1-0.2,2.2-1,2.2-2.1c0-1.3-1.1-2-2.3-2.1
			c-0.8-0.1-0.8,1.2,0,1.3c0.4,0,1,0.3,1,0.8c0,0.5-0.5,0.8-0.9,0.9c-0.5,0.2-0.8,0.1-1-0.4c-0.2-0.5-0.1-1,0.5-1
			C512.5,155.2,512.5,153.9,511.7,153.9L511.7,153.9z"/>
	</g>
</g>
<g id="XMLID_714_">
	<g id="XMLID_611_">
		<path id="XMLID_562_" class="st2" d="M535.6,156.4c-0.1,2.4-0.3,4.8-0.9,7.2c-0.2,0.8,1,1.1,1.2,0.3c0.7-2.5,0.8-5,0.9-7.5
			C537,155.5,535.7,155.6,535.6,156.4L535.6,156.4z"/>
	</g>
</g>
<g id="XMLID_721_">
	<g id="XMLID_603_">
		<path id="XMLID_159_" class="st2" d="M532.9,160c2.2,0.2,4.5,0.3,6.7,0.1c0.8-0.1,0.8-1.3,0-1.3c-2.2,0.2-4.5,0.2-6.7-0.1
			C532.1,158.6,532.1,159.9,532.9,160L532.9,160z"/>
	</g>
</g>
<path id="XMLID_367_" class="st0" d="M624,220.3c0,2.9-2.3,5.2-5.2,5.2h-31.6c-2.9,0-5.2-2.3-5.2-5.2v-20.6c0-2.9,2.3-5.2,5.2-5.2
	h31.6c2.9,0,5.2,2.3,5.2,5.2V220.3z"/>
<rect id="XMLID_368_" x="585" y="201.5" class="st0" width="36" height="17"/>
<rect id="XMLID_369_" x="585" y="219.5" class="st0" width="4" height="4"/>
<rect id="XMLID_370_" x="593" y="219.5" class="st0" width="4" height="4"/>
<rect id="XMLID_371_" x="616" y="219.5" class="st0" width="4" height="4"/>
<rect id="XMLID_723_" x="609" y="219.5" class="st0" width="4" height="4"/>
<rect id="XMLID_724_" x="601" y="219.5" class="st0" width="4" height="4"/>
<rect id="XMLID_725_" x="585" y="195.5" class="st0" width="4" height="4"/>
<rect id="XMLID_726_" x="616" y="195.5" class="st0" width="4" height="4"/>
<rect id="XMLID_731_" x="609" y="195.5" class="st0" width="4" height="4"/>
<rect id="XMLID_732_" x="600" y="195.5" class="st0" width="4" height="4"/>
<rect id="XMLID_733_" x="593" y="195.5" class="st0" width="4" height="4"/>
<line id="XMLID_734_" class="st4" x1="508.4" y1="73" x2="540" y2="45.4"/>
<line id="XMLID_735_" class="st4" x1="540" y1="45.4" x2="571.4" y2="71.1"/>
<line id="XMLID_739_" class="st4" x1="518" y1="91.1" x2="518.1" y2="73"/>
<line id="XMLID_740_" class="st4" x1="518.1" y1="73" x2="540" y2="52.9"/>
<line id="XMLID_741_" class="st4" x1="563.5" y1="73" x2="541.1" y2="52.9"/>
<line id="XMLID_742_" class="st4" x1="563" y1="73" x2="563" y2="91"/>
<g id="XMLID_743_">
	<g id="XMLID_568_">
		<path id="XMLID_600_" class="st3" d="M518.9,92.1c3,1.2,6.2,0.9,9.4,0.9c1.4,0,3.5,0.5,4.5-0.6c0.7-0.9,0.4-3.1,0.4-4.2
			c0-1.9-0.2-3.7-0.4-5.6c-0.1-1.1-0.4-2.4-0.3-3.5c0.1-1.4,0.8-3.8,1.9-4.7c1.5-1.2,5.6-0.7,7.4-0.6c1.8,0.1,5.3-0.1,5.7,1.9
			c0.4,1.6-0.4,4.1-0.3,5.8c0.1,1.6,0.3,3.1,0.6,4.7c0.4,1.8,0.2,3.7,0.4,5.5c0.3,1.7,1.2,2.5,2.8,2.5c1.9,0,3.9-0.4,5.9-0.4
			c1.8,0,3.3-0.1,5.1-0.6c1-0.3,0.6-1.9-0.4-1.5c-2.5,0.8-4.9,0.4-7.4,0.5c-0.6,0-1.8,0.4-2.4,0.3c-2.9-0.3-2-2.5-2.2-4.1
			c-0.2-2.3-1-4.4-1.1-6.8c-0.1-2.5,0-5,0.3-7.5c0-0.3-0.3-0.5-0.6-0.6c-4.3-0.6-8.7-1.1-13-0.2c-2.5,0.5-3.4,1.6-3.7,4.2
			c-0.5,4.3,1.4,8.7,0.5,13c-0.4,2-1.1,1.5-2.7,1.5c-1.1,0-2.1,0-3.2,0c-2.4,0-4.7,0.1-7-0.8C518.6,90.9,518.4,91.8,518.9,92.1
			L518.9,92.1z"/>
	</g>
</g>
<g id="XMLID_744_">
	<g id="XMLID_593_">
		<path id="XMLID_1195_" class="st2" d="M440.2,90.1c6.1-6.6,12.1-14.1,17-21.7c2.2-3.4,4.9-6.1,7.4-9.3c2.7-3.5,5.1-7.2,8.5-10.2
			c0.3-0.3-0.1-0.7-0.5-0.5c-2.9,2.5-5,5.6-7.3,8.7c-2.4,3.3-5.5,5.9-7.6,9.3c-5.2,8.1-11.5,16-18.1,23
			C439.3,89.9,439.9,90.5,440.2,90.1L440.2,90.1z"/>
	</g>
</g>
<g id="XMLID_745_">
	<g id="XMLID_584_">
		<path id="XMLID_591_" class="st2" d="M439.6,89.7c-0.5,1.1-0.4,2.2,0.7,2.9c1.7,1.1,3.6-0.4,4.7-1.6c5.2-5.5,9.3-12.1,13.7-18.2
			c1.8-2.4,3-3.4,5.9-4.2c1.1-0.3,2-0.5,2.9-1.1c2.2-1.7,3.6-5,4.8-7.3c1.1-2.2,5.4-12.2,0.3-12.1c-0.3,0-0.5,0.2-0.6,0.4
			c-0.1,0.2-0.1,0.4-0.2,0.6c-0.1,0.4,0.3,0.6,0.6,0.4c1.7-1.4,1.1,4.1,1.1,4.3c-0.2,1-0.5,2-0.9,3c-0.8,2.3-2.1,4.5-3.3,6.6
			c-0.5,0.9-1.2,2.1-1.9,2.9c-1.5,1.4-2.5,1.2-4.2,1.6c-1.4,0.4-2.5,1-3.6,2c-2.9,2.8-4.9,6.7-7.3,10c-1.5,2-3,4-4.5,5.9
			c-0.7,0.9-1.5,1.8-2.2,2.7c-0.4,0.4-0.8,0.9-1.1,1.3c-0.9,1.3-2.2,1.4-4,0.2C440.7,89.5,439.8,89.2,439.6,89.7L439.6,89.7z"/>
	</g>
</g>
<g id="XMLID_746_">
	<g id="XMLID_572_">
		<path id="XMLID_579_" class="st2" d="M472.2,90.9c-3.6-1-6.2-4.2-8.6-6.9c-2.6-2.8-4.8-6-7-9c-0.2-0.3-0.7,0-0.5,0.4
			c2.7,3.5,5.7,6.7,8.5,10.1c2.1,2.5,4.2,4.9,7.5,5.8C472.3,91.4,472.4,91,472.2,90.9L472.2,90.9z"/>
	</g>
</g>
<g id="XMLID_747_">
	<g id="XMLID_563_">
		<path id="XMLID_570_" class="st2" d="M453.1,72c-1.6-2.6-3.5-5-5.5-7.4c-0.4-0.4-0.8-1-1.4-0.9c-0.2,0-0.4,0.2-0.5,0.3
			c-0.1,0.1-0.2,0.3-0.2,0.4c-0.8,0.2-1.4,0-1.9-0.6c-0.5-0.5-1.3,0.3-0.8,0.8c0.6,0.6,1.3,1.2,2.1,1.1c0.4,0,0.6-0.2,1-0.4
			c0.2-0.1,0.3-0.5,0.4-0.6c0.9-0.2,2.4,2.4,3,3.1c1.2,1.4,2.3,2.8,3.3,4.4C452.8,72.6,453.3,72.3,453.1,72L453.1,72z"/>
	</g>
</g>
<g id="XMLID_760_">
	<g id="XMLID_555_">
		<path id="XMLID_561_" class="st2" d="M442.6,63.7c-2.7-4.1-5.4-8.3-8.6-12.1c-0.2-0.3-0.6,0-0.5,0.3c0.3,2.1,2.3,3.5,3.6,5.1
			c1.7,2.3,3.3,4.7,5,7C442.3,64.4,442.9,64.1,442.6,63.7L442.6,63.7z"/>
	</g>
</g>
<g id="XMLID_766_">
	<g id="XMLID_547_">
		<path id="XMLID_551_" class="st2" d="M436,52c1.6,1.8,3.1,3.6,4.7,5.3c0.3,0.3,0.7-0.1,0.4-0.4c-1.5-1.9-3.1-3.6-4.6-5.4
			C436.2,51.2,435.7,51.7,436,52L436,52z"/>
	</g>
</g>
<g id="XMLID_767_">
	<g id="XMLID_537_">
		<path id="XMLID_543_" class="st2" d="M437.3,50.6c1.1,1.1,2.2,2.3,3.2,3.5c0.9,1.1,1.6,2.3,2.8,3c0.5,0.3,0.9-0.5,0.4-0.7
			c-1.2-0.7-2-2.2-2.9-3.3c-0.9-1.1-1.9-2.1-2.9-3.1C437.5,49.6,436.9,50.2,437.3,50.6L437.3,50.6z"/>
	</g>
</g>
<g id="XMLID_773_">
	<g id="XMLID_529_">
		<path id="XMLID_535_" class="st2" d="M439.3,49.4c0.8,1.2,1.9,2.2,3,3.2c0.5,0.5,1.1,1,1.6,1.5c0.5,0.6,0.9,1.3,1.6,1.8
			c0.2,0.2,0.5,0,0.4-0.3c-0.2-1.2-1.6-2.3-2.4-3.1c-1.2-1.1-2.5-2.2-3.5-3.6C439.7,48.6,439,49,439.3,49.4L439.3,49.4z"/>
	</g>
</g>
<g id="XMLID_774_">
	<g id="XMLID_521_">
		<path id="XMLID_527_" class="st2" d="M439.3,58.9c2.2-0.4,4.9-1.4,6.6-3c0.2-0.2,0-0.6-0.3-0.5c-1,0.3-1.9,1-2.9,1.5
			c-1.2,0.6-2.3,1.1-3.6,1.4C438.7,58.4,438.9,59,439.3,58.9L439.3,58.9z"/>
	</g>
</g>
<g id="XMLID_775_">
	<g id="XMLID_491_">
		<path id="XMLID_519_" class="st2" d="M446,56.6c1.8,1.3,3.7,2.8,4.2,5.1c0.2,1.2-0.2,2.1,0.3,3.2c0.7,1.7,2.8,3.3,4.4,4.2
			c0.5,0.3,1-0.5,0.5-0.8c-1.3-0.7-2.6-1.8-3.5-3c-1-1.3-0.4-3-1.1-4.3c-0.9-2-2.8-3.5-4.6-4.7C446,56.1,445.7,56.5,446,56.6
			L446,56.6z"/>
	</g>
</g>
<g id="XMLID_780_">
	<g id="XMLID_407_">
		<path id="XMLID_458_" class="st2" d="M458.7,73.3c3.2,2.4,6,5.2,8.6,8.2c1.3,1.5,2.6,3.2,3.8,4.8c0.5,0.7,1.4,1.6,1.6,2.4
			c0.2,0.3,0.4,0.6,0.6,1c-0.6,1.2-1.5,1.5-2.5,0.9c-0.5-0.2-0.7,0.5-0.3,0.7c1.1,0.8,3,1.4,3.9-0.2c0.9-1.6-1.3-3.7-2.1-4.9
			c-3.7-5.3-8.2-9.6-13.4-13.4C458.7,72.6,458.4,73.1,458.7,73.3L458.7,73.3z"/>
	</g>
</g>
<g id="XMLID_809_">
	<g id="XMLID_516_">
		<path id="XMLID_1486_" class="st3" d="M436.2,24.1c0.8-5.9,7.1-7.1,12-7.7c3.6-0.4,7.2-1,10.8-1c4,0,8.5,0.3,12.3,1.8
			c3.7,1.4,5.9,4.8,7.5,8.2c0.4,0.8,1.5,0.1,1.2-0.7c-1.7-3.7-4.1-7.2-8-8.8c-4.6-1.8-10.4-1.9-15.2-1.4c-4.8,0.5-10.3,0.8-14.9,2.4
			c-3.3,1.2-5.9,3.6-6.3,7.2C435.5,24.5,436.1,24.5,436.2,24.1L436.2,24.1z"/>
	</g>
</g>
<line id="XMLID_815_" class="st4" x1="435.3" y1="24.5" x2="479.3" y2="25"/>
<g id="XMLID_822_">
	<g id="XMLID_507_">
		<path id="XMLID_514_" class="st3" d="M453.5,20.3c0.8,0,0.8-1.3,0-1.3C452.7,19,452.7,20.3,453.5,20.3L453.5,20.3z"/>
	</g>
</g>
<g id="XMLID_823_">
	<g id="XMLID_495_">
		<path id="XMLID_502_" class="st3" d="M447,18.8c0.8,0,0.8-1.3,0-1.3C446.2,17.5,446.2,18.8,447,18.8L447,18.8z"/>
	</g>
</g>
<g id="XMLID_824_">
	<g id="XMLID_486_">
		<path id="XMLID_493_" class="st3" d="M442.8,20.1c0.8,0,0.8-1.3,0-1.3C441.9,18.9,441.9,20.1,442.8,20.1L442.8,20.1z"/>
	</g>
</g>
<g id="XMLID_833_">
	<g id="XMLID_478_">
		<path id="XMLID_484_" class="st3" d="M456.6,17.6c0.8,0,0.8-1.3,0-1.3C455.8,16.4,455.8,17.6,456.6,17.6L456.6,17.6z"/>
	</g>
</g>
<g id="XMLID_835_">
	<g id="XMLID_470_">
		<path id="XMLID_474_" class="st3" d="M464.9,19.6c0.8,0,0.8-1.3,0-1.3C464.1,18.4,464.1,19.6,464.9,19.6L464.9,19.6z"/>
	</g>
</g>
<g id="XMLID_840_">
	<g id="XMLID_461_">
		<path id="XMLID_467_" class="st3" d="M472.1,21c0.8,0,0.8-1.3,0-1.3C471.3,19.7,471.3,21,472.1,21L472.1,21z"/>
	</g>
</g>
<g id="XMLID_841_">
	<g id="XMLID_130_">
		<path id="XMLID_97_" class="st3" d="M435.2,35.8c5.3,6.8,16.4,7.7,24.4,7.3c4.8-0.2,9.6-1.2,14.2-2.4c2.9-0.8,5.8-2,6-5.3
			c0-0.6-0.9-0.6-1,0c-0.3,4.5-7.7,5.1-11.1,5.7c-3.9,0.7-7.8,1.2-11.7,1c-6.7-0.2-15.9-1.2-20.4-6.8
			C435.4,35.1,435,35.5,435.2,35.8L435.2,35.8z"/>
	</g>
</g>
<line id="XMLID_847_" class="st4" x1="435.4" y1="35.6" x2="479.3" y2="35.4"/>
<g id="XMLID_849_">
	<g id="XMLID_445_">
		<path id="XMLID_451_" class="st3" d="M455.2,26.4c-6.2-0.1-12.4,0.1-18.7,0c-2.1,0-6.1-0.3-6.2,2.8c0,1.3,0.8,1.5,1.5,2.3
			c1,1.1,0.8,1.8,2.1,2.2c2.2,0.8,6,0.2,8.3,0.3c3.4,0.1,6.8,0.1,10.2,0c0.5,0,0.5-0.8,0-0.8c-3.8-0.1-7.7-0.1-11.5-0.2
			c-2.3-0.1-7.2,0.5-8.3-2.2c-0.3-0.8,1.3-3.8,2.2-4.2c0.7-0.2,2.2,0,2.9,0c1.9,0,3.7,0,5.6,0.1c3.9,0.2,7.9,0.1,11.8,0.1
			C455.6,26.9,455.6,26.4,455.2,26.4L455.2,26.4z"/>
	</g>
</g>
<g id="XMLID_900_">
	<g id="XMLID_437_">
		<path id="XMLID_442_" class="st3" d="M456.1,27c6.8,0.1,13.7,0.2,20.5,0.3c1.5,0,3.3-0.2,4.7,0.1c2.3,0.2,3.4,1.4,3.5,3.4
			c-0.2,1.3-0.5,1.3-0.9,0.2c-0.7-0.5-1.2-1.7-1.8-2.3c-0.7-0.7-1.4-1.2-2.3-1.7c-0.5-0.3-0.9,0.4-0.4,0.7c2.2,1.3,3.4,3.3,4.8,5.3
			c0.1,0.2,0.5,0.3,0.6,0c1.8-3.4-0.6-6.1-4-6.3c-8.2-0.5-16.5-0.2-24.8-0.4C455.7,26.4,455.7,27,456.1,27L456.1,27z"/>
	</g>
</g>
<g id="XMLID_901_">
	<g id="XMLID_428_">
		<path id="XMLID_433_" class="st3" d="M465.9,33.6c4.4,0,8.8,0.1,13.2-0.2c0.1,0,0.2,0,0.2-0.1c0.2-1.1,0.4-2.1,0.4-3.2
			c0-0.2-0.2-0.3-0.4-0.3c-1.8,0.4-3.9-0.3-5.7-0.4c-1.8-0.1-3.6,0.1-5.3,0.3c-0.3,0-0.3,0.5,0,0.5c2.6-0.2,5.1-0.4,7.7,0
			c1.3,0.2,3.2,0,3.1,1.4c0,2.3-4.6,1.4-6.1,1.4c-2.4,0-4.7,0-7.1,0.1C465.5,33,465.5,33.6,465.9,33.6L465.9,33.6z"/>
	</g>
</g>
<g id="XMLID_902_">
	<g id="XMLID_414_">
		<path id="XMLID_425_" class="st3" d="M465.9,30.5c-2.3,0.2-4.6,1-6.4,2.4c-1.3,0.9-3.3,2.8-3,4.5c0.1,0.6,1,0.3,0.9-0.3
			c-0.2-1.5,2.3-3.6,3.3-4.3c1.5-1.1,3.3-1.7,5.2-1.9C466.2,30.9,466.2,30.5,465.9,30.5L465.9,30.5z"/>
	</g>
</g>
<g id="XMLID_907_">
	<g id="XMLID_219_">
		<path id="XMLID_400_" class="st3" d="M448.4,30.9c1.9,0.8,3.8,1.7,5.4,3.1c1.2,1.1,1.4,2.9,2.7,3.9c0.3,0.2,0.8-0.2,0.6-0.6
			c-1-1.5-1.5-3.2-3-4.4c-1.6-1.2-3.4-2-5.2-2.8C448.4,30,447.9,30.6,448.4,30.9L448.4,30.9z"/>
	</g>
</g>
<g id="XMLID_909_">
	<g id="XMLID_213_">
		<path id="XMLID_217_" class="st3" d="M439.7,33.3c2.6-1.6,6.1-1.7,9-2.2c0.2,0,0.2-0.4,0-0.4c-1.6-0.3-3.3,0.1-4.8,0.4
			c-1.6,0.4-3.2,0.7-4.6,1.5C438.8,32.9,439.2,33.6,439.7,33.3L439.7,33.3z"/>
	</g>
</g>
<path id="XMLID_914_" class="st0" d="M413,91.2c0,1.8-1.5,3.3-3.3,3.3h-39.5c-1.8,0-3.3-1.5-3.3-3.3V72.8c0-1.8,1.5-3.3,3.3-3.3
	h39.5c1.8,0,3.3,1.5,3.3,3.3V91.2z"/>
<line id="XMLID_915_" class="st0" x1="363.8" y1="99.5" x2="364.3" y2="68.7"/>
<line id="XMLID_917_" class="st0" x1="415.1" y1="98.5" x2="415" y2="69.2"/>
<g id="XMLID_923_">
	<g id="XMLID_416_">
		<path id="XMLID_222_" d="M364.9,68.6c0.2-0.9,1.2-0.8,1.9-0.7c0.5,0.1,0.6-0.7,0.1-0.7c-1-0.1-2.4,0-2.7,1.3
			C364.2,68.9,364.8,69,364.9,68.6L364.9,68.6z"/>
	</g>
</g>
<g id="XMLID_929_">
	<g id="XMLID_409_">
		<path id="XMLID_224_" d="M415.1,69.9c0.4-0.7,0.2-1.5-0.4-2.1c-0.3-0.3-0.7-0.5-1.1-0.7c-0.4-0.2-0.8-0.4-1.2-0.2
			c-0.2,0.1-0.2,0.3-0.1,0.5c0.3,0.5,1,0.4,1.5,0.7c0.5,0.3,0.9,0.9,0.7,1.5C414.3,69.9,414.9,70.3,415.1,69.9L415.1,69.9z"/>
	</g>
</g>
<line id="XMLID_930_" class="st0" x1="366.9" y1="67.5" x2="412.7" y2="67.2"/>
<line id="XMLID_936_" class="st0" x1="363.5" y1="99.5" x2="415.5" y2="99.5"/>
<line id="XMLID_937_" class="st0" x1="353" y1="109.5" x2="363.5" y2="99.5"/>
<line id="XMLID_950_" class="st0" x1="426.1" y1="109.5" x2="415.5" y2="99.5"/>
<line id="XMLID_952_" class="st0" x1="352.5" y1="109.5" x2="426.5" y2="109.5"/>
<line id="XMLID_957_" class="st0" x1="352.5" y1="110.8" x2="426.5" y2="110.7"/>
<line id="XMLID_962_" class="st0" x1="426.5" y1="110.7" x2="424" y2="113.2"/>
<line id="XMLID_963_" class="st0" x1="424.5" y1="113.5" x2="354.5" y2="113.5"/>
<line id="XMLID_964_" class="st0" x1="352.5" y1="110.8" x2="354.5" y2="113.5"/>
<ellipse id="XMLID_969_" class="st6" cx="320.1" cy="92.8" rx="23.5" ry="20.7"/>
<g id="XMLID_970_">
	<g id="XMLID_381_">
		<path id="XMLID_98_" class="st1" d="M316.2,109.9c-3.4-4.2,5.8-8.4,2-13.3c-1.3-1.6-3.4-2.4-5.2-3.2c-1.4-0.6-3.3-2-4.8-1.6
			c-1.2,0.3-2.1,2.1-2.6,3.1c-0.6,1.6-0.4,2.3,0.7,3.4c3.6,3.7,5.3,8.9,9.3,12.1c0.6,0.5,1.5-0.4,0.9-0.9c-2.9-2.3-4.3-5.5-6.4-8.5
			c-0.8-1.2-1.9-2.1-2.7-3.2c-0.8-1.1-0.9-3.7,0.5-4.6c1.1-0.7,2.2,0,3.2,0.4c1.7,0.6,3.7,1.3,5.2,2.3c2.8,1.9,2.1,5.2,0.3,7.6
			c-0.4,0.6-1,1.1-1.3,1.7c-1.1,1.8-1.2,3.7,0.1,5.3C315.9,111.2,316.6,110.4,316.2,109.9L316.2,109.9z"/>
	</g>
</g>
<g id="XMLID_971_">
	<g id="XMLID_364_">
		<path id="XMLID_99_" class="st1" d="M306.4,92.3c-0.4-0.7-0.8-1.2-1.5-1.6c-0.9-0.5-2.1-0.3-3-0.8c-1-0.6-1-1.6-1.6-2.4
			c-0.6-0.7-1.4-1.4-2.2-1.8c-0.2-0.1-0.6,0.1-0.5,0.4c0.2,0.7,0.5,0.8,1.1,1.3c0.8,0.8,1.2,1.6,1.9,2.5c0.4,0.5,1,0.9,1.7,1.1
			c1.6,0.3,2.7-0.1,3.7,1.6C306.1,92.9,306.6,92.6,306.4,92.3L306.4,92.3z"/>
	</g>
</g>
<g id="XMLID_972_">
	<g id="XMLID_356_">
		<path id="XMLID_112_" class="st1" d="M305.1,90.8c-0.7-0.6-1.9-1.1-1.3-2.3c0.1-0.3,0.9-0.9,1.2-1c0.8-0.4,0.9-0.2,1.5-0.1
			c1.2,0.3,0.7,0.3,0.9,1.1c0.4,1.4,3.1,2,4.4,2c0.2,0,0.4-0.4,0.1-0.5c-0.9-0.5-2.3-0.5-3-1.2c-0.7-0.6-0.4-1.4-1-1.9
			c-0.4-0.4-1.9-0.7-2.5-0.6c-0.8,0.1-2.2,1.5-2.5,2.2c-0.6,1.4,0.9,2.1,1.8,2.8C305,91.5,305.4,91,305.1,90.8L305.1,90.8z"/>
	</g>
</g>
<g id="XMLID_973_">
	<g id="XMLID_348_">
		<path id="XMLID_114_" class="st1" d="M309.1,86.8c1.7-2.5,3.7-3.9,6.2-5.5c1-0.6,1.6-1.1,1.9-2.3c0-0.1,0-0.2-0.1-0.3
			c-1.2-0.7-1.3-0.4-2.4-0.2c-2.5,0.5-0.4-0.2,0.2-1.5c0.1-0.3,0-0.6-0.3-0.6c-2.3-0.2-4.6-0.1-6.7,0.9c-3.2,1.5-4.2,4.8-8.1,5.2
			c-0.5,0-0.5,0.7,0,0.8c2.2,0.3,3.7-0.7,5.2-2.3c1.2-1.4,2.3-2.5,4.1-3.2c0.9-0.3,1.8-0.5,2.7-0.6c0.4,0,4.2-0.2,0.7,1.1
			c-0.2,0.1-0.3,0.3-0.3,0.5c0.2,0.5,0.4,1,1,1.2c0,0,1.7-0.4,1.4-0.5c1.8,0.9-2,2.8-2.7,3.4c-1.3,1.1-2.3,2.4-3.2,3.8
			C308.6,86.9,309,87.1,309.1,86.8L309.1,86.8z"/>
	</g>
</g>
<g id="XMLID_974_">
	<g id="XMLID_340_">
		<path id="XMLID_115_" class="st1" d="M318.6,76.6C318.6,76.6,318.6,76.6,318.6,76.6c0.1,0.1,0.2,0.1,0.2,0.1
			c0-0.1,0.1-0.3,0.1-0.5c0-0.1,0-0.2-0.1-0.2c-0.4,0-0.4,0.4-0.3,0.7c0,0.1,0.1,0.1,0.2,0.1c0.3-0.1,0.2-0.7-0.2-0.7
			C318.4,76.3,318.4,76.6,318.6,76.6L318.6,76.6z"/>
	</g>
</g>
<g id="XMLID_975_">
	<g id="XMLID_332_">
		<path id="XMLID_116_" class="st1" d="M318.5,77.1c0.8,0,0.8-1.3,0-1.3C317.7,75.8,317.7,77.1,318.5,77.1L318.5,77.1z"/>
	</g>
</g>
<g id="XMLID_976_">
	<g id="XMLID_323_">
		<path id="XMLID_117_" class="st1" d="M318.6,76.5c0.1-0.2,0.2-0.4,0.4-0.5c0.1-0.1-0.1-0.2-0.1-0.1
			C318.7,76.1,318.6,76.3,318.6,76.5C318.4,76.5,318.5,76.6,318.6,76.5L318.6,76.5z"/>
	</g>
</g>
<g id="XMLID_978_">
	<g id="XMLID_315_">
		<path id="XMLID_118_" class="st1" d="M315.8,77.2c0.8,0,0.8-1.3,0-1.3C315,75.9,315,77.2,315.8,77.2L315.8,77.2z"/>
	</g>
</g>
<g id="XMLID_980_">
	<g id="XMLID_306_">
		<path id="XMLID_121_" class="st1" d="M323,73.8c-0.9,0.8-2.4,1.7-2.9,2.8c-0.3,0.6-0.2,1.3,0.6,1.4c0.9,0.1,2.3-0.9,3.1-1.4
			c1-0.7,2-1.5,2.7-2.5c0.1-0.1-0.1-0.3-0.2-0.2c-0.6,0.4-1.1,1-1.8,1.4c-0.7,0.4-1.4,0.8-2.1,1.2c-0.3,0.1-1,0.6-1.3,0.6
			c-0.3,0.2-0.3,0,0-0.3c0.2-0.2,0.3-0.4,0.5-0.6c0.6-0.6,1.3-1.2,1.9-1.8C323.7,74,323.3,73.5,323,73.8L323,73.8z"/>
	</g>
</g>
<g id="XMLID_987_">
	<g id="XMLID_298_">
		<path id="XMLID_122_" class="st1" d="M323.2,74.6c0.8,0,0.8-1.3,0-1.3C322.3,73.3,322.3,74.6,323.2,74.6L323.2,74.6z"/>
	</g>
</g>
<g id="XMLID_1022_">
	<g id="XMLID_241_">
		<path id="XMLID_123_" class="st1" d="M333,103.2c-0.1-3.4,1.2-9.6-3-10.9c-2.1-0.6-2.3,0.4-3.5-2.2c-1.2-1.1-1.3-1.9-0.2-2.4
			c0.5-0.6,1.3-0.9,2.2-0.7c1.7-0.3,2.5,0.1,4,0.8c3,1.3,5.8,2.9,8.6,4.6c0.7,0.4,1.2-0.6,0.6-1c-3.3-2.2-7.5-4.8-11.4-5.8
			c-2.4-0.6-4.9,0.6-6.2,2.6c-1.3,1.9-0.9,3.9,1.3,4.7c0.4,0.1,0.7,0.2,1.1,0.3c2.1,0.3,1.5-0.3,3.7,1.7c2.1,1.9,1.9,1.8,1.9,4.3
			c0,1.3,0,2.7,0,4C332.1,103.8,333,103.8,333,103.2L333,103.2z"/>
	</g>
</g>
<g id="XMLID_1028_">
	<g id="XMLID_234_">
		<path id="XMLID_132_" class="st1" d="M332.5,103.4c-0.1,0.6,0.3,1,0.9,1.1c0.9,0.1,2.1-1.2,2.7-1.8c1.1-1,2.4-2.1,3.2-3.4
			c1.1-1.8,1.3-3.5,3.2-4.6c0.5-0.3,0.2-1-0.4-0.9c-1.6,0.3-2.3,2-3,3.4c-0.6,1.4-1.4,2.4-2.5,3.5c-0.5,0.4-0.9,0.9-1.4,1.3
			c-0.3,0.3-1.8,1.3-1.8,1.4C333.6,102.8,332.6,102.8,332.5,103.4L332.5,103.4z"/>
	</g>
</g>
<g id="XMLID_1029_">
	<g id="XMLID_227_">
		<path id="XMLID_135_" class="st1" d="M340.9,90.1c-1.2-1.6-2.4-3.1-4.1-4.2c-0.8-0.5-1.7-1-2.5-1.5c-1-0.6-2.6-1.9-3.7-2.1
			c-0.9-0.1-1.3,0.3-2,0.6c-0.2,0.3-0.4,0.6-0.6,0.9c-1.2,0.3-1.5,0.2-0.6-0.2c0.1-0.5,1.3-1.5,1.6-1.5c0.4,0,0.4-0.6,0-0.7
			c-1.1-0.1-2.5,1.3-3,2.2c-0.4,0.7-0.6,1.5,0.4,2c0.5,0.2,0.8,0.1,1.2-0.1c1.1-0.5,0.9-1.2,2.3-1.6c1.9-0.5,3.6,1,5.3,2
			c2.1,1.3,3.5,2.6,5,4.6C340.5,90.9,341.3,90.5,340.9,90.1L340.9,90.1z"/>
	</g>
</g>
<g id="XMLID_1035_">
	<g id="XMLID_193_">
		<path id="XMLID_136_" class="st1" d="M329.4,81.8c1,0.1,1.7-0.3,2.3-1c0.2-0.3,0.3-0.6,0.6-0.9c0.3-0.3,0.9-0.6,1.3-0.8
			c0.7-0.4,1.5-0.7,2.2-1.2c0.2-0.1,0.1-0.4-0.1-0.3c-1.1,0.4-2.3,1.1-3.3,1.7c-1.1,0.7-1.4,2.2-3,2
			C329.1,81.3,329.1,81.8,329.4,81.8L329.4,81.8z"/>
	</g>
</g>
<g id="XMLID_1036_">
	<g id="XMLID_187_">
		<path id="XMLID_137_" class="st1" d="M329.7,79.1c0-0.4,0.3-0.7,0.6-0.9c0.3-0.2,0.6-0.2,0.9-0.3c0.3-0.1,0.3-0.5,0.1-0.6
			c-0.5-0.3-1.1,0-1.6,0.3c-0.5,0.4-0.7,0.9-0.8,1.5C328.8,79.6,329.6,79.6,329.7,79.1L329.7,79.1z"/>
	</g>
</g>
<g id="XMLID_1037_">
	<g id="XMLID_292_">
		<path id="XMLID_242_" d="M246.4,75.8c0.3-1.3,0.3-2.3,0.2-3.7c0-0.2-0.1-0.3-0.3-0.3c-5.2-0.3-5.7-8.1-4.7-11.9
			c0.9-3.6,6.8-3.6,9.7-3.8c2.9-0.2,5.5,0,8.4,0.3c1.2,0.1,2.1,0,3.3,0c2.4-0.1,7.1-0.4,6.1,4.1c-0.2,0.7,0.8,0.9,1,0.3
			c1-3.4-2.2-6.7-5.7-6.2c-2,0.3-3.5,0.7-5.6,0.4c-1.3-0.1-2.5-0.2-3.9-0.2c-2.9,0.1-5.9,0.3-8.8,0.9c-1.6,0.3-3.3,0.3-4.5,1.6
			c-1.5,1.7-1.3,4.6-1.2,6.7c0.1,2.1,0.3,4.5,1.6,6.2c1.9,2.5,4.5,1.1,3.6,5.2C245.7,76,246.3,76.1,246.4,75.8L246.4,75.8z"/>
	</g>
</g>
<g id="XMLID_1042_">
	<g id="XMLID_285_">
		<path id="XMLID_243_" d="M246.4,76c2.1-1,4.2-2.1,6.1-3.4c0.4-0.3,0-0.9-0.4-0.6c-1.9,1.4-4,2.5-6.1,3.5
			C245.7,75.6,246,76.2,246.4,76L246.4,76z"/>
	</g>
</g>
<g id="XMLID_1044_">
	<g id="XMLID_278_">
		<path id="XMLID_245_" d="M252.5,73.2c1.3-0.2,2.6-0.2,4-0.1c0.2,0,0.3-0.2,0.3-0.3c0.2-2.1,0.6-4.7-0.2-6.7
			c-0.1-0.2-0.4-0.2-0.4,0.1c-0.1,1,0.1,2,0.1,3.1c0,1.2,0,2.3-0.2,3.5c0.1-0.1,0.3-0.2,0.4-0.2c-1.4-0.2-2.8-0.1-4.2,0.1
			C251.9,72.6,252.1,73.2,252.5,73.2L252.5,73.2z"/>
	</g>
</g>
<g id="XMLID_1050_">
	<g id="XMLID_271_">
		<path id="XMLID_247_" d="M256.9,66.3c0.7-3.4,2.8-4.9,6.2-5.2c2.1-0.2,4.3-0.6,6.3,0c0.4,0.1,0.7-0.5,0.3-0.7
			c-1.3-0.7-2.5-0.5-3.9-0.4c-1.7,0.2-3.5,0.2-5.1,0.7c-2.5,0.8-3.8,2.9-4.2,5.5C256.4,66.5,256.9,66.7,256.9,66.3L256.9,66.3z"/>
	</g>
</g>
<g id="XMLID_1057_">
	<g id="XMLID_264_">
		<path id="XMLID_250_" d="M280.8,82.5c-0.1-1.1-0.2-2.3-0.1-3.4c0-0.1-0.2-0.2-0.2,0c-0.2,1.2-0.2,2.3-0.1,3.4
			C280.3,82.8,280.8,82.8,280.8,82.5L280.8,82.5z"/>
	</g>
</g>
<g id="XMLID_1064_">
	<g id="XMLID_257_">
		<path id="XMLID_252_" d="M280.5,81.7c-1.8-1.5-3.6-3-5.9-3.5c-2.9-0.7-6-0.1-9-0.2c-3.7,0-6-1.6-6.2-5.4c-0.1-1.1,0.1-2.2,0-3.4
			c-0.2-2.2,0.3-4.6,2.5-5.8c1.7-0.9,3.9-0.6,5.8-0.6c3.5,0.1,7.1,0.3,10.6,0.5c1.7,0.1,4.1-0.2,5.7,0.4c1.3,0.5,2.7,2.9,2.9,4.2
			c0.1,1-0.1,2.1-0.2,3.1c-0.1,0.9,0,2.1-0.3,3c-0.7,2-1.9,2.7-3.6,3.5c-0.7,0.3-1.3,0.5-1.9,1c-1.1,1-1.3,2.2-0.7,3.5
			c0.3,0.7,1.3,0.1,1-0.6c-1.2-2.3,3.9-3.4,5-4.3c1.1-1,1.4-2.4,1.6-3.8c0.4-2.6,1.5-7.3-0.7-9.5c-2.4-2.4-7-1.8-10.1-1.9
			c-2.5-0.1-5-0.1-7.5-0.1c-2-0.1-4.3-0.4-6.3,0c-2.2,0.4-4.1,2-4.9,4.2c-0.6,1.6-0.1,3-0.1,4.6c0,1.5-0.8,3.1-0.3,4.6
			c0.8,2.3,3.8,4,6.1,4.3c2.4,0.3,5-0.2,7.4-0.2c3.5,0,5.8,1.1,8.5,3.2C280.3,82.8,281,82.1,280.5,81.7L280.5,81.7z"/>
	</g>
</g>
<g id="XMLID_1071_">
	<g id="XMLID_1123_">
		<path id="XMLID_1068_" class="st2" d="M178.6,67.9c-1.2,0.7-2.1,1.9-2.6,3.2c-0.4,1.1,0,1.6,0.7,2.4c1.9,2.2,5.7,2.8,8.3,1.2
			c2.2-1.4,2.2-4.6,0.6-6.4c-1.9-2.2-5.8-2.3-7.7-0.1c-0.3,0.3,0.1,0.9,0.5,0.6c1.8-1.1,3.5-2,5.6-0.8c2.3,1.4,3,4.6,0.4,6.1
			c-1.4,0.8-4.3,1-5.7,0.2c-0.9-0.5-2-1.8-2-3c0-1.1,1.4-2.5,2.2-3C179.1,68.2,178.9,67.8,178.6,67.9L178.6,67.9z"/>
	</g>
</g>
<g id="XMLID_1078_">
	<g id="XMLID_1082_">
		<path id="XMLID_1021_" class="st2" d="M178.6,110.1c0.2-6.1,1.4-12.9,0.3-19c-0.6-3.3-2.4-6.6-1.5-10.1c1.4-5.2,7-3.6,10.8-2.9
			c2.6,0.5,4.8,1.7,7.3,2.6c1.8,0.7,3,0.3,4.1,2c1.2,1.9,0.3,1.1-0.9,0.6c-1-0.4-2.1-0.8-3-1.2c-2.1-1-7.6-4.1-9.1-0.6
			c-0.1,0.2,0,0.3,0.1,0.5c1.3,1.5,3.6,2,5.4,2.8c0.7,0.3,2.3,0.7,2.8,1.4c0.1,0.6,0.2,1.2,0.3,1.8c-0.3-0.1-0.6-0.2-1-0.4
			c-1.6-0.2-3.1-1.6-4.5-2.2c-4.1-1.5-2.1,4.9-1.6,7c0.6,2.4,2.6,4,3.2,6.5c0.5,1.9,0.3,3.7,0,5.6c-0.2,1.7-0.1,5.4-2.4,3.1
			c-1.2-1.3-0.5-2.7-0.6-4.4c-0.1-1.3-0.3-2.5-0.8-3.7c-0.9-2.2-2.2-4.7-4.1-6.1c-0.3-0.2-0.8-0.1-0.8,0.3c0,3.2,0,6.4,0,9.5
			c0,1.5,0.1,3,0.1,4.4c0,0.8,0,1.7-0.1,2.5c-1.8,1.6-3,1.3-3.6-0.9c0.3-0.7-0.7-1.1-1-0.4c-1.1,2.5,2.9,4.5,4.7,2.8
			c1.3-1.3,0.8-4.4,0.8-5.9c0.1-4,0-8,0-12.1c-0.3,0.1-0.5,0.2-0.8,0.3c2.1,1.7,3.9,5.1,4.4,7.7c0.4,1.9-0.6,4.3-0.1,6.1
			c0.4,1.5,2.8,2.2,4.2,1.5c0.4-0.2,0.4-0.6,0.6-1c0.4-0.8,0.3-2.9,0.4-3.8c0.1-1.1,0.4-2.4,0.4-3.5c0-1.8-0.5-3.6-1.3-5.2
			c-0.6-1.3-1.7-2.3-2.1-3.7c-0.3-1-0.6-2.4-0.5-3.5c0-2.1,0.2-2.4,1.9-1.5c1.2,0.6,3.7,2,5.1,2c1.2,0,2-0.8,1.6-2.1
			c-0.7-2.4-5.1-3.3-7.1-4c-3.1-1.2-0.5-2.1,1.1-1.7c1.2,0.3,2.2,1,3.3,1.6c2.1,1.1,4.2,1.8,6.6,2.2c0.2,0,0.5-0.1,0.5-0.3
			c0.4-1.3,0-2.4-1.1-3.3c-0.8-0.6-1.9-0.7-2.8-1c-1.6-0.4-3-1-4.6-1.7c-3.6-1.5-10.1-3.9-13.9-1.8c-3.9,2.1-3.1,7.2-2.2,10.6
			c2.1,7.4,1.2,14.8,0.8,22.4C177.9,110.5,178.5,110.5,178.6,110.1L178.6,110.1z"/>
	</g>
</g>
<g id="XMLID_1085_">
	<g id="XMLID_1039_">
		<path id="XMLID_984_" class="st2" d="M200.4,89.4c-0.5-0.6-1.1-1.1-1.6-1.7c-0.4-0.5-1.6-1.4-1.5-2.1c-0.1,0.1-0.3,0.3-0.4,0.4
			c2.2-0.1,3.7,1.3,5.4,2.5c0.2,0.1,0.4-0.2,0.3-0.3c-1.5-1.7-3.4-3-5.7-3c-0.2,0-0.4,0.2-0.4,0.4c-0.1,0.8,0.5,1.2,0.9,1.8
			c0.8,0.9,1.6,1.8,2.4,2.6C200.2,90.3,200.8,89.8,200.4,89.4L200.4,89.4z"/>
	</g>
</g>
<g id="XMLID_1092_">
	<g id="XMLID_997_">
		<path id="XMLID_928_" class="st2" d="M200.1,90.1c-0.5,4.5,0.1,9.2,0.8,13.7c0.1,0.5,1,0.4,1-0.1c-0.2-4.6-1.1-9-0.7-13.6
			C201.2,89.4,200.2,89.4,200.1,90.1L200.1,90.1z"/>
	</g>
</g>
<g id="XMLID_1099_">
	<g id="XMLID_944_">
		<path id="XMLID_883_" class="st2" d="M201.3,104.2c9.3,0.3,19.1,1.2,28.3-0.1c0.5-0.1,0.3-0.8-0.1-0.8c-9.4,0.1-18.8,0.2-28.2,0.1
			C200.7,103.4,200.7,104.2,201.3,104.2L201.3,104.2z"/>
	</g>
</g>
<g id="XMLID_1106_">
	<g id="XMLID_895_">
		<path id="XMLID_845_" class="st2" d="M230.2,102.9c3-4.3,5.6-9,8.9-13.1c0.2-0.3-0.1-0.7-0.4-0.4c-1.6,1.6-2.8,3.8-4.1,5.7
			c-1.7,2.5-3.3,5-4.9,7.5C229.5,102.9,230,103.2,230.2,102.9L230.2,102.9z"/>
	</g>
</g>
<g id="XMLID_1113_">
	<g id="XMLID_859_">
		<path id="XMLID_827_" class="st2" d="M237.8,89.1c-0.6-0.6-1.1-1-1.9-0.9c-0.6,0.1-1.2,0.1-1.8,0c-0.5-0.1-1-0.2-1.5-0.2
			c-0.4,0-0.5,0.6-0.1,0.7c0.7,0.2,1.4,0.3,2.1,0.3c0.3,0,0.6,0,0.9,0c0.8-0.1,1.2,0,1.7,0.5C237.6,90.1,238.2,89.5,237.8,89.1
			L237.8,89.1z"/>
	</g>
</g>
<g id="XMLID_1148_">
	<g id="XMLID_820_">
		<path id="XMLID_806_" class="st2" d="M202.3,88.7c0.4,0,0.8,0,1.2,0c0.3,0,0.3-0.5,0-0.5c-0.4,0-0.8,0-1.2,0
			C202.1,88.3,202.1,88.7,202.3,88.7L202.3,88.7z"/>
	</g>
</g>
<g id="XMLID_1154_">
	<g id="XMLID_782_">
		<path id="XMLID_771_" class="st2" d="M203.8,88.7c3.7,0.5,7.6,0,11.3,0.3c0.3,0,0.3-0.4,0.1-0.4c-3.7-0.6-7.5,0.2-11.2-0.3
			C203.6,88.2,203.5,88.7,203.8,88.7L203.8,88.7z"/>
	</g>
</g>
<g id="XMLID_1155_">
	<g id="XMLID_764_">
		<path id="XMLID_762_" class="st2" d="M215.6,88.7c2.4-0.6,4.5-1.9,5.9-4c0.7-1.1,0.5-1.3,2-1.6c1.4-0.3,2,0.3,3.1,1
			c2.2,1.5,4.2,3.2,6.2,4.9c0.4,0.4,1-0.2,0.6-0.6c-1.7-1.6-3.6-3-5.5-4.3c-1.2-0.8-2.9-2.3-4.4-2.3c-0.9,0-1.2,0.4-1.7,1.1
			c-1.9,2.4-3,4.3-6.3,5.2C215.1,88.2,215.3,88.8,215.6,88.7L215.6,88.7z"/>
	</g>
</g>
<g id="XMLID_1161_">
	<g id="XMLID_751_">
		<path id="XMLID_722_" class="st2" d="M215.8,89c-1.4,1.4-4.9,3.4-4.2,5.5c0.4,1.4,3.4,3,4.6,3.9c1.8,1.3,4,3.2,6.1,3.9
			c2.4,0.7,3.4-3,4.7-4.4c2.7-2.8,6-4.8,7.7-8.4c0.1-0.1,0-0.3-0.1-0.4c-0.5-0.5-1.1-1-1.6-1.4c-0.2-0.3-0.5,0-0.4,0.2
			c0.3,0.6,1,1.1,1.1,1.7c0.2,1-2,2.9-2.9,3.7c-2,1.8-4.2,3.4-5.9,5.6c-1.2,1.6-1.3,2.9-3.4,1.9c-1.5-0.7-3-1.9-4.3-2.9
			c-1.1-0.8-3.5-1.9-4.2-3.1c-1.1-2.2,1.8-4.1,3.1-5.4C216.3,89.1,216,88.9,215.8,89L215.8,89z"/>
	</g>
</g>
<g id="XMLID_1162_">
	<g id="XMLID_706_">
		<path id="XMLID_692_" class="st2" d="M207.7,82.3c2.5,1.6,5.1,3.2,7.7,4.7c0-0.2-0.1-0.4-0.1-0.7c-1.2,1.1-2.3,3-3.6,3.9
			c-1.1,0.8-0.3,1.1-2.4,0.1c-0.8-0.4-1.6-1-2.4-1.5c-0.7-0.4-1.7-0.7-2.2-1.2c-0.8-0.8-0.6-1,0-2.1c0.9-1.6,2.1-2.6,3.4-3.9
			c0.4-0.4-0.1-0.9-0.5-0.7c-2.4,1.3-4,3.9-4.8,6.5c-0.1,0.2,0,0.5,0.3,0.6c1.5,0.8,3,1.5,4.5,2.3c0.9,0.5,1.9,1.5,2.9,1.8
			c0.8,0.2,1-0.1,1.5-0.6c1.4-1.4,2.6-3.1,4-4.5c0.2-0.2,0.1-0.5-0.1-0.7c-2.6-1.5-5.1-3.1-7.7-4.6C207.7,81.5,207.4,82,207.7,82.3
			L207.7,82.3z"/>
	</g>
</g>
<g id="XMLID_1163_">
	<g id="XMLID_664_">
		<path id="XMLID_650_" class="st2" d="M224.8,101.6c0.9-0.4,1.9,0.4,2.8,0.4c0.7,0,1.1-0.2,1.2-1c0-0.7,0.3-1.7-0.4-2.1
			c-0.8-0.5-1.9-0.1-2.7-0.6c-0.3-0.2-0.7,0.2-0.4,0.5c0.4,0.4,1,0.4,1.5,0.4c0.3,0,0.8-0.1,1.1,0.1c0.4,0.2,0.3,1.1,0.2,1.5
			c-0.1,0.3,0,0.4-0.4,0.5c-0.2,0-0.5-0.1-0.7-0.1c-0.3-0.1-0.6-0.2-1-0.3c-0.6-0.2-1.1-0.2-1.7,0.1
			C224.2,101.1,224.5,101.7,224.8,101.6L224.8,101.6z"/>
	</g>
</g>
<g id="XMLID_1168_">
	<g id="XMLID_636_">
		<path id="XMLID_647_" class="st2" d="M221,101.5c-4.6-1-9.3-0.1-13.9-0.3c-0.5,0-4.1,0.2-2.1-1.5c0.6-0.5,3-0.2,3.9-0.3
			c2.8-0.1,5.6,0.2,8.4,0.2c0.4,0,0.6-0.7,0.1-0.8c-3.6-0.7-8.3-0.9-11.9-0.3c-1.8,0.3-2.9,1.1-2.6,3c0,0.2,0.3,0.4,0.5,0.4
			c2.8,0.2,5.7,0.4,8.5,0.3c3-0.2,5.9-0.5,8.9,0C221.2,102.2,221.4,101.6,221,101.5L221,101.5z"/>
	</g>
</g>
<g id="XMLID_1170_">
	<g id="XMLID_601_">
		<path id="XMLID_627_" class="st2" d="M228.3,97.5c0.5-0.4,1.3,0.2,1.8,0.1c0.7,0,1.1-0.6,1.3-1.2c0.2-0.6,0.3-1.3-0.4-1.7
			c-0.5-0.3-1.5-0.3-2.1-0.1c-0.2,0-0.2,0.3-0.1,0.4c0.4,0.3,0.8,0.2,1.2,0.2c0.5,0,1,0.2,0.8,0.7c-0.1,0.3-0.3,0.8-0.6,0.9
			c-0.4,0.1-0.9-0.2-1.3-0.2c-0.4-0.1-0.7,0-1,0.2C227.5,97.2,227.9,97.8,228.3,97.5L228.3,97.5z"/>
	</g>
</g>
<g id="XMLID_1176_">
	<g id="XMLID_559_">
		<path id="XMLID_587_" class="st2" d="M218.3,98.8c2.2,0.1,4.3,0.3,6.5,0.3c0.2,0,0.3-0.3,0.1-0.4c-0.9-0.4-1.9-0.4-2.8-0.4
			c-1.3,0-2.5-0.1-3.8-0.1C217.9,98.2,217.9,98.8,218.3,98.8L218.3,98.8z"/>
	</g>
</g>
<g id="XMLID_1182_">
	<g id="XMLID_517_">
		<path id="XMLID_545_" class="st2" d="M231.7,93.8c0.9,0,2.2-0.1,2.5-1.2c0.1-0.4,0.2-1.2-0.1-1.6c-0.1-0.2-0.2-0.3-0.4-0.3
			c-0.2,0-0.5,0.1-0.7,0c-0.3-0.1-0.6,0.2-0.3,0.4c0.2,0.2,0.4,0.2,0.6,0.1c0.3,0,0.3,0,0.3,0.3c0,0.2,0,0.4,0,0.6
			c-0.2,0.9-1.2,0.9-2,0.9C231.3,93.2,231.3,93.8,231.7,93.8L231.7,93.8z"/>
	</g>
</g>
<g id="XMLID_1183_">
	<g id="XMLID_475_">
		<path id="XMLID_503_" class="st2" d="M203.7,97.5c3.5,0.1,6.9,0,10.4-0.2c0.3,0,0.4-0.5,0.1-0.6c-1.4-0.5-3.1,0.1-4.6,0.1
			c-2,0.1-4,0.1-6,0.1C203.3,96.9,203.3,97.5,203.7,97.5L203.7,97.5z"/>
	</g>
</g>
<g id="XMLID_1189_">
	<g id="XMLID_434_">
		<path id="XMLID_462_" class="st2" d="M203.5,97c-0.3-2.1,3.4-1.5,4.4-1.5c1.3-0.1,2.6-0.4,3.8-0.1c0.2,0.1,0.4-0.2,0.2-0.4
			c-0.5-0.7-1.2-0.4-2-0.4c-1.5,0.1-3,0.2-4.5,0.2c-1.4,0-2.7,0.5-2.5,2.2C202.9,97.4,203.6,97.4,203.5,97L203.5,97z"/>
	</g>
</g>
<g id="XMLID_1196_">
	<g id="XMLID_392_">
		<path id="XMLID_420_" class="st2" d="M203,91.5c-0.3,0.7-0.3,1.3-0.2,2c0,0.2,0.2,0.3,0.3,0.3c0.9,0.1,1.7,0.6,2.6,0.6
			c0.9,0,1.6-0.5,2.5-0.5c1.3,0,2.5,0.5,3.6-0.4c0.2-0.2,0-0.5-0.3-0.5c-1.4,0.3-2.8-0.2-4.2,0.1c-1.4,0.3-4.7,0.8-3.9-1.5
			C203.6,91.3,203.1,91.2,203,91.5L203,91.5z"/>
	</g>
</g>
<g id="XMLID_1198_">
	<g id="XMLID_344_">
		<path id="XMLID_378_" class="st2" d="M203.6,91.9c0.6,0.2,1.1,0.2,1.7,0.1c1.1-0.1,2-0.1,3-0.1c0.5,0,0.9,0,1.4-0.1
			c1.2-0.2,2.2-0.1,3.3-0.1c0.2,0,0.3-0.3,0.2-0.4c-1-0.9-2.2-0.6-3.5-0.4c-1,0.2-2-0.1-3,0c-1.1,0-1.9,0.5-3,0.2
			C203.3,91,203.1,91.8,203.6,91.9L203.6,91.9z"/>
	</g>
</g>
<g id="XMLID_1213_">
	<g id="XMLID_303_">
		<path id="XMLID_331_" class="st2" d="M203.7,105.4c-1.8,0.7-3.6,2.5-1.7,4.2c0.7,0.6,1.6,1.5,2.5,1.7c1,0.2,2.1-0.3,2.9-0.9
			c1.5-1.3,1.7-3.7-0.1-4.9c-1.3-0.9-4.8-1.5-4.7,0.9c0,0.3,0.4,0.4,0.5,0.1c0.7-1.3,2.7-1.1,3.8-0.2c1.3,1,0.9,2.8-0.4,3.6
			c-0.7,0.4-1.4,0.6-2.2,0.2c-0.3-0.1-0.6-0.5-0.9-0.7c-0.5-0.3-1-0.6-1.3-1.1c-0.7-1.3,0.9-2.2,1.8-2.5
			C204.2,105.8,204,105.3,203.7,105.4L203.7,105.4z"/>
	</g>
</g>
<g id="XMLID_1225_">
	<g id="XMLID_262_">
		<path id="XMLID_290_" class="st2" d="M219.3,105.6c-1.7,0.5-2.8,1.6-1.6,3.3c1.1,1.6,3.5,2.9,5.3,1.8c0.7-0.4,1.5-1,1.7-1.8
			c0.2-0.9-0.5-2-1-2.6c-1.3-1.8-3.7-1.8-5.3-0.3c-0.2,0.1,0,0.4,0.2,0.3c1.2-0.2,2.5-1.1,3.7-0.4c0.5,0.3,0.9,0.9,1.2,1.4
			c0.4,0.9,0.4,1.5-0.2,2.2c-1,1.2-2.6,1-3.8,0.2c-0.5-0.3-1.1-0.8-1.5-1.3c-1-1.4-0.1-2.2,1.2-2.6
			C219.5,105.8,219.5,105.6,219.3,105.6L219.3,105.6z"/>
	</g>
</g>
<g id="XMLID_1257_">
	<g id="XMLID_1251_">
		<path id="XMLID_1245_" d="M166.6,124.8c0.8,0,0.8-1.3,0-1.3C165.8,123.6,165.8,124.8,166.6,124.8L166.6,124.8z"/>
	</g>
</g>
<ellipse id="XMLID_1263_" class="st6" cx="264" cy="154.7" rx="22.4" ry="19.1"/>
<ellipse id="XMLID_1269_" class="st6" cx="263.9" cy="154.7" rx="11.9" ry="19.1"/>
<ellipse id="XMLID_1275_" class="st6" cx="264" cy="154.2" rx="22.4" ry="10.4"/>
<line id="XMLID_1281_" class="st6" x1="264" y1="136" x2="264" y2="174"/>
<line id="XMLID_1287_" class="st6" x1="241.5" y1="154.5" x2="286.5" y2="154.5"/>
<ellipse id="XMLID_1293_" class="st7" cx="317" cy="185.5" rx="3.1" ry="2.5"/>
<ellipse id="XMLID_1294_" class="st7" cx="317.1" cy="185.6" rx="7.6" ry="5"/>
<g id="XMLID_1317_">
	<g id="XMLID_1343_">
		<path id="XMLID_158_" class="st2" d="M300.3,191.5c0.8,0,0.8-1.3,0-1.3C299.4,190.2,299.4,191.5,300.3,191.5L300.3,191.5z"/>
	</g>
</g>
<g id="XMLID_1324_">
	<g id="XMLID_1336_">
		<path id="XMLID_177_" class="st2" d="M298.6,190.3c2,1.7,4.2,2.2,6.8,2.5c4.2,0.4,8.5,0.6,12.7,0.6c6.8,0,15.1-0.8,20.7-4.9
			c0.2-0.2,0.1-0.6-0.2-0.5c-2.7,1-5.3,2.3-8.1,3c-3.4,0.8-7,1.2-10.5,1.3c-3.3,0.1-6.7-0.1-10-0.3c-3.6-0.2-7.7,0-10.7-2.5
			C298.8,189.2,298.1,189.9,298.6,190.3L298.6,190.3z"/>
	</g>
</g>
<g id="XMLID_1331_">
	<g id="XMLID_1329_">
		<path id="XMLID_191_" class="st2" d="M337.7,189.3c-5.9,4.6-13.4,6.7-20.8,6.4c-3.7-0.1-7.4-0.9-11-1.9c-2.1-0.6-3.5-1.3-5.1-2.7
			c-1-0.8-1.4-1.3-2.6-1.6c-0.6-0.2-0.9,0.6-0.4,1c1.5,1,2.6,2.6,4.2,3.4c1.2,0.6,2.7,1,4,1.3c4.1,1.1,8.3,1.7,12.5,1.6
			c7.2-0.2,13.9-2.3,19.6-6.8C338.6,189.5,338.1,189,337.7,189.3L337.7,189.3z"/>
	</g>
</g>
<g id="XMLID_1338_">
	<g id="XMLID_1322_">
		<path id="XMLID_225_" class="st2" d="M292.5,184.5c3.5,0.1,6.7,0,10.1-0.9c3.8-1,7.5-1.9,11.5-2.1c8.1-0.4,16.7,0.2,24.2,3.4
			c0.6,0.3,1.1-0.6,0.5-0.8c-7-3-14.8-3.6-22.4-3.6c-8.2,0-15.7,3.3-23.9,3.2C292,183.7,292,184.5,292.5,184.5L292.5,184.5z"/>
	</g>
</g>
<g id="XMLID_1345_">
	<g id="XMLID_1311_">
		<path id="XMLID_232_" class="st2" d="M293.2,183.7c2.6-0.6,5.2-1.2,7.8-1.9c0.3-0.1,0.3-0.5,0.1-0.6c-2.9-2-6.5-0.4-8.8-3.8
			c-0.1,0.2-0.3,0.4-0.4,0.7c2.7-0.3,5.1,1.4,7.8,1.7c2.3,0.3,4.7,0,7-0.3c0.4-0.1,0.6-0.5,0.3-0.8c-1-1.2-2.5-1.4-3.6-2.3
			c-1.4-1.5-1.7-3.1-1-4.6c0.2,0.3,0.4,0.6,0.6,0.9c0.8,0.5,1.5,1.6,2.3,2.3c2.8,2.2,6.3,4.2,9.9,3.1c0.2-0.1,0.3-0.3,0.2-0.5
			c-0.3-0.9-0.6-1.8-0.8-2.7c0.5-0.9,1-1.7,1.5-2.6c0.1,0,0.6,1.7,0.6,1.9c0.4,0.9,0.8,1.8,1.5,2.6c1.4,1.5,3.3,1.9,5.2,2.3
			c0.2,0,0.4-0.2,0.3-0.4c0.5-0.9,1.1-1.7,1.6-2.6c0,0.2,0,0.4,0,0.6c0.1,0.2,0,0.6,0.1,0.9c0.2,0.7,0.5,1.4,1,1.9
			c1,1.1,2.3,1.2,3.6,0.8c0.1,0,0.2-0.1,0.1-0.3c-0.5-0.7-0.3-1.3,0.5-1.7c0.1,0.3,0.2,0.5,0.3,0.8c-0.2-0.2,1.4,1.5,1.1,1.3
			c1.9,1.7,4.6,2.2,6.3,4.1c0.3,0.3,0.8-0.2,0.5-0.5c-2.4-2.5-6.1-2.6-7.9-5.8c-0.5-0.8-0.6-1.8-1.7-1.2c-0.1,0-0.1,0.1-0.1,0.2
			c0,0.1,0.3,1.8,0.2,1.9c-2.8-0.3-4-1.3-3.8-3.2c0-0.2,0-0.4-0.1-0.6c-0.2-0.4-0.3-0.8-0.8-1c-1.1-0.4-2,1.2-2.2,2.1
			c-0.3,1.4,0.8,2-1.1,1.7c-1.8-0.2-3.3-1.8-4.1-3.3c-0.2-0.3-0.7-2.7-1.2-3.1c-0.7-0.7-1-0.5-1.6,0.2c-1,1.1-0.6,2.8-0.7,4
			c0,0.4,0.4,0.9,0.3,1.1c-0.9,1.7-4,0.2-5-0.3c-0.9-0.5-1.8-1.1-2.7-1.7c-0.5-0.4-1-0.8-1.6-1.3c-0.8-0.7-1.4-1.4-1.9-2.3
			c-0.2-0.2-0.4-0.7-0.8-0.6c-1.3,0.3-1.6,2.8-1.5,3.9c0.4,2.9,3.8,2.8,5.4,4.7c0.1-0.3,0.2-0.5,0.3-0.8c-3,0.4-6,0.8-9-0.1
			c-2-0.6-3.7-1.5-5.8-1.2c-0.3,0-0.6,0.4-0.4,0.7c1.1,1.5,2.5,2.5,4.3,2.9c1,0.2,4.7,0,3.3,0.9c-1.4,0.9-4.4,1.2-6.1,1.6
			C292.7,183.3,292.9,183.8,293.2,183.7L293.2,183.7z"/>
	</g>
</g>
<rect id="XMLID_1346_" x="73.9" y="224.1" class="st0" width="9.1" height="7.8"/>
<rect id="XMLID_1347_" x="84.6" y="220" class="st0" width="10" height="11.9"/>
<rect id="XMLID_1348_" x="96.3" y="210.4" class="st0" width="9.4" height="21.5"/>
<line id="XMLID_1349_" class="st0" x1="157" y1="252" x2="157" y2="231"/>
<line id="XMLID_1350_" class="st0" x1="189" y1="252" x2="188.5" y2="231"/>
<line id="XMLID_1351_" class="st0" x1="153.5" y1="230.5" x2="190.5" y2="230.5"/>
<line id="XMLID_1352_" class="st0" x1="156.5" y1="233.5" x2="187.5" y2="233.5"/>
<line id="XMLID_1353_" class="st0" x1="201.1" y1="251.6" x2="200.8" y2="238.5"/>
<line id="XMLID_1354_" class="st0" x1="200.5" y1="238.5" x2="214.5" y2="238.5"/>
<line id="XMLID_1355_" class="st0" x1="214" y1="252" x2="214" y2="239"/>
<g id="XMLID_1362_">
	<g id="XMLID_1361_">
		<path id="XMLID_1360_" d="M215.2,237.9c1.8-6.6,3.4-13.5,3.7-20.4c0-0.6-1-0.8-1.1-0.1c-1,6.8-1.9,13.6-3.6,20.3
			C214,238.3,215,238.6,215.2,237.9L215.2,237.9z"/>
	</g>
</g>
<g id="XMLID_1369_">
	<g id="XMLID_1368_">
		<path id="XMLID_1367_" d="M200.8,237.9c-4.3-0.6-2.2,8.3-3.8,10.4c-1.2,0.6-2.4,1.2-3.6,1.8c-0.3-0.7-0.7-1.4-1-2.1
			c-0.1-0.7,0.4-1.8,0.5-2.5c0.4-1.8,0.7-3.6,1.1-5.4c0.3-1.5,0.6-4,1.7-5.2c2.1-2.3,5.4-2,8.3-2.1c0.3,0,0.4-0.2,0.4-0.5
			c-0.5-2.5-0.2-4.1,0-6.6c0-0.5,0.2-0.9,0-1.4c-0.3-0.8-1-1.1-1.8-1.1c-1.6,0-3.7,1.8-5,2.5c-2.8,1.5-5.7,3-8.5,4.4
			c-0.2,0.1,0,0.3,0.1,0.3c3.2-1.2,6.3-2.6,9.3-4.3c0.5-0.3,2.1-1.6,2.6-1.5c1.2,0.2,2,1.7,2.2,2.6c0.1,0.6,0.3,3.7,0.1,4.1
			c-1.1,1.8-5.2,0.2-7.1,1.6c-2,1.5-2.6,4.6-3,6.9c-0.4,1.8-0.7,3.6-1.1,5.4c-0.2,1.2-1,2.9-0.5,4.1c0.4,1.2,1.4,1.5,2.6,1.6
			c6.1,0.5,3.7-12.5,6.6-12.2C201.1,238.8,201.2,237.9,200.8,237.9L200.8,237.9z"/>
	</g>
</g>
<g id="XMLID_1376_">
	<g id="XMLID_1375_">
		<path id="XMLID_1374_" d="M187,229.4c0.2-1.1,2.6-2.5,3.6-2.9c0.6-0.3,1.3-0.4,2-0.6c1.2-0.4,2.3-0.9,3.4-1.5c1.7-0.8,4-1.8,5-3.6
			c0.1-0.2,0-0.6-0.3-0.6c-4.6,0.4-9.6,1-14.2,0.7c-0.6-0.1-1.2-0.2-1.8-0.3c-2-2.2-2-3.2,0.1-3c0.9-0.1,1.8,0,2.7,0
			c2.3,0,4.6,0,7,0c4.6,0,10.3-0.8,14.7,0.6c5.3,1.7,4,7.9,5.6,12.2c0.2,0.6,1.1,0.3,0.9-0.3c-0.9-2.3-1.1-4.5-1.4-7
			c-0.1-1.3-0.4-2.4-1.2-3.5c-1.7-2.3-4.6-2.9-7.3-3.1c-4.8-0.3-9.7-0.1-14.4-0.1c-2.4,0-7.2-1-9.2,0.6c-1.4,1.1-0.9,2.6,0.3,3.6
			c2.7,2,7.7,0.8,10.7,0.6c1.2-0.1,2.5-0.2,3.7-0.2c1.1-0.1,3-1,1.8,0.6c-1.1,1.3-4.4,2.5-5.9,3c-2.6,1-6.2,1.1-6.7,4.3
			C186.1,229.7,187,229.9,187,229.4L187,229.4z"/>
	</g>
</g>
<g id="XMLID_1383_">
	<g id="XMLID_1382_">
		<path id="XMLID_1381_" d="M201.6,216.5c0.9-0.3,1.9-0.1,2.7-0.5c0.9-0.3,1.5-1.1,2.2-1.7c1-0.8,1.6-1.7,1.8-3.1
			c0.5-3.7-2.7-5.7-6.1-5.7c-3.1,0.1-6.9,1.2-6.9,4.9c-0.1,3.2,4,6.1,6.7,7c0.3,0.1,0.6-0.4,0.3-0.6c-1.5-1.4-3.4-2.3-4.9-3.7
			c-1.1-1.1-1.6-2.9-0.7-4.3c0.9-1.4,2.7-1.8,4.3-2c3.2-0.4,7.2,1,6.3,5c-0.6,2.7-3.7,3.4-5.9,4.1
			C201,215.9,201.2,216.6,201.6,216.5L201.6,216.5z"/>
	</g>
</g>
<g id="XMLID_1390_">
	<g id="XMLID_1389_">
		<path id="XMLID_1388_" d="M161.4,240.7c5.1-0.3,10.1-0.4,15.2-0.4c1.1,0,2.9-0.3,3.8,0.1c1.7,0.7,1.5,2.9,1.6,4.4
			c0.3,2.3,0.4,4.7,0.3,7c0,0.6,0.9,0.6,0.9,0c0-4-0.4-7.9-1.3-11.8c0-0.1-0.2-0.2-0.3-0.2c-6.8-0.3-13.5-0.3-20.3,0.1
			C160.9,240,160.9,240.8,161.4,240.7L161.4,240.7z"/>
	</g>
</g>
<g id="XMLID_1397_">
	<g id="XMLID_1396_">
		<path id="XMLID_1395_" d="M161,240.6c-0.3,3.7-0.7,7.5-0.3,11.2c0,0.2,0.2,0.5,0.4,0.4c7.1-0.7,14.3,0.5,21.4,0.2c0.6,0,0.6-1,0-1
			c-5.4,0.5-10.7-0.2-16.1-0.3c-0.9,0-3.4,0.5-4.2,0.1c-1.2-0.7-0.9-1.4-0.9-2.7c0-2.6,0.2-5.3,0.3-7.9
			C161.8,240.1,161.1,240.1,161,240.6L161,240.6z"/>
	</g>
</g>
<g id="XMLID_1404_">
	<g id="XMLID_1403_">
		<path id="XMLID_1402_" d="M169.3,238.8c-0.1-1.5,1.9-2.3,3.2-2.2c1.8,0.2,1.7,2.3,1.8,3.6c0,0.3,0.5,0.5,0.7,0.2
			c0.5-0.9,0.2-2.3-0.3-3.2c-0.4-0.8-1-1.3-1.9-1.5c-1.9-0.3-4.6,0.9-4.5,3.1C168.4,239.4,169.4,239.5,169.3,238.8L169.3,238.8z"/>
	</g>
</g>
<g id="XMLID_1411_">
	<g id="XMLID_1410_">
		<path id="XMLID_1409_" d="M168.6,238.7c-0.1,0.4-0.1,0.8,0.3,1.2c0.2,0.2,0.5,0,0.5-0.2c0-0.3-0.1-0.5,0-0.8
			C169.4,238.4,168.7,238.2,168.6,238.7L168.6,238.7z"/>
	</g>
</g>
<g id="XMLID_1418_">
	<g id="XMLID_1417_">
		<path id="XMLID_1416_" d="M186.4,216.4c1-1.1,4-3.2,4.3-4.8c0.2-1.4-0.5-1.6-1.5-2.4c-2-1.6-4.2-3.1-6.4-4.4
			c-1.1-0.7-3.5-2.7-4.9-2.4c-1.4,0.3-3.3,3.1-4.3,4.1c-0.8,0.8-2,1.9-2,3.1c0,1.5,1.3,2.1,2.3,2.9c2.5,1.9,5,3.7,7.5,5.5
			c0.4,0.3,0.8-0.4,0.4-0.7c-1.3-0.9-2.5-1.8-3.8-2.7c-1.1-0.8-3-1.7-3.8-2.8c-2.3-3-0.7-3.8,0.9-5.3c1.2-1.2,2.2-2.9,4.2-2.5
			c2.1,0.4,4.9,2.8,6.7,4c1.8,1.1,4.2,1.8,2.9,4.8c-0.5,1.1-2,2.3-2.8,3.2C185.8,216.3,186.1,216.6,186.4,216.4L186.4,216.4z"/>
	</g>
</g>
<g id="XMLID_1425_">
	<g id="XMLID_1424_">
		<path id="XMLID_1423_" d="M183.8,216c0.1-1.2,0.1-2.3,0.2-3.5c0-0.6-1-0.6-1,0c0,1.2,0,2.3-0.1,3.5
			C183,216.5,183.8,216.5,183.8,216L183.8,216z"/>
	</g>
</g>
<g id="XMLID_1432_">
	<g id="XMLID_1431_">
		<path id="XMLID_1430_" d="M172.5,209.6c1.8,0.3,3.6,0.3,5.4,0c0.5-0.1,0.3-0.9-0.2-0.8c-1.7,0.3-3.3,0.3-5,0.1
			C172.3,208.7,172,209.5,172.5,209.6L172.5,209.6z"/>
	</g>
</g>
<g id="XMLID_1439_">
	<g id="XMLID_1438_">
		<path id="XMLID_1437_" d="M178,205.1c0.1,2.2-0.3,4.9,1.2,6.8c0.1,0.2,0.4,0,0.3-0.2c-0.2-1.2-0.7-2.2-0.8-3.4
			c-0.1-1.1-0.1-2.1-0.1-3.2C178.6,204.7,178,204.7,178,205.1L178,205.1z"/>
	</g>
</g>
<g id="XMLID_1446_">
	<g id="XMLID_1445_">
		<path id="XMLID_1444_" d="M180.1,211.8c3.1-0.2,6.2,0.9,9.2,0.3c0.3-0.1,0.2-0.6-0.1-0.6c-3.1,0-6.1-0.6-9.2-0.4
			C179.7,211.1,179.7,211.8,180.1,211.8L180.1,211.8z"/>
	</g>
</g>
<g id="XMLID_1453_">
	<g id="XMLID_1452_">
		<path id="XMLID_1451_" d="M536.5,429.6c0.8,0,0.8-1.3,0-1.3C535.7,428.4,535.7,429.6,536.5,429.6L536.5,429.6z"/>
	</g>
</g>
<g id="XMLID_1460_">
	<g id="XMLID_1459_">
		<path id="XMLID_1458_" d="M536.5,429C536.6,429,536.6,429,536.5,429C536.4,429,536.4,429,536.5,429L536.5,429z"/>
	</g>
</g>
<g id="XMLID_1467_">
	<g id="XMLID_1466_">
		<path id="XMLID_1465_" d="M537.5,427.1c0.8,0,0.8-1.3,0-1.3C536.7,425.9,536.7,427.1,537.5,427.1L537.5,427.1z"/>
	</g>
</g>
<g id="XMLID_1474_">
	<g id="XMLID_1473_">
		<path id="XMLID_1472_" d="M537.5,426.5c-1.5,0.3-3,0.6-4.5,0.8c-0.3,0-0.2,0.5,0.1,0.4C534.5,427.3,536,426.9,537.5,426.5
			C537.6,426.5,537.5,426.5,537.5,426.5L537.5,426.5z"/>
	</g>
</g>
<g id="XMLID_1481_">
	<g id="XMLID_1545_">
		<path id="XMLID_1479_" class="st3" d="M406.6,137.2c8.9-0.3,17.7,0.2,26.6,0.8c2.1,0.1,4.1,0.2,6.2,0.1c0.8-0.1,1.8-0.4,2.6-0.3
			c2.7,0.5,2.7,2.5,2.7,4.6c0,5.1-3.5,9.1-8.5,9.9c-0.4,0.1-0.3,0.7,0.1,0.6c3.5-0.3,6.5-2.5,8-5.7c1.1-2.3,2.4-8.6-0.7-9.9
			c-1.8-0.8-4.8,0.2-6.6,0.2c-3.3,0-6.6-0.4-9.9-0.7c-6.8-0.4-13.6-0.2-20.4,0.2C406.5,137,406.5,137.2,406.6,137.2L406.6,137.2z"/>
	</g>
</g>
<g id="XMLID_1488_">
	<g id="XMLID_1538_">
		<path id="XMLID_1303_" class="st3" d="M437,149.7c2.5-1.5,5.5-3.4,5.5-6.6c0-2.8-1.9-3.8-4.4-4c-5.7-0.4-11.6-0.1-17.3-0.2
			c-5.4-0.1-10.7-0.3-16,0.5c-0.5,0.1-0.3,0.8,0.2,0.8c7.2-1,14.6-0.6,21.9-0.5c3.3,0,6.7-0.2,9.9,0.1c1.4,0.1,3.6,0.4,4.6,1.5
			c1.1,1.3,0.3,3.2-0.4,4.3c-1,1.7-2.7,2.7-4.3,3.7C436.4,149.4,436.7,149.9,437,149.7L437,149.7z"/>
	</g>
</g>
<g id="XMLID_1495_">
	<g id="XMLID_1531_">
		<path id="XMLID_1295_" class="st3" d="M406.4,137c-4.7,0.4-5,5.2-3.4,8.7c2,4.6,6.8,7.2,11.7,7.1c0.5,0,0.5-0.8,0-0.8
			c-3.3,0.1-6.3-0.9-8.7-3.2c-1.1-1.1-2-2.4-2.6-3.9c-1.1-2.9-0.8-7.1,3-7.5C406.7,137.5,406.7,137,406.4,137L406.4,137z"/>
	</g>
</g>
<g id="XMLID_1502_">
	<g id="XMLID_1524_">
		<path id="XMLID_1279_" class="st3" d="M411.7,149.2c-2.2-0.6-4.4-2.2-5.1-4.4c-0.4-1.5-1.1-3.6-1-5.1c0-0.4-0.6-0.5-0.7-0.1
			c-0.4,1.1,0.1,2,0.3,3.1c0.3,1.2,0.4,2.4,0.9,3.5c1,1.9,3.3,3.2,5.3,3.7C412,150,412.1,149.3,411.7,149.2L411.7,149.2z"/>
	</g>
</g>
<g id="XMLID_1509_">
	<g id="XMLID_1517_">
		<path id="XMLID_1258_" class="st3" d="M411.5,150.2c0.7,0.6,1.5,0.9,2.4,0.8c0.3,0,0.6-0.3,0.6-0.6c0-0.3-0.3-0.7-0.6-0.6
			c-0.6,0.1-1.1,0-1.5-0.4C411.7,148.7,410.8,149.6,411.5,150.2L411.5,150.2z"/>
	</g>
</g>
<g id="XMLID_1516_">
	<g id="XMLID_1510_">
		<path id="XMLID_668_" class="st3" d="M414.5,151.2c1.2,3.4,3.7,5.7,7.2,6.6c4.1,1.1,10.1,1.8,13.7-0.9c2.7-1.9,2.4-6,0.9-8.6
			c-2.1-3.7-9.5-0.6-12.8-1.6c-0.4-0.1-0.7,0.4-0.4,0.7c2,2.3,3.2,4.9,3.6,8c0.1,0.5,0.9,0.3,0.8-0.2c-0.4-3.2-1.7-5.9-3.8-8.3
			c-0.1,0.2-0.3,0.5-0.4,0.7c2.8,0.8,5.3-0.1,8.1-0.1c2.6,0,3.8,0.3,4.8,2.9c0.9,2.5,0.2,5-2.3,6.3c-3.2,1.6-7.6,1-11,0.4
			c-3.7-0.6-6.5-2.4-7.8-6C414.9,150.7,414.4,150.9,414.5,151.2L414.5,151.2z"/>
	</g>
</g>
<g id="XMLID_1523_">
	<g id="XMLID_1503_">
		<path id="XMLID_515_" class="st3" d="M415.3,150.3c0.2-2.3,2.3-3.6,4.4-3.8c1.5-0.1,2.9,0.3,4.3,0.4c0.2,0,0.3-0.3,0.1-0.4
			c-3.4-1.6-9.1-0.8-9.5,3.7C414.5,150.7,415.2,150.7,415.3,150.3L415.3,150.3z"/>
	</g>
</g>
<g id="XMLID_1530_">
	<g id="XMLID_1496_">
		<path id="XMLID_506_" class="st3" d="M436.4,147.3c3.4-0.6,5.1-4.5,3.6-7.6c-0.1-0.2-0.3,0-0.3,0.1c0.3,1.7,0.6,3.2-0.3,4.7
			c-0.7,1.2-1.8,2-3.2,2.3C436,146.9,436.1,147.4,436.4,147.3L436.4,147.3z"/>
	</g>
</g>
<g id="XMLID_1537_">
	<g id="XMLID_1489_">
		<path id="XMLID_494_" class="st3" d="M413.8,147.4c-1.6-0.1-2.9-1.1-3.7-2.5c-0.7-1.4-0.6-2.9-1.2-4.2c-0.1-0.3-0.6-0.4-0.7,0
			c-0.4,1.7,0.5,3.9,1.5,5.2c1,1.3,2.4,2.1,4,2.2C414.2,148.1,414.2,147.4,413.8,147.4L413.8,147.4z"/>
	</g>
</g>
<g id="XMLID_1544_">
	<g id="XMLID_1482_">
		<path id="XMLID_485_" class="st3" d="M409.7,141.6c1.2-0.3,1.8,1.3,2.9,1.5c0.6,0.1,1.3-0.2,1.5-0.8c0.1-0.3-0.4-0.5-0.5-0.1
			c-0.1,0.4-0.6,0.5-0.9,0.4c-0.2-0.1-0.4-0.2-0.6-0.3c-0.3-0.2-0.6-0.6-0.9-0.8c-0.5-0.3-1-0.5-1.6-0.4
			C409.2,141.1,409.3,141.7,409.7,141.6L409.7,141.6z"/>
	</g>
</g>
<g id="XMLID_1551_">
	<g id="XMLID_1475_">
		<path id="XMLID_388_" class="st3" d="M414.2,141.8c-0.1,0.5-0.2,1-0.1,1.5c0,0.2,0.3,0.1,0.3,0c0-0.4,0.1-0.9,0.2-1.3
			C414.6,141.7,414.2,141.6,414.2,141.8L414.2,141.8z"/>
	</g>
</g>
<g id="XMLID_1558_">
	<g id="XMLID_1297_">
		<path id="XMLID_336_" class="st3" d="M414.5,143.6c0.5,1,1.8,1.8,2.9,1.4c0.2-0.1,0.2-0.4-0.1-0.4c-1,0.1-2-0.2-2.5-1.2
			C414.8,143.1,414.4,143.3,414.5,143.6L414.5,143.6z"/>
	</g>
</g>
<g id="XMLID_1565_">
	<g id="XMLID_1289_">
		<path id="XMLID_239_" class="st3" d="M418.9,143.2c0,0.3-0.1,0.7-0.1,1c0,0.3,0.4,0.3,0.5,0c0-0.3,0.1-0.7,0.1-1
			C419.4,142.9,418.9,142.9,418.9,143.2L418.9,143.2z"/>
	</g>
</g>
<g id="XMLID_1572_">
	<g id="XMLID_1265_">
		<path id="XMLID_291_" class="st3" d="M417.9,144.6c0.3-0.1,0.7-0.2,1-0.3c0.1,0,0.1-0.2,0-0.2c-0.3,0.1-0.7,0.1-1,0.2
			C417.7,144.4,417.8,144.7,417.9,144.6L417.9,144.6z"/>
	</g>
</g>
<g id="XMLID_1579_">
	<g id="XMLID_683_">
		<path id="XMLID_313_" class="st3" d="M419.9,145c1.2,0.8,3.1,0.5,4.5,0.4c0.1,0,0.2-0.1,0.2-0.2c0-0.4,0-0.9,0-1.3
			c0-0.3-0.4-0.3-0.4,0c0,0.4,0,0.9,0,1.3c0.1-0.1,0.2-0.2,0.2-0.2c-1.3,0-3.1,0.4-4.2-0.3C419.9,144.5,419.7,144.9,419.9,145
			L419.9,145z"/>
	</g>
</g>
<g id="XMLID_1586_">
	<g id="XMLID_403_">
		<path id="XMLID_329_" class="st3" d="M424.8,145.2c1.4,0.4,3.2,0.3,4.6,0.1c0.9-0.1,0.9-1.4,0.8-2.1c0-0.2-0.3-0.2-0.3,0
			c-0.1,0.3-0.1,0.4-0.2,0.7c-0.2,0.8-0.7,0.9-1.4,1c-1.1,0.1-2.2,0.2-3.3-0.1C424.7,144.7,424.6,145.1,424.8,145.2L424.8,145.2z"/>
	</g>
</g>
<g id="XMLID_1593_">
	<g id="XMLID_380_">
		<path id="XMLID_376_" class="st3" d="M429.8,145.2c1.3,0.3,3,0.5,4.3-0.1c1-0.4,0.5-1.7,0.3-2.5c0-0.1-0.3-0.1-0.3,0
			c0,0.4,0.1,0.7,0.2,1.1c0,0.3,0.1,0.7-0.3,1c-0.2,0.1-0.6,0.1-0.8,0.2c-1.1,0.2-2.2,0.1-3.3-0.1
			C429.7,144.8,429.6,145.1,429.8,145.2L429.8,145.2z"/>
	</g>
</g>
<g id="XMLID_1600_">
	<g id="XMLID_588_">
		<path id="XMLID_504_" class="st3" d="M434.6,143.9c1.8,0.6,4.3,0,5.9-0.9c0.1-0.1,0.1-0.3-0.1-0.3c-1.9,0-3.7,1.2-5.6,0.6
			C434.3,143.2,434.2,143.8,434.6,143.9L434.6,143.9z"/>
	</g>
</g>
<ellipse id="XMLID_595_" class="st0" cx="206.9" cy="183" rx="9.4" ry="8.6"/>
<line id="XMLID_602_" class="st0" x1="207" y1="178" x2="207" y2="184"/>
<line id="XMLID_609_" class="st0" x1="207" y1="184" x2="209.7" y2="182"/>
<ellipse id="XMLID_687_" class="st0" cx="322.4" cy="52.5" rx="11.1" ry="10.9"/>
<line id="XMLID_694_" class="st0" x1="315.8" y1="47.7" x2="329.3" y2="56.3"/>
<line id="XMLID_701_" class="st0" x1="317" y1="58" x2="327.5" y2="46.7"/>
<line id="XMLID_708_" class="st0" x1="357.3" y1="135.6" x2="361.8" y2="134.7"/>
<line id="XMLID_716_" class="st0" x1="330.2" y1="60.2" x2="323.9" y2="69.5"/>
<line id="XMLID_717_" class="st0" x1="323.9" y1="69.5" x2="315.8" y2="61.3"/>
<ellipse id="XMLID_718_" class="st0" cx="385" cy="155.3" rx="11.8" ry="11.3"/>
<line id="XMLID_727_" class="st0" x1="385" y1="149" x2="385" y2="161"/>
<line id="XMLID_728_" class="st0" x1="392" y1="155" x2="378.7" y2="154.7"/>
<ellipse id="XMLID_408_" class="st0" cx="500.6" cy="103.3" rx="10.4" ry="10.2"/>
<ellipse id="XMLID_100_" class="st0" cx="500.3" cy="103.2" rx="6" ry="6"/>
<circle id="XMLID_101_" class="st0" cx="500.6" cy="103.2" r="1.3"/>
<line id="XMLID_102_" class="st0" x1="456.6" y1="133.4" x2="493.2" y2="110.3"/>
<ellipse id="XMLID_110_" class="st0" cx="552.5" cy="209" rx="15.9" ry="15.5"/>
<line id="XMLID_111_" class="st0" x1="549.3" y1="202.5" x2="559.3" y2="209"/>
<line id="XMLID_307_" class="st0" x1="559.3" y1="209" x2="550.2" y2="214.3"/>
<line id="XMLID_308_" class="st0" x1="550.2" y1="214.3" x2="549.7" y2="202.5"/>
</svg>
