<?xml version="1.0" encoding="utf-8"?>
<!-- Generator: Adobe Illustrator 19.0.0, SVG Export Plug-In . SVG Version: 6.00 Build 0)  -->
<svg version="1.1" id="Layer_1" xmlns="http://www.w3.org/2000/svg" xmlns:xlink="http://www.w3.org/1999/xlink" x="0px" y="0px"
	 viewBox="-140 78 678.5 405" style="enable-background:new -140 78 678.5 405;" xml:space="preserve">
<style type="text/css">
	.st0{fill:none;stroke:#000000;stroke-miterlimit:10;}
	.st1{fill:#7020FF;}
	.st2{fill:#20F23A;}
	.st3{fill:#F02E00;}
	.st4{fill:none;stroke:#F02E00;stroke-miterlimit:10;}
	.st5{fill:none;stroke:#F02E00;stroke-width:3;stroke-miterlimit:10;}
	.st6{fill:none;stroke:#7020FF;stroke-miterlimit:10;}
	.st7{fill:none;stroke:#20F23A;stroke-miterlimit:10;}
</style>
<rect id="XMLID_2_" x="156" y="391.5" class="st0" width="101" height="55"/>
<path id="XMLID_3_" class="st0" d="M266,447.9c0,2.5-2,4.6-4.6,4.6H152.6c-2.5,0-4.6-2-4.6-4.6V391c0-2.5,2-4.6,4.6-4.6h108.9
	c2.5,0,4.6,2,4.6,4.6v56.9H266z"/>
<path id="XMLID_4_" class="st0" d="M223.4,379.8c-0.5-6.5-0.3-13,0.6-19.4"/>
<path id="XMLID_5_" class="st0" d="M223.5,359.9c-3,1.8-5.8,3.9-8.3,6.2"/>
<path id="XMLID_6_" class="st0" d="M224.2,360.3c1.4,1.1,2.7,2.2,4.1,3.3c0.4,0.3,0.8,0.7,1.3,0.9c1.1,0.6,2.5,0.9,3.3,1.9"/>
<path id="XMLID_7_" class="st0" d="M198.4,359.9c-0.4,6.3-0.4,12.6-0.2,18.9"/>
<path id="XMLID_8_" class="st0" d="M188.5,372.8c3,2.5,6.3,4.8,9.8,6.7"/>
<path id="XMLID_9_" class="st0" d="M199.5,379.7c2.8-2.3,5.9-4.4,9.1-6.2"/>
<path id="XMLID_10_" class="st0" d="M46.8,438.4l-18.9-38.8c-1.5-3.1-0.2-6.9,2.9-8.4l22-10.7c3.1-1.5,6.9-0.2,8.4,2.9l18.9,38.8
	c1.5,3.1,0.2,6.9-2.9,8.4l-22,10.7C52.1,442.8,48.3,441.5,46.8,438.4z"/>
<path id="XMLID_11_" class="st0" d="M47,431l-15.7-32.2c-0.9-1.9-0.1-4.3,1.8-5.3l20.3-9.9c1.9-0.9,4.3-0.1,5.3,1.8l15.7,32.2
	c0.9,1.9,0.1,4.3-1.8,5.3l-20.3,9.9C50.4,433.8,48,433,47,431z"/>
<ellipse id="XMLID_12_" class="st0" cx="65.3" cy="431.1" rx="2.4" ry="2.1"/>
<path id="XMLID_13_" class="st0" d="M72.2,387.7c8-8.2,16.5-15.9,25.4-23"/>
<path id="XMLID_1_" class="st0" d="M124.6,362.3c5.5,8.1,13.4,14.3,21.1,20.3"/>
<g id="XMLID_15_">
	<g id="XMLID_1283_">
		<path id="XMLID_16_" class="st1" d="M82.1,348.2c3.3-5.6,8.8-9.1,15.2-10c0.8-0.1,0.5-1.3-0.3-1.2c-6.7,0.9-12.5,4.8-15.9,10.6
			C80.5,348.2,81.6,348.9,82.1,348.2L82.1,348.2z"/>
	</g>
</g>
<g id="XMLID_17_">
	<g id="XMLID_1274_">
		<path id="XMLID_18_" class="st1" d="M95.6,337c2.1-3,5.4-6.3,9.3-6.1c3.9,0.2,6.6,3.7,8.7,6.6c0.5,0.7,1.6,0,1.1-0.6
			c-2.4-3.3-5.3-7.1-9.8-7.2c-4.5-0.1-8,3.4-10.4,6.7C94,337,95.1,337.7,95.6,337L95.6,337z"/>
	</g>
</g>
<g id="XMLID_19_">
	<g id="XMLID_1267_">
		<path id="XMLID_20_" class="st1" d="M114.5,335.6c6.6-3.2,13.9,0.5,15.3,7.7c0.2,0.8,1.4,0.5,1.2-0.3c-1.6-8-9.9-12-17.2-8.4
			C113.1,334.8,113.7,335.9,114.5,335.6L114.5,335.6z"/>
	</g>
</g>
<g id="XMLID_21_">
	<g id="XMLID_1260_">
		<path id="XMLID_22_" class="st1" d="M131.3,342.4c3.6,0.6,7.3,1.2,10.4,3.2c3.6,2.4,6.2,8.2,2.3,11.5c-2.7,2.3-6.8,2.2-10.1,2.1
			c-4.2,0-8.4-0.1-12.6-0.2c-8.2-0.1-16.4-0.2-24.6-0.3c-3.7,0-8,0.3-11.5-1.4c-4.3-2.1-5.8-7-3.6-11.2c0.4-0.7-0.7-1.4-1.1-0.6
			c-3.7,7.2,1.8,13.3,8.9,14.3c5.7,0.7,11.6,0.4,17.4,0.4c6.1,0.1,12.2,0.2,18.3,0.2c6,0.1,19.8,2.6,21.9-5.9
			c2.2-9.1-8.8-12.3-15.3-13.4C130.8,341,130.5,342.2,131.3,342.4L131.3,342.4z"/>
	</g>
</g>
<g id="XMLID_23_">
	<g id="XMLID_1234_">
		<path id="XMLID_24_" class="st1" d="M139,329.1c-1.5,0.8-3.2,1.7-3.9,3.3c-0.6,1.3-0.4,2.9,0.7,3.9c0.6,0.6,1.5-0.3,0.9-0.9
			c-2.3-2.1,1.3-4.4,3-5.2C140.4,329.9,139.7,328.8,139,329.1L139,329.1z"/>
	</g>
</g>
<g id="XMLID_25_">
	<g id="XMLID_704_">
		<path id="XMLID_26_" class="st1" d="M139.8,329.4c2-3.8,6.7-4.5,9.6-1.4c0.6,0.6,1.5-0.3,0.9-0.9c-3.5-3.7-9.3-2.9-11.6,1.6
			C138.3,329.4,139.4,330.1,139.8,329.4L139.8,329.4z"/>
	</g>
</g>
<g id="XMLID_27_">
	<g id="XMLID_684_">
		<path id="XMLID_29_" class="st1" d="M151.3,327.6c1-1.1,2.7-0.8,3.8,0.1c1,0.9,1.6,2.3,2.2,3.6c0.3,0.8,1.4,0.1,1.1-0.6
			c-0.8-1.8-1.7-3.9-3.7-4.7c-1.4-0.6-3.1-0.4-4.2,0.8C149.8,327.3,150.7,328.2,151.3,327.6L151.3,327.6z"/>
	</g>
</g>
<g id="XMLID_30_">
	<g id="XMLID_144_">
		<path id="XMLID_32_" class="st1" d="M158.6,331.3c2.1,0.2,4.1,0.9,5,3c1.6,3.6-4.3,3.4-5.8,3.4c-2.4,0-4.8,0-7.2,0
			c-4.4-0.1-11,0.6-14.3-2.8c-0.6-0.6-1.5,0.3-0.9,0.9c2.7,2.8,6.7,2.8,10.4,3c5,0.2,10.5,0.8,15.5,0.1c2.3-0.3,3.9-1.7,3.7-4.1
			c-0.3-3.3-3.6-4.5-6.4-4.7C157.7,330,157.7,331.2,158.6,331.3L158.6,331.3z"/>
	</g>
</g>
<path id="XMLID_33_" class="st0" d="M18.5,357.4c6.4-6,12.8-11.9,19.2-17.9c2.7-2.5,5.6-5.1,9.1-6.1"/>
<g id="XMLID_104_">
	<g id="XMLID_1237_">
		<path id="XMLID_1200_" class="st2" d="M9.8,362.1c-2.1-1.7-4.7-2.4-7.3-1.6c-2,0.6-4.9,2.7-3.9,5.1c0.9,2.4,4.3,2.1,6.3,2.7
			c1.1,0.3,2.9,0.9,3.6,1.9c2.2,3-1.6,4.1-3.1,4.4c-2.9,0.5-5.6-1.9-8.1-3.3c-0.7-0.4-1.4,0.7-0.6,1.1c2,1.1,4,2.6,6.1,3.5
			c1.3,0.5,2.2,0.1,3.5-0.2c2.1-0.6,5.1-1.5,4.5-4.3s-4.2-4.1-6.6-4.6c-0.7-0.1-1.4-0.2-2-0.3c-0.5-0.1-1.1-0.3-1.5-0.5
			c-0.6-1.8-0.2-3.1,1.3-3.7c2.3-1.3,5.2-0.9,7.2,0.8C9.5,363.5,10.4,362.6,9.8,362.1L9.8,362.1z"/>
	</g>
</g>
<g id="XMLID_105_">
	<g id="XMLID_1229_">
		<path id="XMLID_1197_" class="st2" d="M3.3,360.7c-0.1,6.4-0.2,12.7-0.4,19.1c0,0.8,1.3,0.8,1.3,0c0.1-6.4,0.2-12.7,0.4-19.1
			C4.6,359.9,3.3,359.9,3.3,360.7L3.3,360.7z"/>
	</g>
</g>
<g id="XMLID_106_">
	<g id="XMLID_1201_">
		<path id="XMLID_1190_" class="st2" d="M4.8,360.8c0.3-0.7,0.4-1.4,0.3-2.2c-0.2-0.8-1.4-0.5-1.2,0.3c0.1,0.4,0,0.8-0.1,1.2
			C3.3,360.9,4.4,361.5,4.8,360.8L4.8,360.8z"/>
	</g>
</g>
<g id="XMLID_107_">
	<g id="XMLID_1528_">
		<path id="XMLID_1179_" class="st3" d="M-47.1,338.8c5.1-0.6,10.1-1.2,15.2-1.5c1.2-0.1,2.6-0.3,3.8-0.2c1.9,0.1,1.8,0,2.3,1.9
			c0.7,2.3,0.8,4.9,1.3,7.3c0.8,4.7,1.6,9.3,2.4,14c0.5,2.7,0.9,5.4,1.2,8.2c0.2,1.4,0.6,2.7-0.2,3.9c-0.8,1.3-1.6,1.1-3.1,1.3
			c-10.1,1.5-20.3,2.4-30.5,2.7c-1.3,0-2.5,0.4-3.4-0.7c-0.5-0.7-0.5-2.9-0.6-3.7c-0.4-2.5-0.8-4.9-1.2-7.4
			c-0.8-5.1-2.6-10.8-1.2-15.9c0.2-0.8-1-1.1-1.2-0.3c-1.3,4.3-0.1,8.6,0.6,12.9c0.9,5.3,1.8,10.6,2.6,15.9c0,0.3,0.4,0.5,0.6,0.5
			c7.3-0.1,14.7-0.5,22-1.2c3.2-0.3,6.4-0.7,9.5-1.1c2-0.3,5.9,0,7.3-1.9c1.1-1.6,0.2-4.5,0-6.3c-0.4-3.1-0.9-6.1-1.4-9.1
			c-1.3-7.3-2.5-14.6-3.8-21.9c0-0.3-0.4-0.5-0.6-0.5c-7.2,0.3-14.4,0.9-21.6,1.8C-47.9,337.7-47.9,338.9-47.1,338.8L-47.1,338.8z"
			/>
	</g>
</g>
<g id="XMLID_108_">
	<g id="XMLID_1224_">
		<path id="XMLID_51_" class="st3" d="M-61.3,349.5c2.4,1.4,5.6,1.1,7.4-1.2c1-1.2,1.5-3.1,1.8-4.6c0.5-1.8,0.2-3,2.1-4
			c1.2-0.6,2.6-0.8,3.8-1.2c0.8-0.3,0.4-1.5-0.3-1.2c-2,0.7-5.4,0.9-6.2,3.1c-0.5,1.6-0.6,3.3-1.2,4.9c-1.1,3-3.8,4.8-6.8,3
			C-61.4,347.9-62,349-61.3,349.5L-61.3,349.5z"/>
	</g>
</g>
<g id="XMLID_109_">
	<g id="XMLID_1214_">
		<path id="XMLID_47_" class="st3" d="M-58.9,343.4c1.1-1,2.1-1.9,3.2-2.9c-0.4-0.2-0.7-0.3-1.1-0.5c-0.1,2.3-0.1,4.5-0.2,6.8
			c0.3-0.2,0.5-0.4,0.8-0.6c-1.9-0.3-3.9-0.7-5.8-1c0.2,0.2,0.3,0.4,0.5,0.6c-0.1-0.7,1.5-1.7,1.9-2.1c0.7-0.6,1.4-1.2,2-1.9
			c0.6-0.6-0.3-1.5-0.9-0.9c-1,0.9-2,1.8-3,2.7c-0.7,0.6-1.5,1.2-1.4,2.2c0,0.3,0.2,0.6,0.5,0.6c1.9,0.3,3.9,0.7,5.8,1
			c0.4,0.1,0.8-0.2,0.8-0.6c0.1-2.3,0.1-4.5,0.2-6.8c0-0.6-0.7-0.8-1.1-0.5c-1.1,1-2.1,1.9-3.2,2.9C-60.4,343-59.5,343.9-58.9,343.4
			L-58.9,343.4z"/>
	</g>
</g>
<g id="XMLID_113_">
	<g id="XMLID_1202_">
		<path id="XMLID_46_" class="st3" d="M-54.4,355c4.5-0.4,9-0.7,13.5-1.1c4.6-0.4,9.2-1,13.8-0.5c0.8,0.1,0.8-1.2,0-1.3
			c-4.6-0.5-9.2,0.2-13.8,0.5c-4.5,0.4-9,0.7-13.5,1.1C-55.2,353.8-55.2,355.1-54.4,355L-54.4,355z"/>
	</g>
</g>
<g id="XMLID_120_">
	<g id="XMLID_1192_">
		<path id="XMLID_44_" class="st3" d="M-52,360c4.3-0.3,8.6-0.6,13-1c3.9-0.3,8.4-1.7,12.3-1.2c0.8,0.1,0.8-1.2,0-1.3
			c-4-0.4-8.3,0.9-12.3,1.2c-4.3,0.4-8.6,0.7-13,1C-52.8,358.7-52.8,360-52,360L-52,360z"/>
	</g>
</g>
<g id="XMLID_127_">
	<g id="XMLID_1184_">
		<path id="XMLID_43_" class="st3" d="M-51.3,365.4c8.1-1.2,16.3-1.5,24.5-2.2c0.8-0.1,0.8-1.3,0-1.3c-8.3,0.6-16.6,1-24.8,2.2
			C-52.4,364.3-52.1,365.5-51.3,365.4L-51.3,365.4z"/>
	</g>
</g>
<g id="XMLID_134_">
	<g id="XMLID_1174_">
		<path id="XMLID_40_" class="st3" d="M-51.5,371.4c1.8,0,3.6,0,5.3,0c0.8,0,0.8-1.3,0-1.3c-1.8,0-3.6,0-5.3,0
			C-52.3,370.1-52.3,371.4-51.5,371.4L-51.5,371.4z"/>
	</g>
</g>
<g id="XMLID_141_">
	<g id="XMLID_1167_">
		<path id="XMLID_57_" d="M-8.5,458.2c7.4-5.5,14.3-11.7,21.1-17.9c3.5-3.2,6.9-6.3,10.4-9.4c3.8-3.3,7.7-7.3,12.3-9.2
			c0.8-0.3,0.4-1.5-0.3-1.2c-3.7,1.5-6.8,4.3-9.8,6.8c-3.7,3.1-7.3,6.4-10.9,9.7c-7.6,6.9-15.1,14-23.4,20.1
			C-9.8,457.6-9.2,458.7-8.5,458.2L-8.5,458.2z"/>
	</g>
</g>
<g id="XMLID_148_">
	<g id="XMLID_1158_">
		<path id="XMLID_58_" d="M-9.6,457.1c-9.2,0.5-18.5,0-27.7-0.1c-9.4-0.1-18.9-0.1-28.3-0.1c-18.8,0-37.7-0.4-56.5,0.7
			c-0.8,0-0.8,1.3,0,1.3c18.8-1.1,37.7-0.6,56.5-0.7c9.2,0,18.4,0,27.7,0.1c9.4,0.1,18.9,0.6,28.4,0.1
			C-8.8,458.4-8.8,457.1-9.6,457.1L-9.6,457.1z"/>
	</g>
</g>
<g id="XMLID_35_">
	<g id="XMLID_1150_">
		<path id="XMLID_59_" d="M484.3,385.9c0.4-3,0.5-5.9,0.4-8.9c0-0.8-1.3-0.8-1.3,0c0.1,3,0,5.9-0.4,8.9
			C482.9,386.8,484.2,386.7,484.3,385.9L484.3,385.9z"/>
	</g>
</g>
<g id="XMLID_39_">
	<g id="XMLID_178_">
		<path id="XMLID_61_" d="M478.2,382.1c3.7,0.1,7.7,0.7,11.3,0c0.8-0.1,0.5-1.4-0.3-1.2c-3.5,0.6-7.4,0-11-0.1
			C477.4,380.8,477.4,382.1,478.2,382.1L478.2,382.1z"/>
	</g>
</g>
<rect id="XMLID_133_" x="429" y="387.5" class="st4" width="48" height="24"/>
<line id="XMLID_147_" class="st4" x1="435.6" y1="411.9" x2="435.5" y2="400.1"/>
<line id="XMLID_149_" class="st4" x1="442.4" y1="411.9" x2="442.3" y2="400.1"/>
<line id="XMLID_155_" class="st4" x1="449.4" y1="411.4" x2="449.1" y2="387.3"/>
<line id="XMLID_162_" class="st4" x1="456.3" y1="411.9" x2="456.6" y2="400.1"/>
<line id="XMLID_164_" class="st4" x1="463.1" y1="411.9" x2="463.6" y2="400.1"/>
<line id="XMLID_169_" class="st4" x1="470" y1="411.4" x2="469.9" y2="400.1"/>
<line id="XMLID_175_" class="st5" x1="469.9" y1="400.1" x2="470" y2="387.3"/>
<line id="XMLID_176_" class="st5" x1="463.6" y1="400.1" x2="463.3" y2="387.3"/>
<line id="XMLID_196_" class="st5" x1="456.6" y1="400.1" x2="456.3" y2="387.3"/>
<line id="XMLID_197_" class="st5" x1="441" y1="400" x2="441" y2="387"/>
<line id="XMLID_198_" class="st5" x1="434" y1="400" x2="434" y2="387"/>
<line id="XMLID_203_" class="st0" x1="398.6" y1="355" x2="430.1" y2="381.5"/>
<line id="XMLID_204_" class="st0" x1="399.7" y1="332.8" x2="430.8" y2="332.9"/>
<g id="XMLID_205_">
	<g id="XMLID_1137_">
		<path id="XMLID_67_" d="M451.2,341.1c3.5-3.3,7.1-6.6,10.7-9.7c0.8-0.6,1.9-1.9,2.8-2.3c2.5-1.2,3.2-0.1,4.7,1.1
			c0.6,0.5,1.8,1.3,2.3,2c1.3,2-0.1,2.5-1.3,3.6c-1.8,1.6-3.6,3.1-5.4,4.7c-1.7,1.5-3.5,3.6-5.4,4.8c-2.4,1.5-2.6,0.6-4.3-1.2
			c-1.3-1.4-2.7-2.5-4.3-3.5c-0.7-0.5-1.3,0.6-0.6,1.1c1.3,0.9,2.6,1.9,3.7,3c0.9,0.9,1.7,2.5,2.8,3.2c0.8,0.5,1,0.4,1.8-0.1
			c2.6-1.5,5-4.4,7.2-6.4c2.7-2.4,5.4-4.7,8.1-7.1c0.2-0.1,0.2-0.4,0.2-0.6c-0.8-2.3-2.8-3.6-4.6-5.1c-1.2-1-2.2-2.5-3.9-1.8
			c-2.5,1-4.8,3.9-6.8,5.7c-2.9,2.5-5.7,5.1-8.4,7.8C449.7,340.7,450.6,341.6,451.2,341.1L451.2,341.1z"/>
	</g>
</g>
<g id="XMLID_210_">
	<g id="XMLID_1131_">
		<path id="XMLID_68_" d="M447.5,346.9c-0.2,0.7-0.4,1.4-0.6,2.1c-0.1,0.5-0.4,1.1,0,1.5c0.6,0.9,1.9,0.3,2.6-0.2
			c0.9-0.5,2-1.3,1.3-2.4c-0.6-0.9-1.6-1.5-2.6-1.8c-0.8-0.2-1.1,1-0.3,1.2c0.7,0.2,1.9,0.7,2,1.5c0-0.2,0-0.3,0.1-0.5
			c-0.2,0.4-0.7,0.6-1,0.8c-0.2,0.1-0.3,0.2-0.5,0.3c-0.1,0-0.5,0.1-0.6,0.2c0.1,0.1,0.1,0.1,0.2,0.2c0-0.1,0.1-0.3,0.1-0.4
			c0.1-0.2,0.1-0.4,0.2-0.7c0.1-0.5,0.3-1.1,0.4-1.6C449,346.4,447.7,346.1,447.5,346.9L447.5,346.9z"/>
	</g>
</g>
<g id="XMLID_211_">
	<g id="XMLID_1125_">
		<path id="XMLID_69_" d="M468.6,326.4c1.1,0.7,2,2.4,3,3.3c1,0.9,2,2,3.1,2.7c1.7,1.1,3.7-1.1,4.8-2.3c1.4-1.5-0.3-2.2-1.2-3.5
			c-1.3-1.7-3.2-4-5.3-4.8c-0.2-0.1-0.5,0-0.6,0.2c-1.1,1.3-2.7,1.7-3.9,2.9c-0.6,0.6,0.3,1.5,0.9,0.9c0.8-0.7,1.7-1,2.5-1.5
			c0.9-0.6,0.8-1.1,1.9-0.4c1.7,1.1,3.2,2.9,4.3,4.6c0.5,0.8,0.6,0.1,0.2,1c-0.2,0.4-1.3,1.2-1.7,1.4c-0.9,0.4-1.1,0.4-2-0.2
			c-0.5-0.3-0.9-0.8-1.4-1.2c-1.4-1.3-2.4-3.2-4.1-4.2C468.5,324.9,467.9,326,468.6,326.4L468.6,326.4z"/>
	</g>
</g>
<g id="XMLID_212_">
	<g id="XMLID_1119_">
		<path id="XMLID_70_" d="M493.4,365c0.8,0,0.8-1.3,0-1.3C492.6,363.7,492.6,365,493.4,365L493.4,365z"/>
	</g>
</g>
<g id="XMLID_223_">
	<g id="XMLID_1112_">
		<path id="XMLID_75_" d="M443.7,337.8c-1.5-0.8-3.1-1-4.7-0.8c-1.2,0.2-3.4,0.7-3.6,2.2c-0.4,2.6,4.2,4.6,6.2,3.7
			c1-0.4,2.5-1.3,2.3-2.6c-0.2-1.6-1.1-2.6-2.6-3.1c-1.4-0.5-3.2-0.6-4.5,0.4c-1.1,0.8-1.3,2-0.3,2.9c0.9,0.9,2.4,1.7,3.7,1.5
			c1.1-0.2,2.9-1,2.8-2.3c-0.2-2.5-5.8-3.5-5.4-0.5c0.3,2.2,4.8,2.5,3.9-0.1c-0.3-1-1.5-2.1-2.6-2c-1.2,0.2-1.6,1.6-0.9,2.6
			c0.5,0.8,2.2,1.6,3.1,1c1.1-0.9-0.1-2-1-2.3s-2.6,0.2-2.1,1.5c0.4,1,1.7,0.5,1.8-0.4c0-0.2-0.1-0.4-0.3-0.6
			c-1-0.7-2.2-0.7-2.9,0.3c-0.3,0.3,0,0.8,0.4,0.9c1.2,0.4,2.5,1,3.7,1c1,0,1.7-0.7,2.4-1.5c0.5-0.6-0.4-1.5-0.9-0.9
			c-0.7,0.9-1.7,1.2-2.8,0.8c-0.7-0.2-1.4-0.4-2.1-0.6c0.1,0.3,0.3,0.6,0.4,0.9c0.4,0,0.8,0.1,1.2,0.1c-0.1-0.2-0.2-0.4-0.3-0.6
			c0,0.1,0,0.2,0,0.2c0.1-0.2,0.2-0.4,0.3-0.6c0.4,0.5,0.8,0.6,1.2,0.4c-0.2-0.1-0.4-0.2-0.5-0.2c0.4-0.3,0.6-0.3,0.8,0
			c0.3,0.4,0,0.4-1.1,0c0.6-0.7,1.1-0.8,1.6-0.3c0.3,0.1,0.6,0.3,0.8,0.6c0.2,0.8-1.3,1.3-1.8,1.3c-1.2,0-3.4-1.5-1.5-2.5
			c1-0.5,2.9-0.1,3.6,0.6c1.1,1,0.6,2.2-0.7,2.8c-1.3,0.5-2.5-0.2-3.5-0.9c-0.5-0.2-0.7-0.6-0.5-1.2c-0.2-0.6,0-1,0.7-1
			c0.6-0.2,1.2-0.4,1.9-0.4c1.2-0.1,2.4,0.1,3.4,0.7C443.8,339.2,444.4,338.1,443.7,337.8L443.7,337.8z"/>
	</g>
</g>
<g id="XMLID_230_">
	<g id="XMLID_1105_">
		<path id="XMLID_76_" d="M443.9,339.4c0.2-4.2,0.8-8.4,0.5-12.6c-0.1-0.8-1.3-0.8-1.3,0c0.3,4.2-0.3,8.4-0.5,12.6
			C442.6,340.2,443.8,340.2,443.9,339.4L443.9,339.4z"/>
	</g>
</g>
<g id="XMLID_237_">
	<g id="XMLID_1098_">
		<path id="XMLID_77_" d="M365.8,345.5c-2.9-0.4-9.3-0.9-10.7,2.5c-1.4,3.2,1.9,6.4,4.9,6.7c1.9,0.2,3.8-0.4,5.3-1.4
			c1.1-0.7,3-2.2,3.1-3.6s-1.6-2.5-2.7-3c-1.7-0.8-3.6-0.8-5.3-0.1c-1.2,0.5-3,1.7-3.2,3.1c-0.3,1.6,1.1,3.1,2.5,3.8
			c1.7,0.8,3.6,0.2,5.3-0.3c1.5-0.4,3-1.1,2.8-2.9c-0.3-3-4.7-5.1-6.8-2.5c-2.1,2.5,1.2,4.8,3.7,3.9c3.7-1.3-0.7-5.8-3.4-3.6
			c-2.8,2.3,1.4,6.2,3.7,2.9c0.4-0.6,0.1-1.4-0.5-1.7c-1.3-0.9-3.2-1.5-4.3,0.1c-0.7,1-0.5,2.4,0.6,3c1,0.5,2.4,0.1,2.6-1.1
			c0.3-1.5-1.5-2.3-2.6-2.6c-0.9-0.2-1.8,0.6-1.6,1.6c0.3,0.9,0.5,1.2,1.3,1.6c1.4,0.9,2.7-1.3,1.3-2.2l-0.1-0.1
			c-0.5,0.5-1,1-1.6,1.6c0.4,0,0.7,0.1,1,0.4c0-0.4,0-0.9,0-1.3c0.7,0.3,1.4,0.7,2.1,1.2c-0.2-0.6-0.3-1.2-0.5-1.7
			c0.2-0.2,1.5-0.5,0.4-0.4c0.7-0.2,1.2,0.1,1.4,0.7c0.6,0.4,0.7,0.7,0.1,0.7c-0.7,0.7-4.1,1-4.5,0.2c-1.5-2.6,7-3,4.7-0.3
			c-1.6,1.9-6.1,2.9-7.2,0c-1.2-3,6-2.6,7.5-2.4C366.7,348.2,367.4,345.7,365.8,345.5L365.8,345.5z"/>
	</g>
</g>
<g id="XMLID_244_">
	<g id="XMLID_1091_">
		<path id="XMLID_78_" d="M366,329.3c-1,7-1.8,14-0.6,21.1c0.4,2.4,4.1,1.4,3.7-1c-1.1-6.3-0.3-12.7,0.6-19
			C370.1,327.9,366.4,326.8,366,329.3L366,329.3z"/>
	</g>
</g>
<g id="XMLID_246_">
	<g id="XMLID_1084_">
		<path id="XMLID_79_" d="M384.8,339.5c-2.9-0.4-9.3-0.9-10.7,2.5c-1.4,3.2,1.9,6.4,4.9,6.7c1.9,0.2,3.8-0.4,5.3-1.4
			c1.1-0.7,3-2.2,3.1-3.6s-1.6-2.5-2.7-3c-1.7-0.8-3.6-0.8-5.3-0.1c-1.2,0.5-3,1.7-3.2,3.1c-0.3,1.6,1.1,3.1,2.5,3.8
			c1.7,0.8,3.6,0.2,5.3-0.3c1.5-0.4,3-1.1,2.8-2.9c-0.3-3-4.7-5.1-6.8-2.5c-2.1,2.5,1.2,4.8,3.7,3.9c3.7-1.3-0.7-5.8-3.4-3.6
			c-2.8,2.3,1.4,6.2,3.7,2.9c0.4-0.6,0.1-1.4-0.5-1.7c-1.3-0.9-3.2-1.5-4.3,0.1c-0.7,1-0.5,2.4,0.6,3c1,0.5,2.4,0.1,2.6-1.1
			c0.3-1.5-1.5-2.3-2.6-2.6c-0.9-0.2-1.8,0.6-1.6,1.6c0.3,0.9,0.5,1.2,1.3,1.6c1.4,0.9,2.7-1.3,1.3-2.2l-0.1-0.1
			c-0.5,0.5-1,1-1.6,1.6c0.4,0,0.7,0.1,1,0.4c0-0.4,0-0.9,0-1.3c0.7,0.3,1.4,0.7,2.1,1.2c-0.2-0.6-0.3-1.2-0.5-1.7
			c0.2-0.2,1.5-0.5,0.4-0.4c0.7-0.2,1.2,0.1,1.4,0.7c0.6,0.4,0.7,0.7,0.1,0.7c-0.7,0.7-4.1,1-4.5,0.2c-1.5-2.6,7-3,4.7-0.3
			c-1.6,1.9-6.1,2.9-7.2,0c-1.2-3,6-2.6,7.5-2.4C385.7,342.2,386.4,339.7,384.8,339.5L384.8,339.5z"/>
	</g>
</g>
<g id="XMLID_253_">
	<g id="XMLID_1077_">
		<path id="XMLID_80_" d="M367.6,334.3c1.6,0,1.6-2.6,0-2.6C365.9,331.7,365.9,334.3,367.6,334.3L367.6,334.3z"/>
	</g>
</g>
<g id="XMLID_260_">
	<g id="XMLID_1070_">
		<path id="XMLID_81_" d="M385,322.3c-1,7-1.8,14-0.6,21.1c0.4,2.4,4.1,1.4,3.7-1c-1.1-6.3-0.3-12.7,0.6-19
			C389.1,320.9,385.4,319.8,385,322.3L385,322.3z"/>
	</g>
</g>
<g id="XMLID_267_">
	<g id="XMLID_1063_">
		<path id="XMLID_82_" d="M367.9,329.7c3.4-1.3,6.8-2.4,10.3-3.4c1.5-0.5,3.1-0.9,4.6-1.3c1.6-0.4,3.2-0.3,4.7-0.8
			c2.4-0.7,1.3-4.4-1-3.7c-1.3,0.4-2.8,0.3-4.1,0.6c-1.8,0.4-3.5,0.9-5.2,1.4c-3.5,1-6.9,2.2-10.3,3.4
			C364.6,326.9,365.6,330.6,367.9,329.7L367.9,329.7z"/>
	</g>
</g>
<g id="XMLID_274_">
	<g id="XMLID_1056_">
		<path id="XMLID_83_" d="M369.7,336.8c5.3-1.7,10.5-3.7,15.6-5.8c2.2-0.9,1.3-4.6-1-3.7c-5.1,2.1-10.4,4.1-15.6,5.8
			C366.3,333.8,367.3,337.5,369.7,336.8L369.7,336.8z"/>
	</g>
</g>
<g id="XMLID_281_">
	<g id="XMLID_1049_">
		<path id="XMLID_84_" d="M369.8,334c5.4-0.5,9.9-3.9,15.2-5.2c2.4-0.6,1.4-4.3-1-3.7c-4.8,1.2-9.2,4.6-14.1,5
			C367.4,330.4,367.4,334.2,369.8,334L369.8,334z"/>
	</g>
</g>
<g id="XMLID_288_">
	<g id="XMLID_1041_">
		<path id="XMLID_85_" d="M370.6,331.6c4.7-1.8,9.4-3.6,14.1-5.3c2.3-0.8,1.3-4.5-1-3.7c-4.7,1.7-9.5,3.5-14.1,5.3
			C367.3,328.8,368.3,332.5,370.6,331.6L370.6,331.6z"/>
	</g>
</g>
<line id="XMLID_300_" class="st0" x1="357.3" y1="319" x2="321.6" y2="288.4"/>
<path id="XMLID_321_" class="st0" d="M230.5,347.3c0-8.9,0-17.8-0.1-26.7c0-5.6,0-11.2,1.4-16.6c1.4-5.4,4.4-10.6,9.2-13.4
	c4.4-2.6,9.7-3,14.8-3.2c28.4-1.4,56.9-1,85.2,1c5.2,0.4,10.4,0.8,15.6,0.6c4.1-0.2,8.1-0.7,12.2-1.1c9.2-0.8,18.5-0.6,27.7-0.3"/>
<line id="XMLID_324_" class="st0" x1="321.6" y1="285.3" x2="357.3" y2="254.7"/>
<path id="XMLID_338_" class="st0" d="M217.5,347.8c-0.1-22.4-0.3-44.9-0.4-67.3c0-3.1,0-6.2-0.1-9.2c-0.1-13.5-0.2-27.1-0.3-40.6
	c0-5.7-0.1-11.4,0.5-17.1c0.6-5.7,1.8-11.4,0.6-17"/>
<g id="XMLID_345_">
	<g id="XMLID_1005_">
		<path id="XMLID_90_" d="M214.6,295.9c-3.4-2.9-6.1-6.4-9.3-9.5c-3-2.9-6.3-5.5-9.8-7.8c-0.7-0.5-1.3,0.6-0.6,1.1
			c3.7,2.5,7.2,5.2,10.3,8.4c2.9,2.9,5.4,6.1,8.5,8.7C214.3,297.3,215.2,296.4,214.6,295.9L214.6,295.9z"/>
	</g>
</g>
<path id="XMLID_352_" class="st0" d="M217.9,280.5c1.1-6.4,6.7-11.2,12.9-13.2c6.1-2,12.8-1.8,19.2-1.4c16.3,0.9,32.8,2.2,48.8-1.2
	c5.4-1.1,11.2-3.2,13.9-8.1c1-1.9,1.5-4.1,1.9-6.2c0.6-3.1,1.3-6.2,1.9-9.3c0.4-2.1,0.9-4.3,1-6.4c0.3-3.1,0-6.2-0.2-9.4
	c-0.6-9.1-0.9-18.2-1.2-27.3c-0.3-8.3-0.6-16.6-0.8-24.9"/>
<path id="XMLID_366_" class="st0" d="M313.5,243.9c-3.6-4.6-7.9-8.6-12.8-11.8"/>
<g id="XMLID_373_">
	<g id="XMLID_979_">
		<path id="XMLID_94_" d="M218.1,253.9c2.7-2,4.8-4.7,7.2-7c3.1-2.8,6.5-5.1,10.3-6.9c0.7-0.4,0.1-1.5-0.6-1.1
			c-3.2,1.5-6.2,3.4-8.9,5.7c-3.1,2.6-5.4,5.9-8.6,8.3C216.8,253.3,217.5,254.4,218.1,253.9L218.1,253.9z"/>
	</g>
</g>
<g id="XMLID_387_">
	<g id="XMLID_954_">
		<path id="XMLID_96_" d="M342.7,304.3c0.8,0,0.8-1.3,0-1.3C341.9,303,341.9,304.3,342.7,304.3L342.7,304.3z"/>
	</g>
</g>
<path id="XMLID_450_" class="st0" d="M205.8,348.8c-0.1-8.9-0.3-17.9-0.4-26.8c-0.1-7.5-0.6-15.8-6.1-20.9c-4.5-4.2-11.2-5-17.3-5.4
	c-12.3-1-24.6-1.7-36.9-2.2c-7.1-0.3-15.4-1.1-19.4-7c-1.9-2.7-2.5-6.1-2.9-9.4c-0.7-5.3-1.1-10.8-0.3-16.1"/>
<path id="XMLID_457_" class="st0" d="M121.2,261.8c-2.4,2.7-5.1,5-8,7"/>
<path id="XMLID_464_" class="st0" d="M122.7,261.6c1.3,1.4,2.6,2.9,4.3,3.7c1.9,1,4.3,1.4,5.2,3.3"/>
<path id="XMLID_476_" class="st0" d="M88.3,308.5c21.4,1.1,42.8,2.2,64.2,0.7c2.7-0.2,5.4-0.4,8.2-0.5c6.6-0.2,13.3,0.6,19.7,2.4
	c1.3,0.4,2.7,0.8,3.8,1.6c1.4,1.1,2.3,2.8,3,4.4c4.6,10.5,5.7,22.4,3.1,33.5"/>
<path id="XMLID_497_" class="st0" d="M44.1,279.9c-10.2-8.1-20-16.6-29.5-25.6"/>
<g id="XMLID_539_">
	<g id="XMLID_802_">
		<path id="XMLID_126_" d="M-27.9,278.4c-0.1,3.7-0.2,7.4-0.2,11.1c0,0.8,1.3,0.8,1.3,0c0.1-3.7,0.2-7.4,0.2-11.1
			C-26.6,277.6-27.9,277.6-27.9,278.4L-27.9,278.4z"/>
	</g>
</g>
<g id="XMLID_546_">
	<g id="XMLID_796_">
		<path id="XMLID_128_" d="M-32.6,284.8c3.9,0.5,7.8,0.4,11.7-0.1c0.8-0.1,0.5-1.3-0.3-1.2c-3.8,0.6-7.6,0.6-11.4,0.1
			C-33.4,283.5-33.4,284.7-32.6,284.8L-32.6,284.8z"/>
	</g>
</g>
<path id="XMLID_553_" class="st0" d="M97.6,210.8c-6.8-4.8-12.7-10.8-17.5-17.6"/>
<path id="XMLID_560_" class="st0" d="M123.8,198.3c0.1-12,0.1-24,0-35.9"/>
<path id="XMLID_567_" class="st0" d="M147.3,211.3c6-4.4,11.6-9.3,17-14.4"/>
<g id="XMLID_574_">
	<g id="XMLID_1209_">
		<path id="XMLID_1147_" class="st2" d="M76.5,147.5c-0.1,2.9-0.3,5.8-0.5,8.7c-0.1,0.8,1.2,0.8,1.3,0c0.2-2.9,0.4-5.8,0.5-8.7
			C77.8,146.7,76.5,146.7,76.5,147.5L76.5,147.5z"/>
	</g>
</g>
<g id="XMLID_581_">
	<g id="XMLID_1165_">
		<path id="XMLID_1110_" class="st2" d="M73.8,152.3c2.5,0.5,5,0.8,7.5,1c0.8,0.1,0.8-1.2,0-1.3c-2.4-0.2-4.8-0.6-7.1-1
			C73.3,150.9,73,152.1,73.8,152.3L73.8,152.3z"/>
	</g>
</g>
<g id="XMLID_616_">
	<g id="XMLID_688_">
		<path id="XMLID_63_" class="st1" d="M427.2,249.8c-1.4-1.7-2.2-3.7-0.7-5.6c1.3-1.5,3.3-1.9,5.2-2c0.8,0,0.8-1.3,0-1.3
			c-2.6,0.2-5.3,0.8-6.7,3.2s-0.3,4.6,1.3,6.6C426.8,251.4,427.7,250.5,427.2,249.8L427.2,249.8z"/>
	</g>
</g>
<g id="XMLID_623_">
	<g id="XMLID_677_">
		<path id="XMLID_86_" class="st1" d="M432.6,240.7c0.5-2,1.9-3.9,4.1-4.2c2.1-0.2,4,1.2,4.4,3.2c0.2,0.8,1.4,0.5,1.2-0.3
			c-0.5-2.5-2.9-4.4-5.5-4.2c-2.8,0.2-4.9,2.5-5.5,5.2C431.1,241.2,432.4,241.5,432.6,240.7L432.6,240.7z"/>
	</g>
</g>
<g id="XMLID_630_">
	<g id="XMLID_669_">
		<path id="XMLID_87_" class="st1" d="M443.4,238.7c1.9-2.3,6.6,1.3,6.9,3.4c0.1,0.8,1.4,0.5,1.2-0.3c-0.5-3.1-6.5-7.2-9.1-4
			C442,238.5,442.9,239.4,443.4,238.7L443.4,238.7z"/>
	</g>
</g>
<g id="XMLID_637_">
	<g id="XMLID_661_">
		<path id="XMLID_88_" class="st1" d="M452.2,242c3.2,0.9,10.8,6.7,3,8.3c-2.6,0.5-6-0.1-8.7-0.1c-6.6-0.1-13.2-0.3-19.8-1.3
			c-0.8-0.1-1.1,1.1-0.3,1.2c5.2,0.8,10.5,1.2,15.8,1.3c2.8,0.1,5.6,0.1,8.4,0.1c2.1,0,4.4,0.4,6.5,0c2.5-0.5,3.5-2.6,2.7-4.9
			c-1-3.1-4.2-5-7.2-5.8C451.8,240.6,451.4,241.8,452.2,242L452.2,242z"/>
	</g>
</g>
<g id="XMLID_644_">
	<g id="XMLID_653_">
		<path id="XMLID_89_" class="st1" d="M463.2,228.7c0.6-5.1,7.2-7.5,11.6-7.7c0.8,0,0.8-1.3,0-1.3c-5.2,0.3-12.1,3.1-12.9,9
			C461.8,229.5,463.1,229.5,463.2,228.7L463.2,228.7z"/>
	</g>
</g>
<g id="XMLID_651_">
	<g id="XMLID_405_">
		<path id="XMLID_91_" class="st1" d="M473.6,219.5c1.4-3,3.9-5.4,7.1-6.2c4.1-1,7,0.9,9,4.3c0.4,0.7,1.5,0.1,1.1-0.6
			c-2.1-3.6-5-5.7-9.4-5.1c-4,0.6-7.3,3.4-9,6.9C472.1,219.6,473.2,220.2,473.6,219.5L473.6,219.5z"/>
	</g>
</g>
<g id="XMLID_658_">
	<g id="XMLID_396_">
		<path id="XMLID_92_" class="st1" d="M491.4,217.2c3.1-1.3,6.3-2.3,9.5-0.6c2.8,1.5,4.4,4.2,4.7,7.3c0.1,0.8,1.4,0.8,1.3,0
			c-0.3-3.6-2.1-6.7-5.4-8.4c-3.6-1.9-7.2-0.9-10.8,0.6C490,216.4,490.7,217.5,491.4,217.2L491.4,217.2z"/>
	</g>
</g>
<g id="XMLID_665_">
	<g id="XMLID_363_">
		<path id="XMLID_93_" class="st1" d="M507.3,223.5c5.7-0.9,16.1,5.6,11.7,12.4c-3.7,5.6-11.7,2.4-16.9,1.9
			c-2.6-0.2-4.8,0.5-7.3,0.9c-2.8,0.5-5.8,0.3-8.6,0.3c-6-0.1-12-0.5-17.7-2.8c-0.8-0.3-1.1,0.9-0.3,1.2c7.4,3,15.7,3.1,23.6,2.9
			c4.3-0.2,8-1.6,12.4-0.9c3.4,0.6,6.8,1.5,10.2,0.8c5.1-1,8.3-5.6,6.1-10.6c-2.2-5.1-8-8.1-13.4-7.3
			C506.2,222.4,506.5,223.7,507.3,223.5L507.3,223.5z"/>
	</g>
</g>
<g id="XMLID_672_">
	<g id="XMLID_156_">
		<path id="XMLID_95_" class="st1" d="M463.2,231c-0.3,3.1,1.9,6,4.9,6.7c0.8,0.2,1.1-1,0.3-1.2c-2.5-0.6-4.2-2.9-3.9-5.4
			C464.5,230.1,463.2,230.1,463.2,231L463.2,231z"/>
	</g>
</g>
<g id="XMLID_679_">
	<g id="XMLID_1243_">
		<path id="XMLID_617_" class="st2" d="M363.2,235.4c0,4.5-0.3,9.6,2.4,13.5c1.8,2.6,5,4.2,8.2,3.3c3.6-1,4.2-4.6,5.4-7.6
			c1.2-2.7,5-5.3,7.5-2.9c1.7,1.6,2,4.7,3.2,6.7c2.4,3.9,5,3.9,9.2,2.4c3.7-1.3,4.7-6.3,5.1-9.8c0.4-3.2,0.9-8-1.6-10.6
			c-2.9-3-8.9-1.9-12.6-2c-6.7-0.1-13.4-0.4-20.1,0.2C366.5,229,362.5,231.5,363.2,235.4c0.2,0.7,1.4,0.4,1.3-0.4
			c-1.2-6.8,12.7-5.4,16.5-5.4c5,0,10,0.1,15,0.2c4.1,0.1,6.9,1.1,7.2,5.7c0.2,2.4,0,5-0.5,7.4c-0.7,3.5-1.9,6.3-5.7,7.2
			c-4.2,1-5.8-1.3-7.2-5c-1-2.7-1-5.5-4.3-5.6c-2.7-0.1-5.2,0.7-6.7,3.1c-0.8,1.3-1.1,2.8-1.7,4.1c-1.3,3.4-4.3,5.6-8,3.7
			c-5.2-2.8-4.6-10.1-4.7-15C364.4,234.6,363.1,234.6,363.2,235.4L363.2,235.4z"/>
	</g>
</g>
<g id="XMLID_686_">
	<g id="XMLID_649_">
		<path id="XMLID_607_" class="st2" d="M374.7,234.9c-1,0.3-1.7,1.7-1.4,2.7c0.3,1.1,1.5,1.8,2.6,1.4c1-0.4,2-1.3,1.8-2.5
			s-1.3-1.9-2.5-1.9c-0.8,0-0.8,1.2,0,1.3c0.5,0,1.1,0.2,1.2,0.7c0.1,0.5-0.3,0.8-0.6,1c-0.4,0.3-1,0.3-1.2-0.2
			c-0.2-0.4,0.1-1.2,0.5-1.3C375.8,235.9,375.4,234.7,374.7,234.9L374.7,234.9z"/>
	</g>
</g>
<g id="XMLID_693_">
	<g id="XMLID_640_">
		<path id="XMLID_592_" class="st2" d="M371.5,238.2c-1.2,0.1-2.2,1.7-1.7,2.8c0.5,1.2,2.2,1.3,3.2,0.9c1.2-0.5,1.7-1.8,1-2.9
			c-0.6-1-2.2-1.7-3-0.6c-0.5,0.7,0.6,1.3,1.1,0.6c-0.1,0.1-0.1,0.1,0.1,0.1c0.1,0,0.2,0.1,0.3,0.2c0.2,0.1,0.3,0.2,0.4,0.4
			c0.2,0.5,0,0.9-0.5,1.1c-0.4,0.1-1,0.1-1.3-0.1c-0.3-0.2-0.1-1.2,0.4-1.2C372.3,239.4,372.3,238.1,371.5,238.2L371.5,238.2z"/>
	</g>
</g>
<g id="XMLID_700_">
	<g id="XMLID_628_">
		<path id="XMLID_583_" class="st2" d="M367.7,234.9c-1.3,0.4-1.9,1.9-1,3c0.9,1.2,2.3,1.4,3.5,0.6c1.1-0.7,1.2-2.1,0.3-3
			c-0.7-0.7-2.5-1.4-3.2-0.3c-0.4,0.7,0.7,1.3,1.1,0.6c-0.1,0.1-0.1,0.1,0.1,0.1c0.1,0,0.3,0,0.4,0.1c0.2,0.1,0.4,0.1,0.6,0.2
			c0.5,0.4,0.5,0.9,0,1.2s-1,0.4-1.5,0s-0.6-1.1,0.1-1.3C368.8,235.9,368.5,234.7,367.7,234.9L367.7,234.9z"/>
	</g>
</g>
<g id="XMLID_707_">
	<g id="XMLID_619_">
		<path id="XMLID_571_" class="st2" d="M371.7,231.9c-2.7-0.1-2.2,4.5,0.5,4c1-0.2,2.2-1,2.2-2.1c0-1.3-1.1-2-2.3-2.1
			c-0.8-0.1-0.8,1.2,0,1.3c0.4,0,1,0.3,1,0.8s-0.5,0.8-0.9,0.9c-0.5,0.2-0.8,0.1-1-0.4s-0.1-1,0.5-1
			C372.5,233.2,372.5,231.9,371.7,231.9L371.7,231.9z"/>
	</g>
</g>
<g id="XMLID_714_">
	<g id="XMLID_611_">
		<path id="XMLID_562_" class="st2" d="M395.6,234.4c-0.1,2.4-0.3,4.8-0.9,7.2c-0.2,0.8,1,1.1,1.2,0.3c0.7-2.5,0.8-5,0.9-7.5
			C397,233.5,395.7,233.6,395.6,234.4L395.6,234.4z"/>
	</g>
</g>
<g id="XMLID_721_">
	<g id="XMLID_603_">
		<path id="XMLID_159_" class="st2" d="M392.9,238c2.2,0.2,4.5,0.3,6.7,0.1c0.8-0.1,0.8-1.3,0-1.3c-2.2,0.2-4.5,0.2-6.7-0.1
			C392.1,236.6,392.1,237.9,392.9,238L392.9,238z"/>
	</g>
</g>
<path id="XMLID_367_" class="st0" d="M484,298.3c0,2.9-2.3,5.2-5.2,5.2h-31.6c-2.9,0-5.2-2.3-5.2-5.2v-20.6c0-2.9,2.3-5.2,5.2-5.2
	h31.6c2.9,0,5.2,2.3,5.2,5.2V298.3z"/>
<rect id="XMLID_368_" x="445" y="279.5" class="st0" width="36" height="17"/>
<rect id="XMLID_369_" x="445" y="297.5" class="st0" width="4" height="4"/>
<rect id="XMLID_370_" x="453" y="297.5" class="st0" width="4" height="4"/>
<rect id="XMLID_371_" x="476" y="297.5" class="st0" width="4" height="4"/>
<rect id="XMLID_723_" x="469" y="297.5" class="st0" width="4" height="4"/>
<rect id="XMLID_724_" x="461" y="297.5" class="st0" width="4" height="4"/>
<rect id="XMLID_725_" x="445" y="273.5" class="st0" width="4" height="4"/>
<rect id="XMLID_726_" x="476" y="273.5" class="st0" width="4" height="4"/>
<rect id="XMLID_731_" x="469" y="273.5" class="st0" width="4" height="4"/>
<rect id="XMLID_732_" x="460" y="273.5" class="st0" width="4" height="4"/>
<rect id="XMLID_733_" x="453" y="273.5" class="st0" width="4" height="4"/>
<line id="XMLID_734_" class="st4" x1="368.4" y1="151" x2="400" y2="123.4"/>
<line id="XMLID_735_" class="st4" x1="400" y1="123.4" x2="431.4" y2="149.1"/>
<line id="XMLID_739_" class="st4" x1="378" y1="169.1" x2="378.1" y2="151"/>
<line id="XMLID_740_" class="st4" x1="378.1" y1="151" x2="400" y2="130.9"/>
<line id="XMLID_741_" class="st4" x1="423.5" y1="151" x2="401.1" y2="130.9"/>
<line id="XMLID_742_" class="st4" x1="423" y1="151" x2="423" y2="169"/>
<g id="XMLID_743_">
	<g id="XMLID_568_">
		<path id="XMLID_600_" class="st3" d="M378.9,170.1c3,1.2,6.2,0.9,9.4,0.9c1.4,0,3.5,0.5,4.5-0.6c0.7-0.9,0.4-3.1,0.4-4.2
			c0-1.9-0.2-3.7-0.4-5.6c-0.1-1.1-0.4-2.4-0.3-3.5c0.1-1.4,0.8-3.8,1.9-4.7c1.5-1.2,5.6-0.7,7.4-0.6c1.8,0.1,5.3-0.1,5.7,1.9
			c0.4,1.6-0.4,4.1-0.3,5.8c0.1,1.6,0.3,3.1,0.6,4.7c0.4,1.8,0.2,3.7,0.4,5.5c0.3,1.7,1.2,2.5,2.8,2.5c1.9,0,3.9-0.4,5.9-0.4
			c1.8,0,3.3-0.1,5.1-0.6c1-0.3,0.6-1.9-0.4-1.5c-2.5,0.8-4.9,0.4-7.4,0.5c-0.6,0-1.8,0.4-2.4,0.3c-2.9-0.3-2-2.5-2.2-4.1
			c-0.2-2.3-1-4.4-1.1-6.8c-0.1-2.5,0-5,0.3-7.5c0-0.3-0.3-0.5-0.6-0.6c-4.3-0.6-8.7-1.1-13-0.2c-2.5,0.5-3.4,1.6-3.7,4.2
			c-0.5,4.3,1.4,8.7,0.5,13c-0.4,2-1.1,1.5-2.7,1.5c-1.1,0-2.1,0-3.2,0c-2.4,0-4.7,0.1-7-0.8C378.6,168.9,378.4,169.8,378.9,170.1
			L378.9,170.1z"/>
	</g>
</g>
<g id="XMLID_744_">
	<g id="XMLID_593_">
		<path id="XMLID_1195_" class="st2" d="M300.2,168.1c6.1-6.6,12.1-14.1,17-21.7c2.2-3.4,4.9-6.1,7.4-9.3c2.7-3.5,5.1-7.2,8.5-10.2
			c0.3-0.3-0.1-0.7-0.5-0.5c-2.9,2.5-5,5.6-7.3,8.7c-2.4,3.3-5.5,5.9-7.6,9.3c-5.2,8.1-11.5,16-18.1,23
			C299.3,167.9,299.9,168.5,300.2,168.1L300.2,168.1z"/>
	</g>
</g>
<g id="XMLID_745_">
	<g id="XMLID_584_">
		<path id="XMLID_591_" class="st2" d="M299.6,167.7c-0.5,1.1-0.4,2.2,0.7,2.9c1.7,1.1,3.6-0.4,4.7-1.6c5.2-5.5,9.3-12.1,13.7-18.2
			c1.8-2.4,3-3.4,5.9-4.2c1.1-0.3,2-0.5,2.9-1.1c2.2-1.7,3.6-5,4.8-7.3c1.1-2.2,5.4-12.2,0.3-12.1c-0.3,0-0.5,0.2-0.6,0.4
			s-0.1,0.4-0.2,0.6c-0.1,0.4,0.3,0.6,0.6,0.4c1.7-1.4,1.1,4.1,1.1,4.3c-0.2,1-0.5,2-0.9,3c-0.8,2.3-2.1,4.5-3.3,6.6
			c-0.5,0.9-1.2,2.1-1.9,2.9c-1.5,1.4-2.5,1.2-4.2,1.6c-1.4,0.4-2.5,1-3.6,2c-2.9,2.8-4.9,6.7-7.3,10c-1.5,2-3,4-4.5,5.9
			c-0.7,0.9-1.5,1.8-2.2,2.7c-0.4,0.4-0.8,0.9-1.1,1.3c-0.9,1.3-2.2,1.4-4,0.2C300.7,167.5,299.8,167.2,299.6,167.7L299.6,167.7z"/>
	</g>
</g>
<g id="XMLID_746_">
	<g id="XMLID_572_">
		<path id="XMLID_579_" class="st2" d="M332.2,168.9c-3.6-1-6.2-4.2-8.6-6.9c-2.6-2.8-4.8-6-7-9c-0.2-0.3-0.7,0-0.5,0.4
			c2.7,3.5,5.7,6.7,8.5,10.1c2.1,2.5,4.2,4.9,7.5,5.8C332.3,169.4,332.4,169,332.2,168.9L332.2,168.9z"/>
	</g>
</g>
<g id="XMLID_747_">
	<g id="XMLID_563_">
		<path id="XMLID_570_" class="st2" d="M313.1,150c-1.6-2.6-3.5-5-5.5-7.4c-0.4-0.4-0.8-1-1.4-0.9c-0.2,0-0.4,0.2-0.5,0.3
			s-0.2,0.3-0.2,0.4c-0.8,0.2-1.4,0-1.9-0.6c-0.5-0.5-1.3,0.3-0.8,0.8c0.6,0.6,1.3,1.2,2.1,1.1c0.4,0,0.6-0.2,1-0.4
			c0.2-0.1,0.3-0.5,0.4-0.6c0.9-0.2,2.4,2.4,3,3.1c1.2,1.4,2.3,2.8,3.3,4.4C312.8,150.6,313.3,150.3,313.1,150L313.1,150z"/>
	</g>
</g>
<g id="XMLID_760_">
	<g id="XMLID_555_">
		<path id="XMLID_561_" class="st2" d="M302.6,141.7c-2.7-4.1-5.4-8.3-8.6-12.1c-0.2-0.3-0.6,0-0.5,0.3c0.3,2.1,2.3,3.5,3.6,5.1
			c1.7,2.3,3.3,4.7,5,7C302.3,142.4,302.9,142.1,302.6,141.7L302.6,141.7z"/>
	</g>
</g>
<g id="XMLID_766_">
	<g id="XMLID_547_">
		<path id="XMLID_551_" class="st2" d="M296,130c1.6,1.8,3.1,3.6,4.7,5.3c0.3,0.3,0.7-0.1,0.4-0.4c-1.5-1.9-3.1-3.6-4.6-5.4
			C296.2,129.2,295.7,129.7,296,130L296,130z"/>
	</g>
</g>
<g id="XMLID_767_">
	<g id="XMLID_537_">
		<path id="XMLID_543_" class="st2" d="M297.3,128.6c1.1,1.1,2.2,2.3,3.2,3.5c0.9,1.1,1.6,2.3,2.8,3c0.5,0.3,0.9-0.5,0.4-0.7
			c-1.2-0.7-2-2.2-2.9-3.3c-0.9-1.1-1.9-2.1-2.9-3.1C297.5,127.6,296.9,128.2,297.3,128.6L297.3,128.6z"/>
	</g>
</g>
<g id="XMLID_773_">
	<g id="XMLID_529_">
		<path id="XMLID_535_" class="st2" d="M299.3,127.4c0.8,1.2,1.9,2.2,3,3.2c0.5,0.5,1.1,1,1.6,1.5c0.5,0.6,0.9,1.3,1.6,1.8
			c0.2,0.2,0.5,0,0.4-0.3c-0.2-1.2-1.6-2.3-2.4-3.1c-1.2-1.1-2.5-2.2-3.5-3.6C299.7,126.6,299,127,299.3,127.4L299.3,127.4z"/>
	</g>
</g>
<g id="XMLID_774_">
	<g id="XMLID_521_">
		<path id="XMLID_527_" class="st2" d="M299.3,136.9c2.2-0.4,4.9-1.4,6.6-3c0.2-0.2,0-0.6-0.3-0.5c-1,0.3-1.9,1-2.9,1.5
			c-1.2,0.6-2.3,1.1-3.6,1.4C298.7,136.4,298.9,137,299.3,136.9L299.3,136.9z"/>
	</g>
</g>
<g id="XMLID_775_">
	<g id="XMLID_491_">
		<path id="XMLID_519_" class="st2" d="M306,134.6c1.8,1.3,3.7,2.8,4.2,5.1c0.2,1.2-0.2,2.1,0.3,3.2c0.7,1.7,2.8,3.3,4.4,4.2
			c0.5,0.3,1-0.5,0.5-0.8c-1.3-0.7-2.6-1.8-3.5-3c-1-1.3-0.4-3-1.1-4.3c-0.9-2-2.8-3.5-4.6-4.7C306,134.1,305.7,134.5,306,134.6
			L306,134.6z"/>
	</g>
</g>
<g id="XMLID_780_">
	<g id="XMLID_407_">
		<path id="XMLID_458_" class="st2" d="M318.7,151.3c3.2,2.4,6,5.2,8.6,8.2c1.3,1.5,2.6,3.2,3.8,4.8c0.5,0.7,1.4,1.6,1.6,2.4
			c0.2,0.3,0.4,0.6,0.6,1c-0.6,1.2-1.5,1.5-2.5,0.9c-0.5-0.2-0.7,0.5-0.3,0.7c1.1,0.8,3,1.4,3.9-0.2s-1.3-3.7-2.1-4.9
			c-3.7-5.3-8.2-9.6-13.4-13.4C318.7,150.6,318.4,151.1,318.7,151.3L318.7,151.3z"/>
	</g>
</g>
<g id="XMLID_809_">
	<g id="XMLID_516_">
		<path id="XMLID_1486_" class="st3" d="M296.2,102.1c0.8-5.9,7.1-7.1,12-7.7c3.6-0.4,7.2-1,10.8-1c4,0,8.5,0.3,12.3,1.8
			c3.7,1.4,5.9,4.8,7.5,8.2c0.4,0.8,1.5,0.1,1.2-0.7c-1.7-3.7-4.1-7.2-8-8.8c-4.6-1.8-10.4-1.9-15.2-1.4c-4.8,0.5-10.3,0.8-14.9,2.4
			c-3.3,1.2-5.9,3.6-6.3,7.2C295.5,102.5,296.1,102.5,296.2,102.1L296.2,102.1z"/>
	</g>
</g>
<line id="XMLID_815_" class="st4" x1="295.3" y1="102.5" x2="339.3" y2="103"/>
<g id="XMLID_822_">
	<g id="XMLID_507_">
		<path id="XMLID_514_" class="st3" d="M313.5,98.3c0.8,0,0.8-1.3,0-1.3S312.7,98.3,313.5,98.3L313.5,98.3z"/>
	</g>
</g>
<g id="XMLID_823_">
	<g id="XMLID_495_">
		<path id="XMLID_502_" class="st3" d="M307,96.8c0.8,0,0.8-1.3,0-1.3S306.2,96.8,307,96.8L307,96.8z"/>
	</g>
</g>
<g id="XMLID_824_">
	<g id="XMLID_486_">
		<path id="XMLID_493_" class="st3" d="M302.8,98.1c0.8,0,0.8-1.3,0-1.3C301.9,96.9,301.9,98.1,302.8,98.1L302.8,98.1z"/>
	</g>
</g>
<g id="XMLID_833_">
	<g id="XMLID_478_">
		<path id="XMLID_484_" class="st3" d="M316.6,95.6c0.8,0,0.8-1.3,0-1.3C315.8,94.4,315.8,95.6,316.6,95.6L316.6,95.6z"/>
	</g>
</g>
<g id="XMLID_835_">
	<g id="XMLID_470_">
		<path id="XMLID_474_" class="st3" d="M324.9,97.6c0.8,0,0.8-1.3,0-1.3C324.1,96.4,324.1,97.6,324.9,97.6L324.9,97.6z"/>
	</g>
</g>
<g id="XMLID_840_">
	<g id="XMLID_461_">
		<path id="XMLID_467_" class="st3" d="M332.1,99c0.8,0,0.8-1.3,0-1.3C331.3,97.7,331.3,99,332.1,99L332.1,99z"/>
	</g>
</g>
<g id="XMLID_841_">
	<g id="XMLID_130_">
		<path id="XMLID_97_" class="st3" d="M295.2,113.8c5.3,6.8,16.4,7.7,24.4,7.3c4.8-0.2,9.6-1.2,14.2-2.4c2.9-0.8,5.8-2,6-5.3
			c0-0.6-0.9-0.6-1,0c-0.3,4.5-7.7,5.1-11.1,5.7c-3.9,0.7-7.8,1.2-11.7,1c-6.7-0.2-15.9-1.2-20.4-6.8
			C295.4,113.1,295,113.5,295.2,113.8L295.2,113.8z"/>
	</g>
</g>
<line id="XMLID_847_" class="st4" x1="295.4" y1="113.6" x2="339.3" y2="113.4"/>
<g id="XMLID_849_">
	<g id="XMLID_445_">
		<path id="XMLID_451_" class="st3" d="M315.2,104.4c-6.2-0.1-12.4,0.1-18.7,0c-2.1,0-6.1-0.3-6.2,2.8c0,1.3,0.8,1.5,1.5,2.3
			c1,1.1,0.8,1.8,2.1,2.2c2.2,0.8,6,0.2,8.3,0.3c3.4,0.1,6.8,0.1,10.2,0c0.5,0,0.5-0.8,0-0.8c-3.8-0.1-7.7-0.1-11.5-0.2
			c-2.3-0.1-7.2,0.5-8.3-2.2c-0.3-0.8,1.3-3.8,2.2-4.2c0.7-0.2,2.2,0,2.9,0c1.9,0,3.7,0,5.6,0.1c3.9,0.2,7.9,0.1,11.8,0.1
			C315.6,104.9,315.6,104.4,315.2,104.4L315.2,104.4z"/>
	</g>
</g>
<g id="XMLID_900_">
	<g id="XMLID_437_">
		<path id="XMLID_442_" class="st3" d="M316.1,105c6.8,0.1,13.7,0.2,20.5,0.3c1.5,0,3.3-0.2,4.7,0.1c2.3,0.2,3.4,1.4,3.5,3.4
			c-0.2,1.3-0.5,1.3-0.9,0.2c-0.7-0.5-1.2-1.7-1.8-2.3c-0.7-0.7-1.4-1.2-2.3-1.7c-0.5-0.3-0.9,0.4-0.4,0.7c2.2,1.3,3.4,3.3,4.8,5.3
			c0.1,0.2,0.5,0.3,0.6,0c1.8-3.4-0.6-6.1-4-6.3c-8.2-0.5-16.5-0.2-24.8-0.4C315.7,104.4,315.7,105,316.1,105L316.1,105z"/>
	</g>
</g>
<g id="XMLID_901_">
	<g id="XMLID_428_">
		<path id="XMLID_433_" class="st3" d="M325.9,111.6c4.4,0,8.8,0.1,13.2-0.2c0.1,0,0.2,0,0.2-0.1c0.2-1.1,0.4-2.1,0.4-3.2
			c0-0.2-0.2-0.3-0.4-0.3c-1.8,0.4-3.9-0.3-5.7-0.4c-1.8-0.1-3.6,0.1-5.3,0.3c-0.3,0-0.3,0.5,0,0.5c2.6-0.2,5.1-0.4,7.7,0
			c1.3,0.2,3.2,0,3.1,1.4c0,2.3-4.6,1.4-6.1,1.4c-2.4,0-4.7,0-7.1,0.1C325.5,111,325.5,111.6,325.9,111.6L325.9,111.6z"/>
	</g>
</g>
<g id="XMLID_902_">
	<g id="XMLID_414_">
		<path id="XMLID_425_" class="st3" d="M325.9,108.5c-2.3,0.2-4.6,1-6.4,2.4c-1.3,0.9-3.3,2.8-3,4.5c0.1,0.6,1,0.3,0.9-0.3
			c-0.2-1.5,2.3-3.6,3.3-4.3c1.5-1.1,3.3-1.7,5.2-1.9C326.2,108.9,326.2,108.5,325.9,108.5L325.9,108.5z"/>
	</g>
</g>
<g id="XMLID_907_">
	<g id="XMLID_219_">
		<path id="XMLID_400_" class="st3" d="M308.4,108.9c1.9,0.8,3.8,1.7,5.4,3.1c1.2,1.1,1.4,2.9,2.7,3.9c0.3,0.2,0.8-0.2,0.6-0.6
			c-1-1.5-1.5-3.2-3-4.4c-1.6-1.2-3.4-2-5.2-2.8C308.4,108,307.9,108.6,308.4,108.9L308.4,108.9z"/>
	</g>
</g>
<g id="XMLID_909_">
	<g id="XMLID_213_">
		<path id="XMLID_217_" class="st3" d="M299.7,111.3c2.6-1.6,6.1-1.7,9-2.2c0.2,0,0.2-0.4,0-0.4c-1.6-0.3-3.3,0.1-4.8,0.4
			c-1.6,0.4-3.2,0.7-4.6,1.5C298.8,110.9,299.2,111.6,299.7,111.3L299.7,111.3z"/>
	</g>
</g>
<path id="XMLID_914_" class="st0" d="M273,169.2c0,1.8-1.5,3.3-3.3,3.3h-39.5c-1.8,0-3.3-1.5-3.3-3.3v-18.4c0-1.8,1.5-3.3,3.3-3.3
	h39.5c1.8,0,3.3,1.5,3.3,3.3V169.2z"/>
<line id="XMLID_915_" class="st0" x1="223.8" y1="177.5" x2="224.3" y2="146.7"/>
<line id="XMLID_917_" class="st0" x1="275.1" y1="176.5" x2="275" y2="147.2"/>
<g id="XMLID_923_">
	<g id="XMLID_416_">
		<path id="XMLID_222_" d="M224.9,146.6c0.2-0.9,1.2-0.8,1.9-0.7c0.5,0.1,0.6-0.7,0.1-0.7c-1-0.1-2.4,0-2.7,1.3
			C224.2,146.9,224.8,147,224.9,146.6L224.9,146.6z"/>
	</g>
</g>
<g id="XMLID_929_">
	<g id="XMLID_409_">
		<path id="XMLID_224_" d="M275.1,147.9c0.4-0.7,0.2-1.5-0.4-2.1c-0.3-0.3-0.7-0.5-1.1-0.7s-0.8-0.4-1.2-0.2
			c-0.2,0.1-0.2,0.3-0.1,0.5c0.3,0.5,1,0.4,1.5,0.7c0.5,0.3,0.9,0.9,0.7,1.5C274.3,147.9,274.9,148.3,275.1,147.9L275.1,147.9z"/>
	</g>
</g>
<line id="XMLID_930_" class="st0" x1="226.9" y1="145.5" x2="272.7" y2="145.2"/>
<line id="XMLID_936_" class="st0" x1="223.5" y1="177.5" x2="275.5" y2="177.5"/>
<line id="XMLID_937_" class="st0" x1="213" y1="187.5" x2="223.5" y2="177.5"/>
<line id="XMLID_950_" class="st0" x1="286.1" y1="187.5" x2="275.5" y2="177.5"/>
<line id="XMLID_952_" class="st0" x1="212.5" y1="187.5" x2="286.5" y2="187.5"/>
<line id="XMLID_957_" class="st0" x1="212.5" y1="188.8" x2="286.5" y2="188.7"/>
<line id="XMLID_962_" class="st0" x1="286.5" y1="188.7" x2="284" y2="191.2"/>
<line id="XMLID_963_" class="st0" x1="284.5" y1="191.5" x2="214.5" y2="191.5"/>
<line id="XMLID_964_" class="st0" x1="212.5" y1="188.8" x2="214.5" y2="191.5"/>
<ellipse id="XMLID_969_" class="st6" cx="180.1" cy="170.8" rx="23.5" ry="20.7"/>
<g id="XMLID_970_">
	<g id="XMLID_381_">
		<path id="XMLID_98_" class="st1" d="M176.2,187.9c-3.4-4.2,5.8-8.4,2-13.3c-1.3-1.6-3.4-2.4-5.2-3.2c-1.4-0.6-3.3-2-4.8-1.6
			c-1.2,0.3-2.1,2.1-2.6,3.1c-0.6,1.6-0.4,2.3,0.7,3.4c3.6,3.7,5.3,8.9,9.3,12.1c0.6,0.5,1.5-0.4,0.9-0.9c-2.9-2.3-4.3-5.5-6.4-8.5
			c-0.8-1.2-1.9-2.1-2.7-3.2c-0.8-1.1-0.9-3.7,0.5-4.6c1.1-0.7,2.2,0,3.2,0.4c1.7,0.6,3.7,1.3,5.2,2.3c2.8,1.9,2.1,5.2,0.3,7.6
			c-0.4,0.6-1,1.1-1.3,1.7c-1.1,1.8-1.2,3.7,0.1,5.3C175.9,189.2,176.6,188.4,176.2,187.9L176.2,187.9z"/>
	</g>
</g>
<g id="XMLID_971_">
	<g id="XMLID_364_">
		<path id="XMLID_99_" class="st1" d="M166.4,170.3c-0.4-0.7-0.8-1.2-1.5-1.6c-0.9-0.5-2.1-0.3-3-0.8c-1-0.6-1-1.6-1.6-2.4
			c-0.6-0.7-1.4-1.4-2.2-1.8c-0.2-0.1-0.6,0.1-0.5,0.4c0.2,0.7,0.5,0.8,1.1,1.3c0.8,0.8,1.2,1.6,1.9,2.5c0.4,0.5,1,0.9,1.7,1.1
			c1.6,0.3,2.7-0.1,3.7,1.6C166.1,170.9,166.6,170.6,166.4,170.3L166.4,170.3z"/>
	</g>
</g>
<g id="XMLID_972_">
	<g id="XMLID_356_">
		<path id="XMLID_112_" class="st1" d="M165.1,168.8c-0.7-0.6-1.9-1.1-1.3-2.3c0.1-0.3,0.9-0.9,1.2-1c0.8-0.4,0.9-0.2,1.5-0.1
			c1.2,0.3,0.7,0.3,0.9,1.1c0.4,1.4,3.1,2,4.4,2c0.2,0,0.4-0.4,0.1-0.5c-0.9-0.5-2.3-0.5-3-1.2c-0.7-0.6-0.4-1.4-1-1.9
			c-0.4-0.4-1.9-0.7-2.5-0.6c-0.8,0.1-2.2,1.5-2.5,2.2c-0.6,1.4,0.9,2.1,1.8,2.8C165,169.5,165.4,169,165.1,168.8L165.1,168.8z"/>
	</g>
</g>
<g id="XMLID_973_">
	<g id="XMLID_348_">
		<path id="XMLID_114_" class="st1" d="M169.1,164.8c1.7-2.5,3.7-3.9,6.2-5.5c1-0.6,1.6-1.1,1.9-2.3c0-0.1,0-0.2-0.1-0.3
			c-1.2-0.7-1.3-0.4-2.4-0.2c-2.5,0.5-0.4-0.2,0.2-1.5c0.1-0.3,0-0.6-0.3-0.6c-2.3-0.2-4.6-0.1-6.7,0.9c-3.2,1.5-4.2,4.8-8.1,5.2
			c-0.5,0-0.5,0.7,0,0.8c2.2,0.3,3.7-0.7,5.2-2.3c1.2-1.4,2.3-2.5,4.1-3.2c0.9-0.3,1.8-0.5,2.7-0.6c0.4,0,4.2-0.2,0.7,1.1
			c-0.2,0.1-0.3,0.3-0.3,0.5c0.2,0.5,0.4,1,1,1.2c0,0,1.7-0.4,1.4-0.5c1.8,0.9-2,2.8-2.7,3.4c-1.3,1.1-2.3,2.4-3.2,3.8
			C168.6,164.9,169,165.1,169.1,164.8L169.1,164.8z"/>
	</g>
</g>
<g id="XMLID_974_">
	<g id="XMLID_340_">
		<path id="XMLID_115_" class="st1" d="M178.6,154.6L178.6,154.6c0.1,0.1,0.2,0.1,0.2,0.1c0-0.1,0.1-0.3,0.1-0.5
			c0-0.1,0-0.2-0.1-0.2C178.4,154,178.4,154.4,178.6,154.6c-0.1,0.2,0,0.2,0.1,0.2c0.3-0.1,0.2-0.7-0.2-0.7
			C178.4,154.3,178.4,154.6,178.6,154.6L178.6,154.6z"/>
	</g>
</g>
<g id="XMLID_975_">
	<g id="XMLID_332_">
		<path id="XMLID_116_" class="st1" d="M178.5,155.1c0.8,0,0.8-1.3,0-1.3C177.7,153.8,177.7,155.1,178.5,155.1L178.5,155.1z"/>
	</g>
</g>
<g id="XMLID_976_">
	<g id="XMLID_323_">
		<path id="XMLID_117_" class="st1" d="M178.6,154.5c0.1-0.2,0.2-0.4,0.4-0.5c0.1-0.1-0.1-0.2-0.1-0.1
			C178.7,154.1,178.6,154.3,178.6,154.5C178.4,154.5,178.5,154.6,178.6,154.5L178.6,154.5z"/>
	</g>
</g>
<g id="XMLID_978_">
	<g id="XMLID_315_">
		<path id="XMLID_118_" class="st1" d="M175.8,155.2c0.8,0,0.8-1.3,0-1.3S175,155.2,175.8,155.2L175.8,155.2z"/>
	</g>
</g>
<g id="XMLID_980_">
	<g id="XMLID_306_">
		<path id="XMLID_121_" class="st1" d="M183,151.8c-0.9,0.8-2.4,1.7-2.9,2.8c-0.3,0.6-0.2,1.3,0.6,1.4c0.9,0.1,2.3-0.9,3.1-1.4
			c1-0.7,2-1.5,2.7-2.5c0.1-0.1-0.1-0.3-0.2-0.2c-0.6,0.4-1.1,1-1.8,1.4c-0.7,0.4-1.4,0.8-2.1,1.2c-0.3,0.1-1,0.6-1.3,0.6
			c-0.3,0.2-0.3,0,0-0.3c0.2-0.2,0.3-0.4,0.5-0.6c0.6-0.6,1.3-1.2,1.9-1.8C183.7,152,183.3,151.5,183,151.8L183,151.8z"/>
	</g>
</g>
<g id="XMLID_987_">
	<g id="XMLID_298_">
		<path id="XMLID_122_" class="st1" d="M183.2,152.6c0.8,0,0.8-1.3,0-1.3C182.3,151.3,182.3,152.6,183.2,152.6L183.2,152.6z"/>
	</g>
</g>
<g id="XMLID_1022_">
	<g id="XMLID_241_">
		<path id="XMLID_123_" class="st1" d="M193,181.2c-0.1-3.4,1.2-9.6-3-10.9c-2.1-0.6-2.3,0.4-3.5-2.2c-1.2-1.1-1.3-1.9-0.2-2.4
			c0.5-0.6,1.3-0.9,2.2-0.7c1.7-0.3,2.5,0.1,4,0.8c3,1.3,5.8,2.9,8.6,4.6c0.7,0.4,1.2-0.6,0.6-1c-3.3-2.2-7.5-4.8-11.4-5.8
			c-2.4-0.6-4.9,0.6-6.2,2.6c-1.3,1.9-0.9,3.9,1.3,4.7c0.4,0.1,0.7,0.2,1.1,0.3c2.1,0.3,1.5-0.3,3.7,1.7c2.1,1.9,1.9,1.8,1.9,4.3
			c0,1.3,0,2.7,0,4C192.1,181.8,193,181.8,193,181.2L193,181.2z"/>
	</g>
</g>
<g id="XMLID_1028_">
	<g id="XMLID_234_">
		<path id="XMLID_132_" class="st1" d="M192.5,181.4c-0.1,0.6,0.3,1,0.9,1.1c0.9,0.1,2.1-1.2,2.7-1.8c1.1-1,2.4-2.1,3.2-3.4
			c1.1-1.8,1.3-3.5,3.2-4.6c0.5-0.3,0.2-1-0.4-0.9c-1.6,0.3-2.3,2-3,3.4c-0.6,1.4-1.4,2.4-2.5,3.5c-0.5,0.4-0.9,0.9-1.4,1.3
			c-0.3,0.3-1.8,1.3-1.8,1.4C193.6,180.8,192.6,180.8,192.5,181.4L192.5,181.4z"/>
	</g>
</g>
<g id="XMLID_1029_">
	<g id="XMLID_227_">
		<path id="XMLID_135_" class="st1" d="M200.9,168.1c-1.2-1.6-2.4-3.1-4.1-4.2c-0.8-0.5-1.7-1-2.5-1.5c-1-0.6-2.6-1.9-3.7-2.1
			c-0.9-0.1-1.3,0.3-2,0.6c-0.2,0.3-0.4,0.6-0.6,0.9c-1.2,0.3-1.5,0.2-0.6-0.2c0.1-0.5,1.3-1.5,1.6-1.5c0.4,0,0.4-0.6,0-0.7
			c-1.1-0.1-2.5,1.3-3,2.2c-0.4,0.7-0.6,1.5,0.4,2c0.5,0.2,0.8,0.1,1.2-0.1c1.1-0.5,0.9-1.2,2.3-1.6c1.9-0.5,3.6,1,5.3,2
			c2.1,1.3,3.5,2.6,5,4.6C200.5,168.9,201.3,168.5,200.9,168.1L200.9,168.1z"/>
	</g>
</g>
<g id="XMLID_1035_">
	<g id="XMLID_193_">
		<path id="XMLID_136_" class="st1" d="M189.4,159.8c1,0.1,1.7-0.3,2.3-1c0.2-0.3,0.3-0.6,0.6-0.9c0.3-0.3,0.9-0.6,1.3-0.8
			c0.7-0.4,1.5-0.7,2.2-1.2c0.2-0.1,0.1-0.4-0.1-0.3c-1.1,0.4-2.3,1.1-3.3,1.7c-1.1,0.7-1.4,2.2-3,2
			C189.1,159.3,189.1,159.8,189.4,159.8L189.4,159.8z"/>
	</g>
</g>
<g id="XMLID_1036_">
	<g id="XMLID_187_">
		<path id="XMLID_137_" class="st1" d="M189.7,157.1c0-0.4,0.3-0.7,0.6-0.9c0.3-0.2,0.6-0.2,0.9-0.3s0.3-0.5,0.1-0.6
			c-0.5-0.3-1.1,0-1.6,0.3c-0.5,0.4-0.7,0.9-0.8,1.5C188.8,157.6,189.6,157.6,189.7,157.1L189.7,157.1z"/>
	</g>
</g>
<g id="XMLID_1037_">
	<g id="XMLID_292_">
		<path id="XMLID_242_" d="M106.4,153.8c0.3-1.3,0.3-2.3,0.2-3.7c0-0.2-0.1-0.3-0.3-0.3c-5.2-0.3-5.7-8.1-4.7-11.9
			c0.9-3.6,6.8-3.6,9.7-3.8c2.9-0.2,5.5,0,8.4,0.3c1.2,0.1,2.1,0,3.3,0c2.4-0.1,7.1-0.4,6.1,4.1c-0.2,0.7,0.8,0.9,1,0.3
			c1-3.4-2.2-6.7-5.7-6.2c-2,0.3-3.5,0.7-5.6,0.4c-1.3-0.1-2.5-0.2-3.9-0.2c-2.9,0.1-5.9,0.3-8.8,0.9c-1.6,0.3-3.3,0.3-4.5,1.6
			c-1.5,1.7-1.3,4.6-1.2,6.7s0.3,4.5,1.6,6.2c1.9,2.5,4.5,1.1,3.6,5.2C105.7,154,106.3,154.1,106.4,153.8L106.4,153.8z"/>
	</g>
</g>
<g id="XMLID_1042_">
	<g id="XMLID_285_">
		<path id="XMLID_243_" d="M106.4,154c2.1-1,4.2-2.1,6.1-3.4c0.4-0.3,0-0.9-0.4-0.6c-1.9,1.4-4,2.5-6.1,3.5
			C105.7,153.6,106,154.2,106.4,154L106.4,154z"/>
	</g>
</g>
<g id="XMLID_1044_">
	<g id="XMLID_278_">
		<path id="XMLID_245_" d="M112.5,151.2c1.3-0.2,2.6-0.2,4-0.1c0.2,0,0.3-0.2,0.3-0.3c0.2-2.1,0.6-4.7-0.2-6.7
			c-0.1-0.2-0.4-0.2-0.4,0.1c-0.1,1,0.1,2,0.1,3.1c0,1.2,0,2.3-0.2,3.5c0.1-0.1,0.3-0.2,0.4-0.2c-1.4-0.2-2.8-0.1-4.2,0.1
			C111.9,150.6,112.1,151.2,112.5,151.2L112.5,151.2z"/>
	</g>
</g>
<g id="XMLID_1050_">
	<g id="XMLID_271_">
		<path id="XMLID_247_" d="M116.9,144.3c0.7-3.4,2.8-4.9,6.2-5.2c2.1-0.2,4.3-0.6,6.3,0c0.4,0.1,0.7-0.5,0.3-0.7
			c-1.3-0.7-2.5-0.5-3.9-0.4c-1.7,0.2-3.5,0.2-5.1,0.7c-2.5,0.8-3.8,2.9-4.2,5.5C116.4,144.5,116.9,144.7,116.9,144.3L116.9,144.3z"
			/>
	</g>
</g>
<g id="XMLID_1057_">
	<g id="XMLID_264_">
		<path id="XMLID_250_" d="M140.8,160.5c-0.1-1.1-0.2-2.3-0.1-3.4c0-0.1-0.2-0.2-0.2,0c-0.2,1.2-0.2,2.3-0.1,3.4
			C140.3,160.8,140.8,160.8,140.8,160.5L140.8,160.5z"/>
	</g>
</g>
<g id="XMLID_1064_">
	<g id="XMLID_257_">
		<path id="XMLID_252_" d="M140.5,159.7c-1.8-1.5-3.6-3-5.9-3.5c-2.9-0.7-6-0.1-9-0.2c-3.7,0-6-1.6-6.2-5.4c-0.1-1.1,0.1-2.2,0-3.4
			c-0.2-2.2,0.3-4.6,2.5-5.8c1.7-0.9,3.9-0.6,5.8-0.6c3.5,0.1,7.1,0.3,10.6,0.5c1.7,0.1,4.1-0.2,5.7,0.4c1.3,0.5,2.7,2.9,2.9,4.2
			c0.1,1-0.1,2.1-0.2,3.1c-0.1,0.9,0,2.1-0.3,3c-0.7,2-1.9,2.7-3.6,3.5c-0.7,0.3-1.3,0.5-1.9,1c-1.1,1-1.3,2.2-0.7,3.5
			c0.3,0.7,1.3,0.1,1-0.6c-1.2-2.3,3.9-3.4,5-4.3c1.1-1,1.4-2.4,1.6-3.8c0.4-2.6,1.5-7.3-0.7-9.5c-2.4-2.4-7-1.8-10.1-1.9
			c-2.5-0.1-5-0.1-7.5-0.1c-2-0.1-4.3-0.4-6.3,0c-2.2,0.4-4.1,2-4.9,4.2c-0.6,1.6-0.1,3-0.1,4.6c0,1.5-0.8,3.1-0.3,4.6
			c0.8,2.3,3.8,4,6.1,4.3c2.4,0.3,5-0.2,7.4-0.2c3.5,0,5.8,1.1,8.5,3.2C140.3,160.8,141,160.1,140.5,159.7L140.5,159.7z"/>
	</g>
</g>
<g id="XMLID_1071_">
	<g id="XMLID_1123_">
		<path id="XMLID_1068_" class="st2" d="M38.6,145.9c-1.2,0.7-2.1,1.9-2.6,3.2c-0.4,1.1,0,1.6,0.7,2.4c1.9,2.2,5.7,2.8,8.3,1.2
			c2.2-1.4,2.2-4.6,0.6-6.4c-1.9-2.2-5.8-2.3-7.7-0.1c-0.3,0.3,0.1,0.9,0.5,0.6c1.8-1.1,3.5-2,5.6-0.8c2.3,1.4,3,4.6,0.4,6.1
			c-1.4,0.8-4.3,1-5.7,0.2c-0.9-0.5-2-1.8-2-3c0-1.1,1.4-2.5,2.2-3C39.1,146.2,38.9,145.8,38.6,145.9L38.6,145.9z"/>
	</g>
</g>
<g id="XMLID_1078_">
	<g id="XMLID_1082_">
		<path id="XMLID_1021_" class="st2" d="M38.6,188.1c0.2-6.1,1.4-12.9,0.3-19c-0.6-3.3-2.4-6.6-1.5-10.1c1.4-5.2,7-3.6,10.8-2.9
			c2.6,0.5,4.8,1.7,7.3,2.6c1.8,0.7,3,0.3,4.1,2c1.2,1.9,0.3,1.1-0.9,0.6c-1-0.4-2.1-0.8-3-1.2c-2.1-1-7.6-4.1-9.1-0.6
			c-0.1,0.2,0,0.3,0.1,0.5c1.3,1.5,3.6,2,5.4,2.8c0.7,0.3,2.3,0.7,2.8,1.4c0.1,0.6,0.2,1.2,0.3,1.8c-0.3-0.1-0.6-0.2-1-0.4
			c-1.6-0.2-3.1-1.6-4.5-2.2c-4.1-1.5-2.1,4.9-1.6,7c0.6,2.4,2.6,4,3.2,6.5c0.5,1.9,0.3,3.7,0,5.6c-0.2,1.7-0.1,5.4-2.4,3.1
			c-1.2-1.3-0.5-2.7-0.6-4.4c-0.1-1.3-0.3-2.5-0.8-3.7c-0.9-2.2-2.2-4.7-4.1-6.1c-0.3-0.2-0.8-0.1-0.8,0.3c0,3.2,0,6.4,0,9.5
			c0,1.5,0.1,3,0.1,4.4c0,0.8,0,1.7-0.1,2.5c-1.8,1.6-3,1.3-3.6-0.9c0.3-0.7-0.7-1.1-1-0.4c-1.1,2.5,2.9,4.5,4.7,2.8
			c1.3-1.3,0.8-4.4,0.8-5.9c0.1-4,0-8,0-12.1c-0.3,0.1-0.5,0.2-0.8,0.3c2.1,1.7,3.9,5.1,4.4,7.7c0.4,1.9-0.6,4.3-0.1,6.1
			c0.4,1.5,2.8,2.2,4.2,1.5c0.4-0.2,0.4-0.6,0.6-1c0.4-0.8,0.3-2.9,0.4-3.8c0.1-1.1,0.4-2.4,0.4-3.5c0-1.8-0.5-3.6-1.3-5.2
			c-0.6-1.3-1.7-2.3-2.1-3.7c-0.3-1-0.6-2.4-0.5-3.5c0-2.1,0.2-2.4,1.9-1.5c1.2,0.6,3.7,2,5.1,2c1.2,0,2-0.8,1.6-2.1
			c-0.7-2.4-5.1-3.3-7.1-4c-3.1-1.2-0.5-2.1,1.1-1.7c1.2,0.3,2.2,1,3.3,1.6c2.1,1.1,4.2,1.8,6.6,2.2c0.2,0,0.5-0.1,0.5-0.3
			c0.4-1.3,0-2.4-1.1-3.3c-0.8-0.6-1.9-0.7-2.8-1c-1.6-0.4-3-1-4.6-1.7c-3.6-1.5-10.1-3.9-13.9-1.8c-3.9,2.1-3.1,7.2-2.2,10.6
			c2.1,7.4,1.2,14.8,0.8,22.4C37.9,188.5,38.5,188.5,38.6,188.1L38.6,188.1z"/>
	</g>
</g>
<g id="XMLID_1085_">
	<g id="XMLID_1039_">
		<path id="XMLID_984_" class="st2" d="M60.4,167.4c-0.5-0.6-1.1-1.1-1.6-1.7c-0.4-0.5-1.6-1.4-1.5-2.1c-0.1,0.1-0.3,0.3-0.4,0.4
			c2.2-0.1,3.7,1.3,5.4,2.5c0.2,0.1,0.4-0.2,0.3-0.3c-1.5-1.7-3.4-3-5.7-3c-0.2,0-0.4,0.2-0.4,0.4c-0.1,0.8,0.5,1.2,0.9,1.8
			c0.8,0.9,1.6,1.8,2.4,2.6C60.2,168.3,60.8,167.8,60.4,167.4L60.4,167.4z"/>
	</g>
</g>
<g id="XMLID_1092_">
	<g id="XMLID_997_">
		<path id="XMLID_928_" class="st2" d="M60.1,168.1c-0.5,4.5,0.1,9.2,0.8,13.7c0.1,0.5,1,0.4,1-0.1c-0.2-4.6-1.1-9-0.7-13.6
			C61.2,167.4,60.2,167.4,60.1,168.1L60.1,168.1z"/>
	</g>
</g>
<g id="XMLID_1099_">
	<g id="XMLID_944_">
		<path id="XMLID_883_" class="st2" d="M61.3,182.2c9.3,0.3,19.1,1.2,28.3-0.1c0.5-0.1,0.3-0.8-0.1-0.8c-9.4,0.1-18.8,0.2-28.2,0.1
			C60.7,181.4,60.7,182.2,61.3,182.2L61.3,182.2z"/>
	</g>
</g>
<g id="XMLID_1106_">
	<g id="XMLID_895_">
		<path id="XMLID_845_" class="st2" d="M90.2,180.9c3-4.3,5.6-9,8.9-13.1c0.2-0.3-0.1-0.7-0.4-0.4c-1.6,1.6-2.8,3.8-4.1,5.7
			c-1.7,2.5-3.3,5-4.9,7.5C89.5,180.9,90,181.2,90.2,180.9L90.2,180.9z"/>
	</g>
</g>
<g id="XMLID_1113_">
	<g id="XMLID_859_">
		<path id="XMLID_827_" class="st2" d="M97.8,167.1c-0.6-0.6-1.1-1-1.9-0.9c-0.6,0.1-1.2,0.1-1.8,0c-0.5-0.1-1-0.2-1.5-0.2
			c-0.4,0-0.5,0.6-0.1,0.7c0.7,0.2,1.4,0.3,2.1,0.3c0.3,0,0.6,0,0.9,0c0.8-0.1,1.2,0,1.7,0.5C97.6,168.1,98.2,167.5,97.8,167.1
			L97.8,167.1z"/>
	</g>
</g>
<g id="XMLID_1148_">
	<g id="XMLID_820_">
		<path id="XMLID_806_" class="st2" d="M62.3,166.7c0.4,0,0.8,0,1.2,0c0.3,0,0.3-0.5,0-0.5c-0.4,0-0.8,0-1.2,0
			C62.1,166.3,62.1,166.7,62.3,166.7L62.3,166.7z"/>
	</g>
</g>
<g id="XMLID_1154_">
	<g id="XMLID_782_">
		<path id="XMLID_771_" class="st2" d="M63.8,166.7c3.7,0.5,7.6,0,11.3,0.3c0.3,0,0.3-0.4,0.1-0.4c-3.7-0.6-7.5,0.2-11.2-0.3
			C63.6,166.2,63.5,166.7,63.8,166.7L63.8,166.7z"/>
	</g>
</g>
<g id="XMLID_1155_">
	<g id="XMLID_764_">
		<path id="XMLID_762_" class="st2" d="M75.6,166.7c2.4-0.6,4.5-1.9,5.9-4c0.7-1.1,0.5-1.3,2-1.6c1.4-0.3,2,0.3,3.1,1
			c2.2,1.5,4.2,3.2,6.2,4.9c0.4,0.4,1-0.2,0.6-0.6c-1.7-1.6-3.6-3-5.5-4.3c-1.2-0.8-2.9-2.3-4.4-2.3c-0.9,0-1.2,0.4-1.7,1.1
			c-1.9,2.4-3,4.3-6.3,5.2C75.1,166.2,75.3,166.8,75.6,166.7L75.6,166.7z"/>
	</g>
</g>
<g id="XMLID_1161_">
	<g id="XMLID_751_">
		<path id="XMLID_722_" class="st2" d="M75.8,167c-1.4,1.4-4.9,3.4-4.2,5.5c0.4,1.4,3.4,3,4.6,3.9c1.8,1.3,4,3.2,6.1,3.9
			c2.4,0.7,3.4-3,4.7-4.4c2.7-2.8,6-4.8,7.7-8.4c0.1-0.1,0-0.3-0.1-0.4c-0.5-0.5-1.1-1-1.6-1.4c-0.2-0.3-0.5,0-0.4,0.2
			c0.3,0.6,1,1.1,1.1,1.7c0.2,1-2,2.9-2.9,3.7c-2,1.8-4.2,3.4-5.9,5.6c-1.2,1.6-1.3,2.9-3.4,1.9c-1.5-0.7-3-1.9-4.3-2.9
			c-1.1-0.8-3.5-1.9-4.2-3.1c-1.1-2.2,1.8-4.1,3.1-5.4C76.3,167.1,76,166.9,75.8,167L75.8,167z"/>
	</g>
</g>
<g id="XMLID_1162_">
	<g id="XMLID_706_">
		<path id="XMLID_692_" class="st2" d="M67.7,160.3c2.5,1.6,5.1,3.2,7.7,4.7c0-0.2-0.1-0.4-0.1-0.7c-1.2,1.1-2.3,3-3.6,3.9
			c-1.1,0.8-0.3,1.1-2.4,0.1c-0.8-0.4-1.6-1-2.4-1.5c-0.7-0.4-1.7-0.7-2.2-1.2c-0.8-0.8-0.6-1,0-2.1c0.9-1.6,2.1-2.6,3.4-3.9
			c0.4-0.4-0.1-0.9-0.5-0.7c-2.4,1.3-4,3.9-4.8,6.5c-0.1,0.2,0,0.5,0.3,0.6c1.5,0.8,3,1.5,4.5,2.3c0.9,0.5,1.9,1.5,2.9,1.8
			c0.8,0.2,1-0.1,1.5-0.6c1.4-1.4,2.6-3.1,4-4.5c0.2-0.2,0.1-0.5-0.1-0.7c-2.6-1.5-5.1-3.1-7.7-4.6C67.7,159.5,67.4,160,67.7,160.3
			L67.7,160.3z"/>
	</g>
</g>
<g id="XMLID_1163_">
	<g id="XMLID_664_">
		<path id="XMLID_650_" class="st2" d="M84.8,179.6c0.9-0.4,1.9,0.4,2.8,0.4c0.7,0,1.1-0.2,1.2-1c0-0.7,0.3-1.7-0.4-2.1
			c-0.8-0.5-1.9-0.1-2.7-0.6c-0.3-0.2-0.7,0.2-0.4,0.5c0.4,0.4,1,0.4,1.5,0.4c0.3,0,0.8-0.1,1.1,0.1c0.4,0.2,0.3,1.1,0.2,1.5
			c-0.1,0.3,0,0.4-0.4,0.5c-0.2,0-0.5-0.1-0.7-0.1c-0.3-0.1-0.6-0.2-1-0.3c-0.6-0.2-1.1-0.2-1.7,0.1
			C84.2,179.1,84.5,179.7,84.8,179.6L84.8,179.6z"/>
	</g>
</g>
<g id="XMLID_1168_">
	<g id="XMLID_636_">
		<path id="XMLID_647_" class="st2" d="M81,179.5c-4.6-1-9.3-0.1-13.9-0.3c-0.5,0-4.1,0.2-2.1-1.5c0.6-0.5,3-0.2,3.9-0.3
			c2.8-0.1,5.6,0.2,8.4,0.2c0.4,0,0.6-0.7,0.1-0.8c-3.6-0.7-8.3-0.9-11.9-0.3c-1.8,0.3-2.9,1.1-2.6,3c0,0.2,0.3,0.4,0.5,0.4
			c2.8,0.2,5.7,0.4,8.5,0.3c3-0.2,5.9-0.5,8.9,0C81.2,180.2,81.4,179.6,81,179.5L81,179.5z"/>
	</g>
</g>
<g id="XMLID_1170_">
	<g id="XMLID_601_">
		<path id="XMLID_627_" class="st2" d="M88.3,175.5c0.5-0.4,1.3,0.2,1.8,0.1c0.7,0,1.1-0.6,1.3-1.2c0.2-0.6,0.3-1.3-0.4-1.7
			c-0.5-0.3-1.5-0.3-2.1-0.1c-0.2,0-0.2,0.3-0.1,0.4c0.4,0.3,0.8,0.2,1.2,0.2c0.5,0,1,0.2,0.8,0.7c-0.1,0.3-0.3,0.8-0.6,0.9
			c-0.4,0.1-0.9-0.2-1.3-0.2c-0.4-0.1-0.7,0-1,0.2C87.5,175.2,87.9,175.8,88.3,175.5L88.3,175.5z"/>
	</g>
</g>
<g id="XMLID_1176_">
	<g id="XMLID_559_">
		<path id="XMLID_587_" class="st2" d="M78.3,176.8c2.2,0.1,4.3,0.3,6.5,0.3c0.2,0,0.3-0.3,0.1-0.4c-0.9-0.4-1.9-0.4-2.8-0.4
			c-1.3,0-2.5-0.1-3.8-0.1C77.9,176.2,77.9,176.8,78.3,176.8L78.3,176.8z"/>
	</g>
</g>
<g id="XMLID_1182_">
	<g id="XMLID_517_">
		<path id="XMLID_545_" class="st2" d="M91.7,171.8c0.9,0,2.2-0.1,2.5-1.2c0.1-0.4,0.2-1.2-0.1-1.6c-0.1-0.2-0.2-0.3-0.4-0.3
			s-0.5,0.1-0.7,0c-0.3-0.1-0.6,0.2-0.3,0.4c0.2,0.2,0.4,0.2,0.6,0.1c0.3,0,0.3,0,0.3,0.3c0,0.2,0,0.4,0,0.6c-0.2,0.9-1.2,0.9-2,0.9
			C91.3,171.2,91.3,171.8,91.7,171.8L91.7,171.8z"/>
	</g>
</g>
<g id="XMLID_1183_">
	<g id="XMLID_475_">
		<path id="XMLID_503_" class="st2" d="M63.7,175.5c3.5,0.1,6.9,0,10.4-0.2c0.3,0,0.4-0.5,0.1-0.6c-1.4-0.5-3.1,0.1-4.6,0.1
			c-2,0.1-4,0.1-6,0.1C63.3,174.9,63.3,175.5,63.7,175.5L63.7,175.5z"/>
	</g>
</g>
<g id="XMLID_1189_">
	<g id="XMLID_434_">
		<path id="XMLID_462_" class="st2" d="M63.5,175c-0.3-2.1,3.4-1.5,4.4-1.5c1.3-0.1,2.6-0.4,3.8-0.1c0.2,0.1,0.4-0.2,0.2-0.4
			c-0.5-0.7-1.2-0.4-2-0.4c-1.5,0.1-3,0.2-4.5,0.2c-1.4,0-2.7,0.5-2.5,2.2C62.9,175.4,63.6,175.4,63.5,175L63.5,175z"/>
	</g>
</g>
<g id="XMLID_1196_">
	<g id="XMLID_392_">
		<path id="XMLID_420_" class="st2" d="M63,169.5c-0.3,0.7-0.3,1.3-0.2,2c0,0.2,0.2,0.3,0.3,0.3c0.9,0.1,1.7,0.6,2.6,0.6
			c0.9,0,1.6-0.5,2.5-0.5c1.3,0,2.5,0.5,3.6-0.4c0.2-0.2,0-0.5-0.3-0.5c-1.4,0.3-2.8-0.2-4.2,0.1c-1.4,0.3-4.7,0.8-3.9-1.5
			C63.6,169.3,63.1,169.2,63,169.5L63,169.5z"/>
	</g>
</g>
<g id="XMLID_1198_">
	<g id="XMLID_344_">
		<path id="XMLID_378_" class="st2" d="M63.6,169.9c0.6,0.2,1.1,0.2,1.7,0.1c1.1-0.1,2-0.1,3-0.1c0.5,0,0.9,0,1.4-0.1
			c1.2-0.2,2.2-0.1,3.3-0.1c0.2,0,0.3-0.3,0.2-0.4c-1-0.9-2.2-0.6-3.5-0.4c-1,0.2-2-0.1-3,0c-1.1,0-1.9,0.5-3,0.2
			C63.3,169,63.1,169.8,63.6,169.9L63.6,169.9z"/>
	</g>
</g>
<g id="XMLID_1213_">
	<g id="XMLID_303_">
		<path id="XMLID_331_" class="st2" d="M63.7,183.4c-1.8,0.7-3.6,2.5-1.7,4.2c0.7,0.6,1.6,1.5,2.5,1.7c1,0.2,2.1-0.3,2.9-0.9
			c1.5-1.3,1.7-3.7-0.1-4.9c-1.3-0.9-4.8-1.5-4.7,0.9c0,0.3,0.4,0.4,0.5,0.1c0.7-1.3,2.7-1.1,3.8-0.2c1.3,1,0.9,2.8-0.4,3.6
			c-0.7,0.4-1.4,0.6-2.2,0.2c-0.3-0.1-0.6-0.5-0.9-0.7c-0.5-0.3-1-0.6-1.3-1.1c-0.7-1.3,0.9-2.2,1.8-2.5
			C64.2,183.8,64,183.3,63.7,183.4L63.7,183.4z"/>
	</g>
</g>
<g id="XMLID_1225_">
	<g id="XMLID_262_">
		<path id="XMLID_290_" class="st2" d="M79.3,183.6c-1.7,0.5-2.8,1.6-1.6,3.3c1.1,1.6,3.5,2.9,5.3,1.8c0.7-0.4,1.5-1,1.7-1.8
			c0.2-0.9-0.5-2-1-2.6c-1.3-1.8-3.7-1.8-5.3-0.3c-0.2,0.1,0,0.4,0.2,0.3c1.2-0.2,2.5-1.1,3.7-0.4c0.5,0.3,0.9,0.9,1.2,1.4
			c0.4,0.9,0.4,1.5-0.2,2.2c-1,1.2-2.6,1-3.8,0.2c-0.5-0.3-1.1-0.8-1.5-1.3c-1-1.4-0.1-2.2,1.2-2.6
			C79.5,183.8,79.5,183.6,79.3,183.6L79.3,183.6z"/>
	</g>
</g>
<g id="XMLID_1257_">
	<g id="XMLID_1251_">
		<path id="XMLID_1245_" d="M26.6,202.8c0.8,0,0.8-1.3,0-1.3C25.8,201.6,25.8,202.8,26.6,202.8L26.6,202.8z"/>
	</g>
</g>
<ellipse id="XMLID_1263_" class="st6" cx="124" cy="232.7" rx="22.4" ry="19.1"/>
<ellipse id="XMLID_1269_" class="st6" cx="123.9" cy="232.7" rx="11.9" ry="19.1"/>
<ellipse id="XMLID_1275_" class="st6" cx="124" cy="232.2" rx="22.4" ry="10.4"/>
<line id="XMLID_1281_" class="st6" x1="124" y1="214" x2="124" y2="252"/>
<line id="XMLID_1287_" class="st6" x1="101.5" y1="232.5" x2="146.5" y2="232.5"/>
<ellipse id="XMLID_1293_" class="st7" cx="177" cy="263.5" rx="3.1" ry="2.5"/>
<ellipse id="XMLID_1294_" class="st7" cx="177.1" cy="263.6" rx="7.6" ry="5"/>
<g id="XMLID_1317_">
	<g id="XMLID_1343_">
		<path id="XMLID_158_" class="st2" d="M160.3,269.5c0.8,0,0.8-1.3,0-1.3C159.4,268.2,159.4,269.5,160.3,269.5L160.3,269.5z"/>
	</g>
</g>
<g id="XMLID_1324_">
	<g id="XMLID_1336_">
		<path id="XMLID_177_" class="st2" d="M158.6,268.3c2,1.7,4.2,2.2,6.8,2.5c4.2,0.4,8.5,0.6,12.7,0.6c6.8,0,15.1-0.8,20.7-4.9
			c0.2-0.2,0.1-0.6-0.2-0.5c-2.7,1-5.3,2.3-8.1,3c-3.4,0.8-7,1.2-10.5,1.3c-3.3,0.1-6.7-0.1-10-0.3c-3.6-0.2-7.7,0-10.7-2.5
			C158.8,267.2,158.1,267.9,158.6,268.3L158.6,268.3z"/>
	</g>
</g>
<g id="XMLID_1331_">
	<g id="XMLID_1329_">
		<path id="XMLID_191_" class="st2" d="M197.7,267.3c-5.9,4.6-13.4,6.7-20.8,6.4c-3.7-0.1-7.4-0.9-11-1.9c-2.1-0.6-3.5-1.3-5.1-2.7
			c-1-0.8-1.4-1.3-2.6-1.6c-0.6-0.2-0.9,0.6-0.4,1c1.5,1,2.6,2.6,4.2,3.4c1.2,0.6,2.7,1,4,1.3c4.1,1.1,8.3,1.7,12.5,1.6
			c7.2-0.2,13.9-2.3,19.6-6.8C198.6,267.5,198.1,267,197.7,267.3L197.7,267.3z"/>
	</g>
</g>
<g id="XMLID_1338_">
	<g id="XMLID_1322_">
		<path id="XMLID_225_" class="st2" d="M152.5,262.5c3.5,0.1,6.7,0,10.1-0.9c3.8-1,7.5-1.9,11.5-2.1c8.1-0.4,16.7,0.2,24.2,3.4
			c0.6,0.3,1.1-0.6,0.5-0.8c-7-3-14.8-3.6-22.4-3.6c-8.2,0-15.7,3.3-23.9,3.2C152,261.7,152,262.5,152.5,262.5L152.5,262.5z"/>
	</g>
</g>
<g id="XMLID_1345_">
	<g id="XMLID_1311_">
		<path id="XMLID_232_" class="st2" d="M153.2,261.7c2.6-0.6,5.2-1.2,7.8-1.9c0.3-0.1,0.3-0.5,0.1-0.6c-2.9-2-6.5-0.4-8.8-3.8
			c-0.1,0.2-0.3,0.4-0.4,0.7c2.7-0.3,5.1,1.4,7.8,1.7c2.3,0.3,4.7,0,7-0.3c0.4-0.1,0.6-0.5,0.3-0.8c-1-1.2-2.5-1.4-3.6-2.3
			c-1.4-1.5-1.7-3.1-1-4.6c0.2,0.3,0.4,0.6,0.6,0.9c0.8,0.5,1.5,1.6,2.3,2.3c2.8,2.2,6.3,4.2,9.9,3.1c0.2-0.1,0.3-0.3,0.2-0.5
			c-0.3-0.9-0.6-1.8-0.8-2.7c0.5-0.9,1-1.7,1.5-2.6c0.1,0,0.6,1.7,0.6,1.9c0.4,0.9,0.8,1.8,1.5,2.6c1.4,1.5,3.3,1.9,5.2,2.3
			c0.2,0,0.4-0.2,0.3-0.4c0.5-0.9,1.1-1.7,1.6-2.6c0,0.2,0,0.4,0,0.6c0.1,0.2,0,0.6,0.1,0.9c0.2,0.7,0.5,1.4,1,1.9
			c1,1.1,2.3,1.2,3.6,0.8c0.1,0,0.2-0.1,0.1-0.3c-0.5-0.7-0.3-1.3,0.5-1.7c0.1,0.3,0.2,0.5,0.3,0.8c-0.2-0.2,1.4,1.5,1.1,1.3
			c1.9,1.7,4.6,2.2,6.3,4.1c0.3,0.3,0.8-0.2,0.5-0.5c-2.4-2.5-6.1-2.6-7.9-5.8c-0.5-0.8-0.6-1.8-1.7-1.2c-0.1,0-0.1,0.1-0.1,0.2
			c0,0.1,0.3,1.8,0.2,1.9c-2.8-0.3-4-1.3-3.8-3.2c0-0.2,0-0.4-0.1-0.6c-0.2-0.4-0.3-0.8-0.8-1c-1.1-0.4-2,1.2-2.2,2.1
			c-0.3,1.4,0.8,2-1.1,1.7c-1.8-0.2-3.3-1.8-4.1-3.3c-0.2-0.3-0.7-2.7-1.2-3.1c-0.7-0.7-1-0.5-1.6,0.2c-1,1.1-0.6,2.8-0.7,4
			c0,0.4,0.4,0.9,0.3,1.1c-0.9,1.7-4,0.2-5-0.3c-0.9-0.5-1.8-1.1-2.7-1.7c-0.5-0.4-1-0.8-1.6-1.3c-0.8-0.7-1.4-1.4-1.9-2.3
			c-0.2-0.2-0.4-0.7-0.8-0.6c-1.3,0.3-1.6,2.8-1.5,3.9c0.4,2.9,3.8,2.8,5.4,4.7c0.1-0.3,0.2-0.5,0.3-0.8c-3,0.4-6,0.8-9-0.1
			c-2-0.6-3.7-1.5-5.8-1.2c-0.3,0-0.6,0.4-0.4,0.7c1.1,1.5,2.5,2.5,4.3,2.9c1,0.2,4.7,0,3.3,0.9c-1.4,0.9-4.4,1.2-6.1,1.6
			C152.7,261.3,152.9,261.8,153.2,261.7L153.2,261.7z"/>
	</g>
</g>
<rect id="XMLID_1346_" x="-66.1" y="302.1" class="st0" width="9.1" height="7.8"/>
<rect id="XMLID_1347_" x="-55.4" y="298" class="st0" width="10" height="11.9"/>
<rect id="XMLID_1348_" x="-43.7" y="288.4" class="st0" width="9.4" height="21.5"/>
<line id="XMLID_1349_" class="st0" x1="17" y1="330" x2="17" y2="309"/>
<line id="XMLID_1350_" class="st0" x1="49" y1="330" x2="48.5" y2="309"/>
<line id="XMLID_1351_" class="st0" x1="13.5" y1="308.5" x2="50.5" y2="308.5"/>
<line id="XMLID_1352_" class="st0" x1="16.5" y1="311.5" x2="47.5" y2="311.5"/>
<line id="XMLID_1353_" class="st0" x1="61.1" y1="329.6" x2="60.8" y2="316.5"/>
<line id="XMLID_1354_" class="st0" x1="60.5" y1="316.5" x2="74.5" y2="316.5"/>
<line id="XMLID_1355_" class="st0" x1="74" y1="330" x2="74" y2="317"/>
<g id="XMLID_1362_">
	<g id="XMLID_1361_">
		<path id="XMLID_1360_" d="M75.2,315.9c1.8-6.6,3.4-13.5,3.7-20.4c0-0.6-1-0.8-1.1-0.1c-1,6.8-1.9,13.6-3.6,20.3
			C74,316.3,75,316.6,75.2,315.9L75.2,315.9z"/>
	</g>
</g>
<g id="XMLID_1369_">
	<g id="XMLID_1368_">
		<path id="XMLID_1367_" d="M60.8,315.9c-4.3-0.6-2.2,8.3-3.8,10.4c-1.2,0.6-2.4,1.2-3.6,1.8c-0.3-0.7-0.7-1.4-1-2.1
			c-0.1-0.7,0.4-1.8,0.5-2.5c0.4-1.8,0.7-3.6,1.1-5.4c0.3-1.5,0.6-4,1.7-5.2c2.1-2.3,5.4-2,8.3-2.1c0.3,0,0.4-0.2,0.4-0.5
			c-0.5-2.5-0.2-4.1,0-6.6c0-0.5,0.2-0.9,0-1.4c-0.3-0.8-1-1.1-1.8-1.1c-1.6,0-3.7,1.8-5,2.5c-2.8,1.5-5.7,3-8.5,4.4
			c-0.2,0.1,0,0.3,0.1,0.3c3.2-1.2,6.3-2.6,9.3-4.3c0.5-0.3,2.1-1.6,2.6-1.5c1.2,0.2,2,1.7,2.2,2.6c0.1,0.6,0.3,3.7,0.1,4.1
			c-1.1,1.8-5.2,0.2-7.1,1.6c-2,1.5-2.6,4.6-3,6.9c-0.4,1.8-0.7,3.6-1.1,5.4c-0.2,1.2-1,2.9-0.5,4.1c0.4,1.2,1.4,1.5,2.6,1.6
			c6.1,0.5,3.7-12.5,6.6-12.2C61.1,316.8,61.2,315.9,60.8,315.9L60.8,315.9z"/>
	</g>
</g>
<g id="XMLID_1376_">
	<g id="XMLID_1375_">
		<path id="XMLID_1374_" d="M47,307.4c0.2-1.1,2.6-2.5,3.6-2.9c0.6-0.3,1.3-0.4,2-0.6c1.2-0.4,2.3-0.9,3.4-1.5c1.7-0.8,4-1.8,5-3.6
			c0.1-0.2,0-0.6-0.3-0.6c-4.6,0.4-9.6,1-14.2,0.7c-0.6-0.1-1.2-0.2-1.8-0.3c-2-2.2-2-3.2,0.1-3c0.9-0.1,1.8,0,2.7,0
			c2.3,0,4.6,0,7,0c4.6,0,10.3-0.8,14.7,0.6c5.3,1.7,4,7.9,5.6,12.2c0.2,0.6,1.1,0.3,0.9-0.3c-0.9-2.3-1.1-4.5-1.4-7
			c-0.1-1.3-0.4-2.4-1.2-3.5c-1.7-2.3-4.6-2.9-7.3-3.1c-4.8-0.3-9.7-0.1-14.4-0.1c-2.4,0-7.2-1-9.2,0.6c-1.4,1.1-0.9,2.6,0.3,3.6
			c2.7,2,7.7,0.8,10.7,0.6c1.2-0.1,2.5-0.2,3.7-0.2c1.1-0.1,3-1,1.8,0.6c-1.1,1.3-4.4,2.5-5.9,3c-2.6,1-6.2,1.1-6.7,4.3
			C46.1,307.7,47,307.9,47,307.4L47,307.4z"/>
	</g>
</g>
<g id="XMLID_1383_">
	<g id="XMLID_1382_">
		<path id="XMLID_1381_" d="M61.6,294.5c0.9-0.3,1.9-0.1,2.7-0.5c0.9-0.3,1.5-1.1,2.2-1.7c1-0.8,1.6-1.7,1.8-3.1
			c0.5-3.7-2.7-5.7-6.1-5.7c-3.1,0.1-6.9,1.2-6.9,4.9c-0.1,3.2,4,6.1,6.7,7c0.3,0.1,0.6-0.4,0.3-0.6c-1.5-1.4-3.4-2.3-4.9-3.7
			c-1.1-1.1-1.6-2.9-0.7-4.3c0.9-1.4,2.7-1.8,4.3-2c3.2-0.4,7.2,1,6.3,5c-0.6,2.7-3.7,3.4-5.9,4.1C61,293.9,61.2,294.6,61.6,294.5
			L61.6,294.5z"/>
	</g>
</g>
<g id="XMLID_1390_">
	<g id="XMLID_1389_">
		<path id="XMLID_1388_" d="M21.4,318.7c5.1-0.3,10.1-0.4,15.2-0.4c1.1,0,2.9-0.3,3.8,0.1c1.7,0.7,1.5,2.9,1.6,4.4
			c0.3,2.3,0.4,4.7,0.3,7c0,0.6,0.9,0.6,0.9,0c0-4-0.4-7.9-1.3-11.8c0-0.1-0.2-0.2-0.3-0.2c-6.8-0.3-13.5-0.3-20.3,0.1
			C20.9,318,20.9,318.8,21.4,318.7L21.4,318.7z"/>
	</g>
</g>
<g id="XMLID_1397_">
	<g id="XMLID_1396_">
		<path id="XMLID_1395_" d="M21,318.6c-0.3,3.7-0.7,7.5-0.3,11.2c0,0.2,0.2,0.5,0.4,0.4c7.1-0.7,14.3,0.5,21.4,0.2c0.6,0,0.6-1,0-1
			c-5.4,0.5-10.7-0.2-16.1-0.3c-0.9,0-3.4,0.5-4.2,0.1c-1.2-0.7-0.9-1.4-0.9-2.7c0-2.6,0.2-5.3,0.3-7.9
			C21.8,318.1,21.1,318.1,21,318.6L21,318.6z"/>
	</g>
</g>
<g id="XMLID_1404_">
	<g id="XMLID_1403_">
		<path id="XMLID_1402_" d="M29.3,316.8c-0.1-1.5,1.9-2.3,3.2-2.2c1.8,0.2,1.7,2.3,1.8,3.6c0,0.3,0.5,0.5,0.7,0.2
			c0.5-0.9,0.2-2.3-0.3-3.2c-0.4-0.8-1-1.3-1.9-1.5c-1.9-0.3-4.6,0.9-4.5,3.1C28.4,317.4,29.4,317.5,29.3,316.8L29.3,316.8z"/>
	</g>
</g>
<g id="XMLID_1411_">
	<g id="XMLID_1410_">
		<path id="XMLID_1409_" d="M28.6,316.7c-0.1,0.4-0.1,0.8,0.3,1.2c0.2,0.2,0.5,0,0.5-0.2c0-0.3-0.1-0.5,0-0.8
			C29.4,316.4,28.7,316.2,28.6,316.7L28.6,316.7z"/>
	</g>
</g>
<g id="XMLID_1418_">
	<g id="XMLID_1417_">
		<path id="XMLID_1416_" d="M46.4,294.4c1-1.1,4-3.2,4.3-4.8c0.2-1.4-0.5-1.6-1.5-2.4c-2-1.6-4.2-3.1-6.4-4.4
			c-1.1-0.7-3.5-2.7-4.9-2.4c-1.4,0.3-3.3,3.1-4.3,4.1c-0.8,0.8-2,1.9-2,3.1c0,1.5,1.3,2.1,2.3,2.9c2.5,1.9,5,3.7,7.5,5.5
			c0.4,0.3,0.8-0.4,0.4-0.7c-1.3-0.9-2.5-1.8-3.8-2.7c-1.1-0.8-3-1.7-3.8-2.8c-2.3-3-0.7-3.8,0.9-5.3c1.2-1.2,2.2-2.9,4.2-2.5
			c2.1,0.4,4.9,2.8,6.7,4c1.8,1.1,4.2,1.8,2.9,4.8c-0.5,1.1-2,2.3-2.8,3.2C45.8,294.3,46.1,294.6,46.4,294.4L46.4,294.4z"/>
	</g>
</g>
<g id="XMLID_1425_">
	<g id="XMLID_1424_">
		<path id="XMLID_1423_" d="M43.8,294c0.1-1.2,0.1-2.3,0.2-3.5c0-0.6-1-0.6-1,0c0,1.2,0,2.3-0.1,3.5C43,294.5,43.8,294.5,43.8,294
			L43.8,294z"/>
	</g>
</g>
<g id="XMLID_1432_">
	<g id="XMLID_1431_">
		<path id="XMLID_1430_" d="M32.5,287.6c1.8,0.3,3.6,0.3,5.4,0c0.5-0.1,0.3-0.9-0.2-0.8c-1.7,0.3-3.3,0.3-5,0.1
			C32.3,286.7,32,287.5,32.5,287.6L32.5,287.6z"/>
	</g>
</g>
<g id="XMLID_1439_">
	<g id="XMLID_1438_">
		<path id="XMLID_1437_" d="M38,283.1c0.1,2.2-0.3,4.9,1.2,6.8c0.1,0.2,0.4,0,0.3-0.2c-0.2-1.2-0.7-2.2-0.8-3.4
			c-0.1-1.1-0.1-2.1-0.1-3.2C38.6,282.7,38,282.7,38,283.1L38,283.1z"/>
	</g>
</g>
<g id="XMLID_1446_">
	<g id="XMLID_1445_">
		<path id="XMLID_1444_" d="M40.1,289.8c3.1-0.2,6.2,0.9,9.2,0.3c0.3-0.1,0.2-0.6-0.1-0.6c-3.1,0-6.1-0.6-9.2-0.4
			C39.7,289.1,39.7,289.8,40.1,289.8L40.1,289.8z"/>
	</g>
</g>
<g id="XMLID_1453_">
	<g id="XMLID_1452_">
		<path id="XMLID_1451_" d="M396.5,507.6c0.8,0,0.8-1.3,0-1.3C395.7,506.4,395.7,507.6,396.5,507.6L396.5,507.6z"/>
	</g>
</g>
<g id="XMLID_1460_">
	<g id="XMLID_1459_">
		<path id="XMLID_1458_" d="M396.5,507C396.6,507,396.6,507,396.5,507S396.4,507,396.5,507L396.5,507z"/>
	</g>
</g>
<g id="XMLID_1467_">
	<g id="XMLID_1466_">
		<path id="XMLID_1465_" d="M397.5,505.1c0.8,0,0.8-1.3,0-1.3C396.7,503.9,396.7,505.1,397.5,505.1L397.5,505.1z"/>
	</g>
</g>
<g id="XMLID_1474_">
	<g id="XMLID_1473_">
		<path id="XMLID_1472_" d="M397.5,504.5c-1.5,0.3-3,0.6-4.5,0.8c-0.3,0-0.2,0.5,0.1,0.4C394.5,505.3,396,504.9,397.5,504.5
			C397.6,504.5,397.5,504.5,397.5,504.5L397.5,504.5z"/>
	</g>
</g>
<g id="XMLID_1481_">
	<g id="XMLID_1545_">
		<path id="XMLID_1479_" class="st3" d="M266.6,215.2c8.9-0.3,17.7,0.2,26.6,0.8c2.1,0.1,4.1,0.2,6.2,0.1c0.8-0.1,1.8-0.4,2.6-0.3
			c2.7,0.5,2.7,2.5,2.7,4.6c0,5.1-3.5,9.1-8.5,9.9c-0.4,0.1-0.3,0.7,0.1,0.6c3.5-0.3,6.5-2.5,8-5.7c1.1-2.3,2.4-8.6-0.7-9.9
			c-1.8-0.8-4.8,0.2-6.6,0.2c-3.3,0-6.6-0.4-9.9-0.7c-6.8-0.4-13.6-0.2-20.4,0.2C266.5,215,266.5,215.2,266.6,215.2L266.6,215.2z"/>
	</g>
</g>
<g id="XMLID_1488_">
	<g id="XMLID_1538_">
		<path id="XMLID_1303_" class="st3" d="M297,227.7c2.5-1.5,5.5-3.4,5.5-6.6c0-2.8-1.9-3.8-4.4-4c-5.7-0.4-11.6-0.1-17.3-0.2
			c-5.4-0.1-10.7-0.3-16,0.5c-0.5,0.1-0.3,0.8,0.2,0.8c7.2-1,14.6-0.6,21.9-0.5c3.3,0,6.7-0.2,9.9,0.1c1.4,0.1,3.6,0.4,4.6,1.5
			c1.1,1.3,0.3,3.2-0.4,4.3c-1,1.7-2.7,2.7-4.3,3.7C296.4,227.4,296.7,227.9,297,227.7L297,227.7z"/>
	</g>
</g>
<g id="XMLID_1495_">
	<g id="XMLID_1531_">
		<path id="XMLID_1295_" class="st3" d="M266.4,215c-4.7,0.4-5,5.2-3.4,8.7c2,4.6,6.8,7.2,11.7,7.1c0.5,0,0.5-0.8,0-0.8
			c-3.3,0.1-6.3-0.9-8.7-3.2c-1.1-1.1-2-2.4-2.6-3.9c-1.1-2.9-0.8-7.1,3-7.5C266.7,215.5,266.7,215,266.4,215L266.4,215z"/>
	</g>
</g>
<g id="XMLID_1502_">
	<g id="XMLID_1524_">
		<path id="XMLID_1279_" class="st3" d="M271.7,227.2c-2.2-0.6-4.4-2.2-5.1-4.4c-0.4-1.5-1.1-3.6-1-5.1c0-0.4-0.6-0.5-0.7-0.1
			c-0.4,1.1,0.1,2,0.3,3.1c0.3,1.2,0.4,2.4,0.9,3.5c1,1.9,3.3,3.2,5.3,3.7C272,228,272.1,227.3,271.7,227.2L271.7,227.2z"/>
	</g>
</g>
<g id="XMLID_1509_">
	<g id="XMLID_1517_">
		<path id="XMLID_1258_" class="st3" d="M271.5,228.2c0.7,0.6,1.5,0.9,2.4,0.8c0.3,0,0.6-0.3,0.6-0.6s-0.3-0.7-0.6-0.6
			c-0.6,0.1-1.1,0-1.5-0.4C271.7,226.7,270.8,227.6,271.5,228.2L271.5,228.2z"/>
	</g>
</g>
<g id="XMLID_1516_">
	<g id="XMLID_1510_">
		<path id="XMLID_668_" class="st3" d="M274.5,229.2c1.2,3.4,3.7,5.7,7.2,6.6c4.1,1.1,10.1,1.8,13.7-0.9c2.7-1.9,2.4-6,0.9-8.6
			c-2.1-3.7-9.5-0.6-12.8-1.6c-0.4-0.1-0.7,0.4-0.4,0.7c2,2.3,3.2,4.9,3.6,8c0.1,0.5,0.9,0.3,0.8-0.2c-0.4-3.2-1.7-5.9-3.8-8.3
			c-0.1,0.2-0.3,0.5-0.4,0.7c2.8,0.8,5.3-0.1,8.1-0.1c2.6,0,3.8,0.3,4.8,2.9c0.9,2.5,0.2,5-2.3,6.3c-3.2,1.6-7.6,1-11,0.4
			c-3.7-0.6-6.5-2.4-7.8-6C274.9,228.7,274.4,228.9,274.5,229.2L274.5,229.2z"/>
	</g>
</g>
<g id="XMLID_1523_">
	<g id="XMLID_1503_">
		<path id="XMLID_515_" class="st3" d="M275.3,228.3c0.2-2.3,2.3-3.6,4.4-3.8c1.5-0.1,2.9,0.3,4.3,0.4c0.2,0,0.3-0.3,0.1-0.4
			c-3.4-1.6-9.1-0.8-9.5,3.7C274.5,228.7,275.2,228.7,275.3,228.3L275.3,228.3z"/>
	</g>
</g>
<g id="XMLID_1530_">
	<g id="XMLID_1496_">
		<path id="XMLID_506_" class="st3" d="M296.4,225.3c3.4-0.6,5.1-4.5,3.6-7.6c-0.1-0.2-0.3,0-0.3,0.1c0.3,1.7,0.6,3.2-0.3,4.7
			c-0.7,1.2-1.8,2-3.2,2.3C296,224.9,296.1,225.4,296.4,225.3L296.4,225.3z"/>
	</g>
</g>
<g id="XMLID_1537_">
	<g id="XMLID_1489_">
		<path id="XMLID_494_" class="st3" d="M273.8,225.4c-1.6-0.1-2.9-1.1-3.7-2.5c-0.7-1.4-0.6-2.9-1.2-4.2c-0.1-0.3-0.6-0.4-0.7,0
			c-0.4,1.7,0.5,3.9,1.5,5.2s2.4,2.1,4,2.2C274.2,226.1,274.2,225.4,273.8,225.4L273.8,225.4z"/>
	</g>
</g>
<g id="XMLID_1544_">
	<g id="XMLID_1482_">
		<path id="XMLID_485_" class="st3" d="M269.7,219.6c1.2-0.3,1.8,1.3,2.9,1.5c0.6,0.1,1.3-0.2,1.5-0.8c0.1-0.3-0.4-0.5-0.5-0.1
			s-0.6,0.5-0.9,0.4c-0.2-0.1-0.4-0.2-0.6-0.3c-0.3-0.2-0.6-0.6-0.9-0.8c-0.5-0.3-1-0.5-1.6-0.4
			C269.2,219.1,269.3,219.7,269.7,219.6L269.7,219.6z"/>
	</g>
</g>
<g id="XMLID_1551_">
	<g id="XMLID_1475_">
		<path id="XMLID_388_" class="st3" d="M274.2,219.8c-0.1,0.5-0.2,1-0.1,1.5c0,0.2,0.3,0.1,0.3,0c0-0.4,0.1-0.9,0.2-1.3
			C274.6,219.7,274.2,219.6,274.2,219.8L274.2,219.8z"/>
	</g>
</g>
<g id="XMLID_1558_">
	<g id="XMLID_1297_">
		<path id="XMLID_336_" class="st3" d="M274.5,221.6c0.5,1,1.8,1.8,2.9,1.4c0.2-0.1,0.2-0.4-0.1-0.4c-1,0.1-2-0.2-2.5-1.2
			C274.8,221.1,274.4,221.3,274.5,221.6L274.5,221.6z"/>
	</g>
</g>
<g id="XMLID_1565_">
	<g id="XMLID_1289_">
		<path id="XMLID_239_" class="st3" d="M278.9,221.2c0,0.3-0.1,0.7-0.1,1s0.4,0.3,0.5,0c0-0.3,0.1-0.7,0.1-1
			S278.9,220.9,278.9,221.2L278.9,221.2z"/>
	</g>
</g>
<g id="XMLID_1572_">
	<g id="XMLID_1265_">
		<path id="XMLID_291_" class="st3" d="M277.9,222.6c0.3-0.1,0.7-0.2,1-0.3c0.1,0,0.1-0.2,0-0.2c-0.3,0.1-0.7,0.1-1,0.2
			C277.7,222.4,277.8,222.7,277.9,222.6L277.9,222.6z"/>
	</g>
</g>
<g id="XMLID_1579_">
	<g id="XMLID_683_">
		<path id="XMLID_313_" class="st3" d="M279.9,223c1.2,0.8,3.1,0.5,4.5,0.4c0.1,0,0.2-0.1,0.2-0.2c0-0.4,0-0.9,0-1.3
			c0-0.3-0.4-0.3-0.4,0c0,0.4,0,0.9,0,1.3c0.1-0.1,0.2-0.2,0.2-0.2c-1.3,0-3.1,0.4-4.2-0.3C279.9,222.5,279.7,222.9,279.9,223
			L279.9,223z"/>
	</g>
</g>
<g id="XMLID_1586_">
	<g id="XMLID_403_">
		<path id="XMLID_329_" class="st3" d="M284.8,223.2c1.4,0.4,3.2,0.3,4.6,0.1c0.9-0.1,0.9-1.4,0.8-2.1c0-0.2-0.3-0.2-0.3,0
			c-0.1,0.3-0.1,0.4-0.2,0.7c-0.2,0.8-0.7,0.9-1.4,1c-1.1,0.1-2.2,0.2-3.3-0.1C284.7,222.7,284.6,223.1,284.8,223.2L284.8,223.2z"/>
	</g>
</g>
<g id="XMLID_1593_">
	<g id="XMLID_380_">
		<path id="XMLID_376_" class="st3" d="M289.8,223.2c1.3,0.3,3,0.5,4.3-0.1c1-0.4,0.5-1.7,0.3-2.5c0-0.1-0.3-0.1-0.3,0
			c0,0.4,0.1,0.7,0.2,1.1c0,0.3,0.1,0.7-0.3,1c-0.2,0.1-0.6,0.1-0.8,0.2c-1.1,0.2-2.2,0.1-3.3-0.1
			C289.7,222.8,289.6,223.1,289.8,223.2L289.8,223.2z"/>
	</g>
</g>
<g id="XMLID_1600_">
	<g id="XMLID_588_">
		<path id="XMLID_504_" class="st3" d="M294.6,221.9c1.8,0.6,4.3,0,5.9-0.9c0.1-0.1,0.1-0.3-0.1-0.3c-1.9,0-3.7,1.2-5.6,0.6
			C294.3,221.2,294.2,221.8,294.6,221.9L294.6,221.9z"/>
	</g>
</g>
<ellipse id="XMLID_595_" class="st0" cx="66.9" cy="261" rx="9.4" ry="8.6"/>
<line id="XMLID_602_" class="st0" x1="67" y1="256" x2="67" y2="262"/>
<line id="XMLID_609_" class="st0" x1="67" y1="262" x2="69.7" y2="260"/>
<ellipse id="XMLID_687_" class="st0" cx="182.4" cy="130.5" rx="11.1" ry="10.9"/>
<line id="XMLID_694_" class="st0" x1="175.8" y1="125.7" x2="189.3" y2="134.3"/>
<line id="XMLID_701_" class="st0" x1="177" y1="136" x2="187.5" y2="124.7"/>
<line id="XMLID_708_" class="st0" x1="217.3" y1="213.6" x2="221.8" y2="212.7"/>
<line id="XMLID_716_" class="st0" x1="190.2" y1="138.2" x2="183.9" y2="147.5"/>
<line id="XMLID_717_" class="st0" x1="183.9" y1="147.5" x2="175.8" y2="139.3"/>
<ellipse id="XMLID_718_" class="st0" cx="245" cy="233.3" rx="11.8" ry="11.3"/>
<line id="XMLID_727_" class="st0" x1="245" y1="227" x2="245" y2="239"/>
<line id="XMLID_728_" class="st0" x1="252" y1="233" x2="238.7" y2="232.7"/>
<ellipse id="XMLID_408_" class="st0" cx="360.6" cy="181.3" rx="10.4" ry="10.2"/>
<ellipse id="XMLID_100_" class="st0" cx="360.3" cy="181.2" rx="6" ry="6"/>
<circle id="XMLID_101_" class="st0" cx="360.6" cy="181.2" r="1.3"/>
<line id="XMLID_102_" class="st0" x1="316.6" y1="211.4" x2="353.2" y2="188.3"/>
<ellipse id="XMLID_110_" class="st0" cx="412.5" cy="287" rx="15.9" ry="15.5"/>
<line id="XMLID_111_" class="st0" x1="409.3" y1="280.5" x2="419.3" y2="287"/>
<line id="XMLID_307_" class="st0" x1="419.3" y1="287" x2="410.2" y2="292.3"/>
<line id="XMLID_308_" class="st0" x1="410.2" y1="292.3" x2="409.7" y2="280.5"/>
<g id="XMLID_163_">
	<g id="XMLID_729_">
		<path id="XMLID_103_" class="st2" d="M83.8,273.1c0.8,0,0.8-1.3,0-1.3C82.9,271.9,82.9,273.1,83.8,273.1L83.8,273.1z"/>
	</g>
</g>
<ellipse id="XMLID_55_" class="st7" cx="4.2" cy="367.9" rx="15.6" ry="15.3"/>
<line id="XMLID_359_" class="st0" x1="-26.5" y1="308.5" x2="4.5" y2="308.5"/>
<line id="XMLID_125_" class="st0" x1="-80.5" y1="311.5" x2="-70.5" y2="311.5"/>
<path class="st7" d="M4.4,238c-3,0.4-5.1,2-6.3,4.7c-1.2,2.8,0.5,6.7,3.6,6.8c2.8,0.1,4.9-2.9,4.8-5.7s-1.3-4.6-2.8-6.9
	c0.7,1.2,1.9,3.6,3.3,5.5c1.5,1.9,4.9,2,6.6,0.2c0.7-0.7,1.1-1.7,1.2-2.8c0.3-3.1-1.7-6.2-4.4-7.6s-6.1-1.4-9.1-0.4
	c-4.3,1.4-8,5-9,9.4c-1,4.4,1,9.5,5.1,11.6c2.1,1,4.5,1.3,6.8,1c4.9-0.5,9.5-3.2,12.3-7.2"/>
</svg>
